<?xml version="1.0" encoding="UTF-8" standalone="no"?>
<!-- Created with Inkscape (http://www.inkscape.org/) -->

<svg
   width="112.83432mm"
   height="73.889534mm"
   viewBox="0 0 112.83432 73.889534"
   version="1.1"
   id="svg1"
   xml:space="preserve"
   inkscape:version="1.3 (0e150ed6c4, 2023-07-21)"
   sodipodi:docname="eepy-cat.svg"
   xmlns:inkscape="http://www.inkscape.org/namespaces/inkscape"
   xmlns:sodipodi="http://sodipodi.sourceforge.net/DTD/sodipodi-0.dtd"
   xmlns="http://www.w3.org/2000/svg"
   xmlns:svg="http://www.w3.org/2000/svg"
   xmlns:rdf="http://www.w3.org/1999/02/22-rdf-syntax-ns#"
   xmlns:cc="http://creativecommons.org/ns#"><sodipodi:namedview
     id="namedview1"
     pagecolor="#505050"
     bordercolor="#eeeeee"
     borderopacity="1"
     inkscape:showpageshadow="0"
     inkscape:pageopacity="0"
     inkscape:pagecheckerboard="0"
     inkscape:deskcolor="#505050"
     inkscape:document-units="mm"
     inkscape:zoom="0.27653847"
     inkscape:cx="273.01807"
     inkscape:cy="88.595268"
     inkscape:window-width="1366"
     inkscape:window-height="648"
     inkscape:window-x="0"
     inkscape:window-y="0"
     inkscape:window-maximized="1"
     inkscape:current-layer="layer1" /><defs
     id="defs1" /><g
     inkscape:label="Layer 1"
     inkscape:groupmode="layer"
     id="layer1"
     transform="translate(-42.301883,-119.287)"><path
       style="fill:#f9f9f9"
       d="m 84.594963,192.83579 c -2.05366,-0.49815 -4.16598,-1.63274 -5.22775,-2.80799 -1.59186,-1.762 -1.29058,-3.57952 0.9473,-5.71467 2.72306,-2.59805 5.3088,-4.11312 9.171756,-5.37404 6.0951,-1.98951 10.686121,-1.61071 25.046861,2.06661 4.79311,1.22736 7.70888,1.70154 9.10128,1.4801 4.60589,-0.7325 8.61305,-2.25948 11.40393,-4.34562 1.87062,-1.39826 6.5634,-6.03122 8.18409,-8.07978 1.43328,-1.81166 2.83396,-4.28369 2.57431,-4.54334 -0.21293,-0.21293 -0.12947,-0.30355 -1.50386,1.63293 -0.61969,0.87312 -1.03312,1.34937 -0.91873,1.05833 1.0744,-2.73356 1.48132,-4.90691 1.49853,-8.00365 0.0174,-3.12651 0.038,-3.24105 0.58194,-3.23866 0.98587,0.004 3.18033,1.47699 4.83201,3.24264 1.97502,2.1113 3.26425,4.38392 4.206,7.41418 0.64231,2.06679 0.70916,2.62563 0.60208,5.0333 -0.16565,3.72464 -1.0309,5.51564 -4.17844,8.64906 -4.44466,4.42473 -10.34881,6.88975 -19.97897,8.34132 -2.63469,0.39713 -3.83476,0.40675 -12.66727,0.10156 -11.30326,-0.39057 -12.00459,-0.33304 -18.375251,1.50741 -2.28089,0.65894 -5.02074,1.36859 -6.08857,1.57702 -2.34306,0.45732 -7.332076,0.4591 -9.211246,0.003 z m -17.95141,-7.83004 c -3.19661,-0.65534 -6.4823,-1.71916 -6.4823,-2.09881 0,-0.10921 0.47625,-0.38564 1.05834,-0.61429 1.03138,-0.40514 1.31596,-0.797 0.80716,-1.11146 -0.13815,-0.0854 -0.97308,0.088 -1.8554,0.38519 -1.4963,0.50406 -1.64835,0.51151 -2.2601,0.11068 -0.36073,-0.23636 -0.60148,-0.51776 -0.53499,-0.62533 0.0665,-0.10757 1.13702,-0.46865 2.37897,-0.80241 1.24196,-0.33376 2.25811,-0.70898 2.25811,-0.83382 0,-0.40694 -2.29517,-0.23909 -4.00424,0.29283 l -1.67013,0.5198 -0.63445,-0.58595 c -1.15379,-1.06559 -3.16727,-4.15894 -3.98387,-6.12051 -0.89379,-2.14698 -1.61844,-5.78754 -1.60433,-8.05999 0.005,-0.81768 0.18901,-2.43919 0.40875,-3.60336 0.21973,-1.16417 0.46662,-2.54256 0.54863,-3.0631 l 0.14912,-0.94643 -2.72343,-1.17024 c -1.49788,-0.64363 -3.50509,-1.5393 -4.46047,-1.99037 l -1.73704,-0.82015 1.40209,-0.30433 c 6.11794,-1.32796 17.06943,1.67597 21.67664,5.94578 0.39643,0.3674 0.76097,0.54744 0.81009,0.40008 0.30025,-0.90076 -2.83732,-3.49782 -6.16174,-5.10026 -5.07348,-2.44553 -13.4851,-3.48153 -16.6307,-2.0483 -0.38596,0.17585 -0.77293,0.24855 -0.85994,0.16154 -0.087,-0.087 0.41951,-1.25874 1.1256,-2.60385 2.97967,-5.67633 8.79685,-10.06017 14.71762,-11.09123 0.97884,-0.17045 1.77971,-0.4063 1.77971,-0.52409 0,-0.11779 -0.47625,-0.29462 -1.05833,-0.39297 -0.58208,-0.0983 -1.05833,-0.25767 -1.05833,-0.35406 0,-0.33687 6.27407,-7.0672 7.95828,-8.53701 8.30881,-7.25115 20.36967,-10.83503 33.713596,-10.01797 12.028921,0.73653 20.735531,4.3665 28.953861,12.07148 4.78663,4.48764 7.97826,8.58792 11.08887,14.2459 2.55605,4.64925 3.74483,9.14527 3.74275,14.1552 -0.003,6.0801 -1.67796,9.64239 -6.91453,14.70162 -2.79989,2.70508 -5.199,4.2425 -8.29595,5.31631 -1.86892,0.64802 -2.50378,0.73465 -5.42396,0.74013 -3.0022,0.006 -3.72228,-0.096 -7.80595,-1.10163 -7.87216,-1.93859 -15.557581,-3.25226 -19.026911,-3.25226 -2.17349,0 -6.18341,0.77498 -8.356726,1.61507 -4.13656,1.59897 -8.06012,4.27241 -9.42158,6.41968 l -0.76488,1.20635 -4.23333,-0.0127 c -3.0355,-0.009 -4.90712,-0.15077 -6.61458,-0.50081 z m 13.47636,-9.24314 c 0.83737,-0.40129 1.89644,-0.55148 4.77989,-0.67786 4.07302,-0.17851 5.840186,-0.47436 7.342186,-1.22919 0.98306,-0.49404 1.4376,-1.25465 0.52916,-0.88549 -1.53905,0.62541 -2.5033,0.73836 -6.680726,0.78258 -3.71457,0.0393 -4.83758,0.13889 -5.67886,0.50357 -1.23479,0.53526 -1.99406,1.16962 -1.99406,1.66602 0,0.48777 0.43694,0.4468 1.70241,-0.15963 z m -12.02116,-0.30439 c 0,-0.57413 -1.595,-1.76501 -2.75527,-2.05717 -0.65077,-0.16387 -2.58901,-0.30317 -4.3072,-0.30955 -3.221,-0.012 -4.69122,-0.32262 -5.65504,-1.19487 -0.73998,-0.66967 -0.62877,-0.0316 0.15733,0.90259 1.03336,1.22808 2.47537,1.63234 6.61799,1.8553 2.63374,0.14176 3.92094,0.32422 4.48699,0.63601 0.93188,0.51331 1.4552,0.57362 1.4552,0.16769 z M 110.1582,162.27259 c 0.15064,-0.28148 0.27389,-1.38318 0.27389,-2.44824 0,-5.40197 -3.93767,-12.42382 -8.4865,-15.13354 -1.59425,-0.94969 -2.577511,-1.12694 -1.28712,-0.23203 2.56139,1.77638 5.57746,5.77403 7.07101,9.37227 0.83073,2.00139 1.64428,5.39023 1.64428,6.84925 v 0.82866 l -1.01463,-1.28053 c -3.00525,-3.79284 -6.08249,-6.31132 -8.903441,-7.28678 -2.91753,-1.00885 -7.0727,-0.26298 -12.174636,2.1854 -2.09805,1.00684 -5.15938,3.19503 -5.15938,3.68785 0,0.14087 1.33945,-0.44524 2.97656,-1.30246 5.211466,-2.72884 9.417166,-3.90242 12.333036,-3.44149 1.55666,0.24608 4.028421,1.33266 5.818401,2.55777 1.23429,0.84478 5.14785,4.57424 4.97814,4.74395 -0.0561,0.0561 -0.6697,-0.14124 -1.36346,-0.43862 -0.69377,-0.29739 -2.3412,-0.85135 -3.66096,-1.23103 -2.0353,-0.58554 -2.74315,-0.66925 -4.663031,-0.55141 -1.24491,0.0764 -2.56113,0.26264 -2.92494,0.41386 -0.51725,0.21499 -0.0269,0.27958 2.24896,0.29624 3.242051,0.0237 5.482431,0.49764 8.466671,1.79097 3.07843,1.33414 3.41567,1.38877 3.82715,0.61991 z m -49.372407,-3.85476 c -1.11319,-0.35111 -7.0039,-0.98397 -7.21296,-0.77491 -0.31087,0.31088 0.48876,0.48175 3.21271,0.68652 1.63836,0.12316 3.15743,0.26912 3.37571,0.32435 0.21829,0.0552 0.69454,0.10248 1.05834,0.10497 0.47759,0.003 0.357,-0.0915 -0.4338,-0.34093 z m 30.462316,-12.97128 c 1.12681,-0.51351 2.74902,-1.12834 3.60491,-1.3663 0.85588,-0.23795 1.55615,-0.51928 1.55615,-0.62517 0,-0.42431 -1.32606,-0.48501 -2.56405,-0.11737 -1.28033,0.38022 -4.33715,2.17141 -4.695656,2.75149 -0.25821,0.41779 -0.16712,0.38989 2.098646,-0.64265 z"
       id="path15"
       sodipodi:nodetypes="cssssssssssscssssssssccsssssssssscsscsscsscssssssssssssssscsscssssccsssssssssssssssssssssssscssssssssssssssssssscsssssss" /></g><metadata
     id="metadata15"><rdf:RDF><cc:License
         rdf:about="http://creativecommons.org/publicdomain/zero/1.0/"><cc:permits
           rdf:resource="http://creativecommons.org/ns#Reproduction" /><cc:permits
           rdf:resource="http://creativecommons.org/ns#Distribution" /><cc:permits
           rdf:resource="http://creativecommons.org/ns#DerivativeWorks" /></cc:License><cc:Work
         rdf:about=""><cc:license
           rdf:resource="http://creativecommons.org/publicdomain/zero/1.0/" /></cc:Work></rdf:RDF></metadata></svg>
