<?xml version="1.0" encoding="UTF-8" standalone="no"?>
<!-- Uploaded to: SVG Repo, www.svgrepo.com, Generator: SVG Repo Mixer Tools -->

<svg
   width="800px"
   height="800px"
   viewBox="-10 -5 1034 1034"
   version="1.1"
   id="svg1"
   sodipodi:docname="fediverse.svg"
   inkscape:version="1.3.2 (091e20ef0f, 2023-11-25, custom)"
   xmlns:inkscape="http://www.inkscape.org/namespaces/inkscape"
   xmlns:sodipodi="http://sodipodi.sourceforge.net/DTD/sodipodi-0.dtd"
   xmlns="http://www.w3.org/2000/svg"
   xmlns:svg="http://www.w3.org/2000/svg">
  <defs
     id="defs1" />
  <sodipodi:namedview
     id="namedview1"
     pagecolor="#505050"
     bordercolor="#eeeeee"
     borderopacity="1"
     inkscape:showpageshadow="0"
     inkscape:pageopacity="0"
     inkscape:pagecheckerboard="0"
     inkscape:deskcolor="#505050"
     inkscape:zoom="0.53125"
     inkscape:cx="400"
     inkscape:cy="400"
     inkscape:window-width="1366"
     inkscape:window-height="634"
     inkscape:window-x="0"
     inkscape:window-y="0"
     inkscape:window-maximized="1"
     inkscape:current-layer="svg1" />
  <path
     fill="#000000"
     d="M539 176q-32 0 -55 22t-25 55t20.5 58t56 27t58.5 -20.5t27 -56t-20.5 -59t-56.5 -26.5h-5zM452 271l-232 118q20 20 25 48l231 -118q-19 -20 -24 -48zM619 298q-13 25 -38 38l183 184q13 -25 39 -38zM477 320l-135 265l40 40l143 -280q-28 -5 -48 -25zM581 336 q-22 11 -46 10l-8 -1l21 132l56 9zM155 370q-32 0 -55 22.5t-25 55t20.5 58t56.5 27t59 -21t26.5 -56t-21 -58.5t-55.5 -27h-6zM245 438q1 9 1 18q-1 19 -10 35l132 21l26 -50zM470 474l-26 51l311 49q-1 -8 -1 -17q1 -19 10 -36zM842 480q-32 1 -55 23t-24.5 55t21 58 t56 27t58.5 -20.5t27 -56.5t-20.5 -59t-56.5 -27h-6zM236 493q-13 25 -39 38l210 210l51 -25zM196 531q-21 11 -44 10l-9 -1l40 256q21 -10 45 -9l8 1zM560 553l48 311q21 -10 44 -9l10 1l-46 -294zM755 576l-118 60l8 56l135 -68q-20 -20 -25 -48zM781 625l-119 231 q28 5 48 25l119 -231q-28 -5 -48 -25zM306 654l-68 134q28 5 48 25l60 -119zM568 671l-281 143q19 20 24 48l265 -135zM513 771l-51 25l106 107q13 -25 39 -38zM222 795q-32 0 -55.5 22.5t-25 55t21 57.5t56 27t58.5 -20.5t27 -56t-20.5 -58.5t-56.5 -27h-5zM311 863 q2 9 1 18q-1 19 -9 35l256 41q-1 -9 -1 -18q1 -18 10 -35zM646 863q-32 0 -55 22.5t-24.5 55t20.5 58t56 27t59 -21t27 -56t-20.5 -58.5t-56.5 -27h-6z"
     id="path1"
     style="fill:#f2fdf4;fill-opacity:1" />
</svg>
