<?xml version="1.0" encoding="UTF-8" standalone="no"?>
<!-- Created with Inkscape (http://www.inkscape.org/) -->

<svg
   width="413.09799mm"
   height="413.09796mm"
   viewBox="0 0 413.098 413.09796"
   version="1.1"
   id="svg1"
   xml:space="preserve"
   inkscape:version="1.3.2 (091e20ef0f, 2023-11-25, custom)"
   sodipodi:docname="icon.svg"
   inkscape:export-filename="icon.png"
   inkscape:export-xdpi="7.8702879"
   inkscape:export-ydpi="7.8702879"
   xmlns:inkscape="http://www.inkscape.org/namespaces/inkscape"
   xmlns:sodipodi="http://sodipodi.sourceforge.net/DTD/sodipodi-0.dtd"
   xmlns:xlink="http://www.w3.org/1999/xlink"
   xmlns="http://www.w3.org/2000/svg"
   xmlns:svg="http://www.w3.org/2000/svg"
   xmlns:rdf="http://www.w3.org/1999/02/22-rdf-syntax-ns#"
   xmlns:cc="http://creativecommons.org/ns#"
   xmlns:dc="http://purl.org/dc/elements/1.1/"><title
     id="title27">Xenia Linux logo</title><sodipodi:namedview
     id="namedview1"
     pagecolor="#5d5d5d"
     bordercolor="#eeeeee"
     borderopacity="1"
     inkscape:showpageshadow="0"
     inkscape:pageopacity="0"
     inkscape:pagecheckerboard="0"
     inkscape:deskcolor="#505050"
     inkscape:document-units="mm"
     inkscape:zoom="0.16935667"
     inkscape:cx="599.32685"
     inkscape:cy="953.60874"
     inkscape:window-width="1366"
     inkscape:window-height="634"
     inkscape:window-x="0"
     inkscape:window-y="0"
     inkscape:window-maximized="1"
     inkscape:current-layer="layer2" /><defs
     id="defs1"><rect
       x="246.33986"
       y="-546.95801"
       width="1068.8645"
       height="534.43225"
       id="rect36" /><linearGradient
       id="linearGradient31"
       inkscape:collect="always"><stop
         style="stop-color:#c68f3d;stop-opacity:1;"
         offset="0"
         id="stop31" /><stop
         style="stop-color:#cc994f;stop-opacity:1;"
         offset="1"
         id="stop32" /></linearGradient><linearGradient
       id="linearGradient29"
       inkscape:collect="always"><stop
         style="stop-color:#f6ae2a;stop-opacity:1;"
         offset="0"
         id="stop29" /><stop
         style="stop-color:#f7b53c;stop-opacity:1;"
         offset="1"
         id="stop30" /></linearGradient><linearGradient
       id="linearGradient26"
       inkscape:collect="always"><stop
         style="stop-color:#00a8ff;stop-opacity:1;"
         offset="0"
         id="stop26" /><stop
         style="stop-color:#22a7da;stop-opacity:0;"
         offset="1"
         id="stop27" /></linearGradient><linearGradient
       inkscape:collect="always"
       xlink:href="#linearGradient26"
       id="linearGradient27"
       x1="337.59134"
       y1="89.536316"
       x2="359.83463"
       y2="101.92498"
       gradientUnits="userSpaceOnUse"
       gradientTransform="translate(7.030281,2.343427)" /><linearGradient
       inkscape:collect="always"
       xlink:href="#linearGradient29"
       id="linearGradient30"
       x1="414.32843"
       y1="182.22539"
       x2="459.06885"
       y2="129.75204"
       gradientUnits="userSpaceOnUse" /><linearGradient
       inkscape:collect="always"
       xlink:href="#linearGradient31"
       id="linearGradient32"
       x1="483.37228"
       y1="305.39966"
       x2="526.45569"
       y2="225.30876"
       gradientUnits="userSpaceOnUse" /><filter
       y="-0.39468271"
       height="1.7893654"
       inkscape:menu-tooltip="Darkens the edge with an inner blur and adds a flexible glow"
       inkscape:menu="Shadows and Glows"
       inkscape:label="Dark and Glow"
       style="color-interpolation-filters:sRGB"
       id="filter126"
       x="-0.46346709"
       width="1.9269342"><feGaussianBlur
         stdDeviation="5"
         result="result6"
         id="feGaussianBlur125" /><feComposite
         result="result8"
         in="SourceGraphic"
         operator="atop"
         in2="result6"
         id="feComposite125" /><feComposite
         result="result9"
         operator="over"
         in2="SourceAlpha"
         in="result8"
         id="feComposite126" /><feColorMatrix
         values="1 0 0 0 0 0 1 0 0 0 0 0 1 0 0 0 0 0 1 0 "
         result="result10"
         id="feColorMatrix126" /><feBlend
         in="result10"
         mode="normal"
         in2="result6"
         id="feBlend126" /></filter><filter
       y="-0.396274"
       height="1.7925479"
       inkscape:menu-tooltip="Darkens the edge with an inner blur and adds a flexible glow"
       inkscape:menu="Shadows and Glows"
       inkscape:label="Dark and Glow"
       style="color-interpolation-filters:sRGB"
       id="filter128"
       x="-0.47507259"
       width="1.9501452"><feGaussianBlur
         stdDeviation="5"
         result="result6"
         id="feGaussianBlur126" /><feComposite
         result="result8"
         in="SourceGraphic"
         operator="atop"
         in2="result6"
         id="feComposite127" /><feComposite
         result="result9"
         operator="over"
         in2="SourceAlpha"
         in="result8"
         id="feComposite128" /><feColorMatrix
         values="1 0 0 0 0 0 1 0 0 0 0 0 1 0 0 0 0 0 1 0 "
         result="result10"
         id="feColorMatrix128" /><feBlend
         in="result10"
         mode="normal"
         in2="result6"
         id="feBlend128" /></filter><filter
       y="-0.36913091"
       height="1.7382618"
       inkscape:menu-tooltip="Darkens the edge with an inner blur and adds a flexible glow"
       inkscape:menu="Shadows and Glows"
       inkscape:label="Dark and Glow"
       style="color-interpolation-filters:sRGB"
       id="filter130"
       x="-0.41637772"
       width="1.8327554"><feGaussianBlur
         stdDeviation="5"
         result="result6"
         id="feGaussianBlur128" /><feComposite
         result="result8"
         in="SourceGraphic"
         operator="atop"
         in2="result6"
         id="feComposite129" /><feComposite
         result="result9"
         operator="over"
         in2="SourceAlpha"
         in="result8"
         id="feComposite130" /><feColorMatrix
         values="1 0 0 0 0 0 1 0 0 0 0 0 1 0 0 0 0 0 1 0 "
         result="result10"
         id="feColorMatrix130" /><feBlend
         in="result10"
         mode="normal"
         in2="result6"
         id="feBlend130" /></filter><filter
       y="-0.3931013"
       height="1.7862025"
       inkscape:menu-tooltip="Darkens the edge with an inner blur and adds a flexible glow"
       inkscape:menu="Shadows and Glows"
       inkscape:label="Dark and Glow"
       style="color-interpolation-filters:sRGB"
       id="filter132"
       x="-0.94457984"
       width="2.8891597"><feGaussianBlur
         stdDeviation="5"
         result="result6"
         id="feGaussianBlur130" /><feComposite
         result="result8"
         in="SourceGraphic"
         operator="atop"
         in2="result6"
         id="feComposite131" /><feComposite
         result="result9"
         operator="over"
         in2="SourceAlpha"
         in="result8"
         id="feComposite132" /><feColorMatrix
         values="1 0 0 0 0 0 1 0 0 0 0 0 1 0 0 0 0 0 1 0 "
         result="result10"
         id="feColorMatrix132" /><feBlend
         in="result10"
         mode="normal"
         in2="result6"
         id="feBlend132" /></filter><filter
       y="-0.35252041"
       height="1.7050408"
       inkscape:menu-tooltip="Darkens the edge with an inner blur and adds a flexible glow"
       inkscape:menu="Shadows and Glows"
       inkscape:label="Dark and Glow"
       style="color-interpolation-filters:sRGB"
       id="filter134"
       x="-0.64003938"
       width="2.2800789"><feGaussianBlur
         stdDeviation="5"
         result="result6"
         id="feGaussianBlur132" /><feComposite
         result="result8"
         in="SourceGraphic"
         operator="atop"
         in2="result6"
         id="feComposite133" /><feComposite
         result="result9"
         operator="over"
         in2="SourceAlpha"
         in="result8"
         id="feComposite134" /><feColorMatrix
         values="1 0 0 0 0 0 1 0 0 0 0 0 1 0 0 0 0 0 1 0 "
         result="result10"
         id="feColorMatrix134" /><feBlend
         in="result10"
         mode="normal"
         in2="result6"
         id="feBlend134" /></filter><filter
       y="-0.36477175"
       height="1.7295434"
       inkscape:menu-tooltip="Darkens the edge with an inner blur and adds a flexible glow"
       inkscape:menu="Shadows and Glows"
       inkscape:label="Dark and Glow"
       style="color-interpolation-filters:sRGB"
       id="filter136"
       x="-0.43315822"
       width="1.8663164"><feGaussianBlur
         stdDeviation="5"
         result="result6"
         id="feGaussianBlur134" /><feComposite
         result="result8"
         in="SourceGraphic"
         operator="atop"
         in2="result6"
         id="feComposite135" /><feComposite
         result="result9"
         operator="over"
         in2="SourceAlpha"
         in="result8"
         id="feComposite136" /><feColorMatrix
         values="1 0 0 0 0 0 1 0 0 0 0 0 1 0 0 0 0 0 1 0 "
         result="result10"
         id="feColorMatrix136" /><feBlend
         in="result10"
         mode="normal"
         in2="result6"
         id="feBlend136" /></filter><filter
       y="-0.43217582"
       height="1.8643517"
       inkscape:menu-tooltip="Darkens the edge with an inner blur and adds a flexible glow"
       inkscape:menu="Shadows and Glows"
       inkscape:label="Dark and Glow"
       style="color-interpolation-filters:sRGB"
       id="filter138"
       x="-1.1781687"
       width="3.3563373"><feGaussianBlur
         stdDeviation="5"
         result="result6"
         id="feGaussianBlur136" /><feComposite
         result="result8"
         in="SourceGraphic"
         operator="atop"
         in2="result6"
         id="feComposite137" /><feComposite
         result="result9"
         operator="over"
         in2="SourceAlpha"
         in="result8"
         id="feComposite138" /><feColorMatrix
         values="1 0 0 0 0 0 1 0 0 0 0 0 1 0 0 0 0 0 1 0 "
         result="result10"
         id="feColorMatrix138" /><feBlend
         in="result10"
         mode="normal"
         in2="result6"
         id="feBlend138" /></filter><filter
       y="-0.41470471"
       height="1.8294094"
       inkscape:menu-tooltip="Darkens the edge with an inner blur and adds a flexible glow"
       inkscape:menu="Shadows and Glows"
       inkscape:label="Dark and Glow"
       style="color-interpolation-filters:sRGB"
       id="filter140"
       x="-0.49530894"
       width="1.9906179"><feGaussianBlur
         stdDeviation="5"
         result="result6"
         id="feGaussianBlur138" /><feComposite
         result="result8"
         in="SourceGraphic"
         operator="atop"
         in2="result6"
         id="feComposite139" /><feComposite
         result="result9"
         operator="over"
         in2="SourceAlpha"
         in="result8"
         id="feComposite140" /><feColorMatrix
         values="1 0 0 0 0 0 1 0 0 0 0 0 1 0 0 0 0 0 1 0 "
         result="result10"
         id="feColorMatrix140" /><feBlend
         in="result10"
         mode="normal"
         in2="result6"
         id="feBlend140" /></filter><filter
       y="-0.41058296"
       height="1.8211659"
       inkscape:menu-tooltip="Darkens the edge with an inner blur and adds a flexible glow"
       inkscape:menu="Shadows and Glows"
       inkscape:label="Dark and Glow"
       style="color-interpolation-filters:sRGB"
       id="filter142"
       x="-0.59246135"
       width="2.1849227"><feGaussianBlur
         stdDeviation="5"
         result="result6"
         id="feGaussianBlur140" /><feComposite
         result="result8"
         in="SourceGraphic"
         operator="atop"
         in2="result6"
         id="feComposite141" /><feComposite
         result="result9"
         operator="over"
         in2="SourceAlpha"
         in="result8"
         id="feComposite142" /><feColorMatrix
         values="1 0 0 0 0 0 1 0 0 0 0 0 1 0 0 0 0 0 1 0 "
         result="result10"
         id="feColorMatrix142" /><feBlend
         in="result10"
         mode="normal"
         in2="result6"
         id="feBlend142" /></filter><filter
       y="-0.27450186"
       height="1.5490037"
       inkscape:menu-tooltip="Darkens the edge with an inner blur and adds a flexible glow"
       inkscape:menu="Shadows and Glows"
       inkscape:label="Dark and Glow"
       style="color-interpolation-filters:sRGB"
       id="filter144"
       x="-0.076372355"
       width="1.1527447"><feGaussianBlur
         stdDeviation="9.6969696969696972"
         result="result6"
         id="feGaussianBlur142" /><feComposite
         result="result8"
         in="SourceGraphic"
         operator="atop"
         in2="result6"
         id="feComposite143" /><feComposite
         result="result9"
         operator="over"
         in2="SourceAlpha"
         in="result8"
         id="feComposite144" /><feColorMatrix
         values="1 0 0 0 0 0 1 0 0 0 0 1 1 0 0 0 0 0 1 0"
         result="result10"
         id="feColorMatrix144"
         type="matrix" /><feBlend
         in="result10"
         mode="lighten"
         in2="result6"
         id="feBlend144" /></filter><filter
       inkscape:menu-tooltip="In and out glow with a possible offset and colorizable flood"
       inkscape:menu="Shadows and Glows"
       inkscape:label="Cutout Glow"
       style="color-interpolation-filters:sRGB"
       id="filter145"
       x="0"
       y="-0.026211115"
       width="1"
       height="1.0262111"><feOffset
         dy="-2.2222222222222285"
         dx="0"
         id="feOffset145" /><feGaussianBlur
         stdDeviation="0"
         result="blur"
         id="feGaussianBlur145" /><feFlood
         flood-color="rgb(239,137,174)"
         flood-opacity="1"
         result="flood"
         id="feFlood145" /><feComposite
         in="flood"
         in2="SourceGraphic"
         operator="in"
         result="composite"
         id="feComposite145" /><feBlend
         in="blur"
         in2="composite"
         mode="normal"
         id="feBlend145" /></filter></defs><g
     inkscape:groupmode="layer"
     id="layer2"
     inkscape:label="main"
     transform="translate(-120.22038,-0.918316)"><path
       style="opacity:0.530973;fill:#676767;fill-opacity:1;stroke-width:0.264583"
       d="m 312.78431,208.11669 c 1.90786,-0.0536 13.11559,3.61292 14.55775,2.36273 3.29865,-2.85956 6.60414,-20.32604 7.70971,-24.54929 3.01625,-11.52194 2.16502,-21.68195 0.47188,-22.80869 -3.27544,-2.17971 -8.15525,3.52365 -12.42679,10.22459 -8.39901,13.17585 -11.17191,34.79482 -10.31255,34.77066 z"
       id="path11"
       sodipodi:nodetypes="ssssss"
       inkscape:label="glasses-bg"
       transform="translate(-77.963202,-17.811163)" /><path
       style="opacity:0.628319;fill:#868686;fill-opacity:1;stroke-width:0.264583"
       d="m 253.7801,145.53072 c -2.66969,11.18511 -5.46885,23.93207 -4.68635,37.32658 l -7.30261,-1.68492 c 0.27618,-9.85026 1.30381,-19.21901 4.20366,-27.27413 1.47915,-2.38443 3.99939,-6.07757 7.7853,-8.36753 z"
       id="path33"
       sodipodi:nodetypes="ccccc"
       inkscape:label="glasses-bg-reflection" /><path
       id="path35-3"
       style="opacity:1;stroke-width:0.264583"
       d="m 256.19487,144.70948 c -1.9188,-0.35794 -10.68703,4.49634 -17.14462,24.0232 -5.63109,15.3015 -4.95955,24.90322 9.26585,28.03642 4.46112,-0.38194 4.12568,3.64862 8.88289,-17.95016 4.75721,-21.59877 6.20906,-33.28914 -1.00412,-34.10946 z m -0.13127,0.13917 c 5.3031,0.43013 2.95484,12.00153 -1.1797,30.77324 -4.13453,18.77171 -4.71081,16.5954 -6.18707,18.75444 -10.70352,-2.62545 -16.37482,-7.97351 -9.45747,-25.59792 4.91161,-14.67122 11.91754,-23.40779 16.82424,-23.92976 z"
       sodipodi:nodetypes="cccccccccc"
       inkscape:label="glasses-bg-edge" /><path
       style="fill:#e8522d;fill-opacity:1;stroke-width:0.264583"
       d="m 436.5495,399.62767 c -13.64644,-7.00098 -56.04159,-126.91948 -68.53856,-135.76961 -10.60914,-7.59164 -36.96702,-10.95387 -47.75575,-18.27656 -6.09612,-3.56751 -30.81641,-33.72027 -35.64979,-39.24044 15.04062,1.13455 29.73494,-9.49367 34.08938,-7.72188 23.70884,7.14473 38.6962,1.34148 51.94196,-16.81379 12.36366,-17.52366 14.878,-69.35691 23.71203,-62.09421 84.61649,50.88804 66.50578,82.76598 78.5652,106.03533 0.90423,10.22762 21.97404,92.22177 25.38336,103.87571 5.73706,15.60686 24.12049,53.95313 23.55441,60.12694 -0.3947,2.66752 -29.44655,39.91375 -32.08316,41.073 -9.75792,4.29029 -11.87095,-4.97562 -53.21908,-31.19449 z"
       id="path8"
       sodipodi:nodetypes="ccccccccccsc"
       inkscape:label="body-orange"
       transform="translate(-77.963202,-17.811163)" /><g
       id="g2"
       inkscape:label="head"
       transform="translate(-77.963202,-17.811163)"><path
         style="opacity:1;fill:#000000;fill-opacity:1;stroke-width:0.264583"
         d="m 387.85474,180.50683 c 9.12199,-7.56416 27.81391,13.55257 51.39026,17.6549 -20.05298,-8.0857 -30.27361,-18.30051 -40.7917,-21.13486 -3.42356,-1.01384 -5.8328,0.17274 -10.59856,3.47996 z"
         id="path36"
         sodipodi:nodetypes="cccc"
         inkscape:label="eyebrow" /><path
         style="fill:#c99548;fill-opacity:1;stroke-width:0.264583"
         d="m 380.17901,325.52293 c -5.55526,-6.06234 -3.80739,-11.366 -9.37843,-17.24002 -3.31195,12.08068 -16.36935,12.2681 -27.09726,14.97124 17.66632,7.66737 31.74357,6.14673 36.47569,2.26878 z"
         id="path4"
         inkscape:label="hair-more-bg"
         sodipodi:nodetypes="cccc" /><path
         style="opacity:1;fill:#f9f9f9;fill-opacity:1;stroke-width:0.264583"
         d="m 414.91087,325.71698 c -2.83095,-6.89118 -14.00044,-22.80499 -13.78858,-30.07658 5.24157,2.33331 34.99802,3.26131 45.85986,3.82639 -10.51931,-10.38758 -30.85924,-13.5328 -22.71259,-14.31769 4.73697,-1.64865 33.30854,-4.61135 42.10771,-7.53283 -25.0364,-8.95967 -89.98413,-32.29287 -107.22412,-49.1659 -14.28073,-11.03069 -29.52619,-27.80544 -44.73131,-31.13063 -12.7084,-3.36688 -28.57419,-12.74809 -39.87471,-19.06415 -15.34733,0.72435 -27.18692,5.17221 -38.18069,15.2153 3.37295,19.197 15.82714,47.39381 31.70663,57.98077 22.06812,17.85622 50.25037,25.07006 73.99297,40.06615 15.08843,11.08723 28.35869,24.87202 37.20598,41.49222 8.8775,12.88992 15.04999,27.38468 21.80147,41.38897 11.96097,12.05258 30.19295,21.98033 44.18765,30.83887 -3.76008,-8.24209 -17.72814,-57.70311 -30.35027,-79.52089 z"
         id="path24"
         sodipodi:nodetypes="ccccccccccccccc"
         inkscape:label="body-white" /><path
         style="opacity:1;fill:#040914;fill-opacity:1;stroke-width:0.264583"
         d="m 478.82129,140.881 c 7.45574,-0.55185 11.51827,-7.92601 18.0212,-10.64626 7.2279,-4.54866 23.89353,0.53815 32.07415,-2.13449 5.0863,-2.07505 9.54803,-65.760028 -10.24488,-109.370771 -29.9375,40.324455 -46.64669,33.069767 -72.64137,84.153961 1.26914,7.2267 5.72083,25.01967 10.53893,27.58123 6.56707,1.83053 13.64102,3.62932 18.41938,8.85046 1.10342,0.84459 2.40764,1.55602 3.83259,1.56587 z"
         id="path14"
         sodipodi:nodetypes="cccccccc"
         inkscape:label="ear-bg" /><path
         style="opacity:1;fill:#9f722f;fill-opacity:1;stroke-width:0.264583"
         d="m 438.01087,103.55782 c -4.9894,1.01189 -10.12728,3.29505 -16.93206,1.52376 -14.07533,-2.92764 -26.03212,-1.85702 -30.6457,-16.436011 22.863,5.917928 36.63022,11.947461 47.57776,14.912251 z"
         id="path15"
         sodipodi:nodetypes="cccc"
         inkscape:label="hair-little-top-bg" /><path
         style="fill:#9f722f;fill-opacity:1;stroke-width:0.264583"
         d="m 540.46444,194.25632 c 9.83907,36.3867 13.82893,76.45433 -16.15515,101.94462 -30.54068,19.24578 -40.73421,52.38998 -32.88121,87.65641 -20.8398,-7.99505 -32.12952,-32.5423 -33.7563,-52.65888 22.99044,-91.15896 42.80575,-104.98544 30.88933,-145.29536 z"
         id="path3"
         sodipodi:nodetypes="cccccc"
         inkscape:label="hair-bg" /><path
         style="fill:url(#linearGradient32);fill-opacity:1;stroke-width:0.264583"
         d="m 536.7442,190.93072 c 9.83907,36.3867 15.20574,74.7025 -14.77834,100.19279 -30.54068,19.24578 -42.49178,38.32942 -39.32563,72.03357 -13.61423,-7.99505 -23.34167,-11.84203 -24.96845,-31.95861 22.99044,-91.15896 42.80575,-104.98544 30.88933,-145.29536 z"
         id="path29"
         sodipodi:nodetypes="cccccc"
         inkscape:label="hair-bg-light" /><path
         style="fill:#f9f9f9;fill-opacity:1;stroke-width:0.264583"
         d="m 361.63567,208.26691 c 4.98121,-5.82015 9.96243,-11.64029 14.94364,-17.46044 18.13041,4.28761 23.30821,13.27715 44.72503,28.104 -8.24087,9.19896 -35.98017,11.22517 -59.66867,-10.64356 z"
         id="path9"
         sodipodi:nodetypes="cccc"
         inkscape:label="eye-bg" /><path
         style="fill:#241c1c;fill-opacity:1;stroke-width:0.264583"
         d="m 236.36123,193.64936 c 9.56886,-9.65498 21.10674,-12.13465 38.26272,-15.4608 -13.57923,-5.5788 -27.31914,-10.74187 -40.4873,-17.24047 0.22066,11.52029 -0.80755,21.58344 2.22458,32.70127 z"
         id="path10"
         sodipodi:nodetypes="cccc"
         inkscape:label="nose" /><path
         style="fill:#cb8c3d;fill-opacity:1;stroke-width:0.264583"
         d="m 366.88953,188.84024 c -3.38402,-21.16575 1.30035,-24.57184 4.11523,-33.12228 9.84515,1.21385 9.45374,11.42717 12.77974,13.46732 3.326,2.04015 9.08451,-11.42423 11.7455,-6.81535 2.66099,4.60887 4.71005,10.16811 5.5883,16.00974 5.50344,-8.34623 8.04531,-11.45528 8.04531,-19.05795 7.49764,4.1196 9.39081,11.90209 8.36147,19.72478 -0.91167,5.11461 -1.86473,10.54968 -6.10707,15.28144 7.35222,0.76367 10.99414,-2.03752 12.84087,-5.65921 1.42927,3.12707 -0.18899,6.33811 -0.85243,18.22174 0.0833,5.57338 3.73365,13.16268 8.51386,16.08991 -2.79241,-5.57764 6.58425,-14.91703 6.52716,-6.14219 -4.83414,55.71737 -12.54863,56.19672 -21.99092,64.82387 17.06447,1.27434 20.63236,-11.31189 24.74164,-22.95925 8.62237,26.36006 -8.71896,99.08317 -83.23821,82.48595 15.86202,25.89971 88.1992,36.16547 107.352,-19.27365 5.41703,-14.79515 11.57782,-32.27097 10.48384,-42.12398 4.74426,8.02459 18.56371,38.15058 50.90299,40.40834 -11.20494,-28.30151 -23.40148,-37.90238 -20.30073,-63.17789 2.56809,-15.20242 2.68048,-33.66156 -0.26777,-48.06852 -3.94165,-12.23825 10.35772,-37.60853 2.33917,-47.7567 -9.69014,-9.4026 26.96247,-9.95301 15.83492,-16.51808 -10.10021,-8.66664 -18.73285,-11.02722 -12.40885,-16.60192 6.02215,-4.22928 -20.65767,-2.44325 -31.90881,-11.74324 -22.89608,-10.75299 -47.99566,-16.2129 -73.20559,-17.547897 -37.01709,-0.265367 -40.33029,-9.786169 -47.39444,-12.006188 1.2843,3.882654 6.79995,10.406627 8.18023,10.716423 -29.44323,-1.917798 -32.29484,13.449052 -34.78395,20.956592 10.5984,-7.35281 15.63583,-5.6163 19.24578,-4.16359 -4.44379,6.38936 -20.70194,18.03872 -8.52758,54.06492 -0.0942,-9.43511 3.13959,-19.11116 6.68953,-18.87245 -3.9115,5.03861 1.2157,19.93226 16.69881,39.35931 z"
         id="path2"
         sodipodi:nodetypes="ccsscccccccccccccccccccccccccccc"
         inkscape:label="hair" /><path
         style="fill:url(#linearGradient30);fill-opacity:1;stroke-width:0.264583"
         d="m 364.54204,180.69306 c -1.72697,-15.08989 4.47637,-22.91478 6.46272,-24.9751 9.84515,1.21385 7.89695,8.31453 13.74635,10.56748 2.94956,-2.71821 8.1179,-8.52439 10.77889,-3.91551 2.66099,4.60887 4.37668,9.12635 6.08489,11.55049 5.50344,-8.34623 6.42583,-10.60881 7.54872,-14.5987 7.49764,4.1196 9.39081,11.90209 8.36147,19.72478 -0.91167,5.11461 -1.17429,7.92601 -4.45002,14.03865 6.45465,-0.89338 8.92283,-2.45178 11.18382,-4.41642 1.42927,3.12707 -0.18899,6.33811 -0.85243,18.22174 0.0833,5.57338 2.21468,9.02005 6.99489,11.94728 -2.79241,-5.57764 8.10322,-10.7744 8.04613,-1.99956 -4.83414,55.71737 -10.98635,51.70515 -17.88992,62.87101 14.91633,-4.77951 15.55493,-12.4836 20.64064,-21.00639 3.93552,22.45435 6.12274,74.08662 -59.41337,87.95395 24.45459,11.83914 64.76493,7.2632 83.52716,-24.74165 5.41703,-14.79515 11.57782,-32.27097 10.48384,-42.12398 4.74426,8.02459 16.80614,33.07315 44.26328,34.74506 -12.18137,-28.4968 -16.76177,-32.2391 -13.66102,-57.51461 2.56809,-15.20242 2.68048,-33.66156 -0.26777,-48.06852 -3.94165,-12.23825 10.35772,-37.60853 2.33917,-47.7567 -9.69014,-9.4026 26.96247,-9.95301 15.83492,-16.51808 -10.10021,-8.66664 -18.73285,-11.02722 -12.40885,-16.60192 6.02215,-4.22928 -20.65767,-2.44325 -31.90881,-11.74324 -22.89608,-10.75299 -47.99566,-16.2129 -73.20559,-17.547897 -37.01709,-0.265367 -38.39706,-7.645809 -45.46121,-9.865828 1.2843,3.882654 4.86672,8.266267 6.247,8.576063 -29.44323,-1.917798 -30.91396,13.034792 -31.74602,15.709262 9.07944,-2.24357 12.5979,-0.36897 16.20785,1.08374 -4.44379,6.38936 -19.32106,20.5243 -9.07993,43.84643 2.05394,-6.2129 3.88723,-8.99031 7.43717,-8.7516 -3.9115,5.03861 1.71085,23.20592 14.15603,31.30977 z"
         id="path28"
         sodipodi:nodetypes="cccscccccccccccccccccccccccccccc"
         inkscape:label="hair-light" /><path
         style="opacity:1;fill:#040914;fill-opacity:1;stroke-width:0.26261"
         d="m 505.67044,218.83099 c 15.73472,-2.44221 60.85793,-37.67106 68.28972,-77.10525 3.12316,-18.29812 -0.0784,-50.142367 -0.0693,-64.40234 -27.40732,11.218805 -106.59924,36.9761 -123.68523,77.27239 2.91053,9.14999 7.7854,5.81288 16.85486,10.303 25.39963,-32.33779 92.042,-5.39232 36.7442,40.37576 0.85451,2.37374 1.40428,11.53493 1.86578,13.55644 z"
         id="path13"
         sodipodi:nodetypes="cccccccc"
         inkscape:label="ear-dark" /><path
         style="opacity:1;fill:#f9f9f9;fill-opacity:1;stroke-width:0.264583"
         d="m 572.14258,127.79335 c 1.31916,-12.14786 -0.58951,-42.405835 -0.0828,-47.603934 -28.44443,5.378445 -86.51026,51.142654 -105.15295,84.681834 0.84698,0.43097 3.71043,0.9942 4.43954,-0.57041 1.07434,1.88758 3.46654,4.96142 4.33766,5.44245 0.37524,-2.35777 2.03795,-1.52065 1.91206,-5.67924 6.44513,7.46279 3.21797,8.93621 4.93564,10.24422 3.23664,-2.14419 4.65181,0.79354 12.23441,0.13795 -2.77397,8.18203 -3.93741,7.38531 -2.40579,9.2335 0.76581,0.92409 4.20766,0.4381 5.14473,0.27114 0.6609,1.90437 1.02642,7.1657 1.71544,8.26126 1.37804,-2.2277 2.53111,-0.81957 3.16285,-5.83177 4.36011,7.2776 0.46597,15.8678 1.41574,18.89048 27.39887,-16.45542 64.45252,-43.377 68.34347,-77.47748 z"
         id="path25"
         sodipodi:nodetypes="cccccccccccccc"
         inkscape:label="ear-white" /><path
         style="display:none;opacity:1;fill:url(#linearGradient27);fill-opacity:1;stroke-width:0.264583"
         d="m 359.82588,110.46275 c 3.2247,-1.77449 2.979,-6.80066 3.6603,-10.41775 0.5041,-2.676308 1.19538,-5.599776 0.28157,-8.165259 -0.33476,-0.93984 -0.97344,-2.233531 -1.97094,-2.252485 -2.32328,-0.04415 -2.46545,4.957603 -4.78652,5.068093 -1.9931,0.09488 -2.58905,-3.384498 -4.50498,-3.941849 -1.18532,-0.344813 -2.69384,-0.20488 -3.6603,0.56312 -1.58278,1.257755 -2.05841,3.618884 -2.25248,5.631215 -0.1926,1.997094 0.21836,4.123575 1.12625,5.912775 0.8714,1.71727 2.42781,3.03342 3.94184,4.22341 1.3546,1.06468 2.8984,1.91166 4.50499,2.53405 1.1676,0.45232 2.56324,1.44835 3.66027,0.84468 z"
         id="path26"
         inkscape:label="heart"
         sodipodi:nodetypes="ssssssssssss" /></g><path
       style="fill:#000000;stroke-width:0.264583"
       d="m 295.5801,172.16003 c 0,0 38.06736,19.21559 44.23607,28.63083 -2.21158,4.57259 -23.46451,6.83905 -32.19251,3.7889 7.92707,5.17325 29.42021,3.30452 35.98983,0.0473 l 13.41309,-1.48359 c 0,0 -3.50491,-0.0393 -10.9607,-3.83625 -10.67121,-5.43448 -32.42155,-28.16523 -50.48578,-27.14724 z"
       id="path5"
       sodipodi:nodetypes="ccccccc" /><path
       style="fill:#000000;stroke-width:0.264583"
       d="m 333.7531,192.74063 c -0.40887,7.28561 -11.12148,11.07771 -24.02623,4.844 -5.44801,-3.19578 -8.5742,-15.47657 -2.9064,-19.56976 8.27097,2.07222 18.57293,8.39921 26.93263,14.72576 z"
       id="path6"
       sodipodi:nodetypes="cccc"
       inkscape:label="eye" /><path
       style="opacity:0.644309;fill:#414141;fill-opacity:1;stroke-width:0.264583"
       d="m 346.68868,201.56193 c -2.87208,6.44796 -4.43467,13.66573 -3.88623,20.77992 0.55028,7.83368 2.3035,16.38894 8.27324,21.95651 4.86608,4.07123 11.82648,3.74159 17.67258,2.43305 8.32409,-1.78635 14.97444,-8.16266 18.52896,-15.72022 3.79641,-7.28018 6.45456,-15.68044 7.18917,-23.58954 0.53522,-7.02097 0.1991,-13.96689 -1.56528,-20.8359 -1.02784,-4.77099 -5.48011,-10.65309 -10.16935,-13.11734 -5.205,-1.87185 -11.61936,1.5252 -14.92565,3.69787 -6.22547,3.60055 -9.29858,7.66647 -13.60288,12.30652 -2.92294,3.43606 -5.76467,7.94096 -7.51456,12.08913 z"
       id="path12"
       inkscape:label="glasses"
       transform="translate(-77.963203,-17.811163)"
       sodipodi:nodetypes="ccccccccccc" /><path
       style="fill:#241c1c;fill-opacity:1;stroke-width:0.264583"
       d="m 158.49725,174.62408 c 0.25016,5.58606 5.22002,19.81773 11.1412,33.3267 -10.37817,-19.83269 -11.74935,-32.74368 -12.5944,-39.43014 1.48007,-6.68646 4.01256,0.32362 1.4532,6.10344 z"
       id="path7"
       sodipodi:nodetypes="cccc"
       inkscape:label="mouth-edge" /><path
       d="m 165.41058,198.42772 c 2.64498,-0.67812 5.42459,-2.42279 8.22698,-2.03883 15.30339,-0.13484 45.21383,24.8643 60.58626,25.63185 -0.10522,-2.98386 -3.26246,-6.57273 -1.00291,-7.24582 2.62277,2.09429 2.27032,3.19768 3.03517,6.26751 1.49771,3.45576 -0.0381,3.11153 -7.01965,1.73583 -15.17646,-2.86597 -44.37877,-25.54105 -55.86103,-25.20698 -2.09637,-0.038 -5.41599,1.48442 -7.29438,2.4087 m 72.252,30.69896 c -1.38369,-2.0182 -2.85841,-6.02093 -1.51841,-6.10099 1.6832,1.35852 3.14252,6.20188 1.51841,6.10099 z"
       style="display:inline;fill:#241c1c;fill-opacity:1;stroke-width:0.316798"
       id="path1-3"
       sodipodi:nodetypes="ccccccccccc"
       inkscape:label="mouth" /><path
       style="fill:#000000;fill-opacity:1;stroke-width:0.264583"
       d="m 266.39025,192.29818 c -0.28204,-4.16813 -1.39261,-6.95536 -3.53883,-8.98313 -2.08305,-0.22783 -3.75183,-0.45567 -5.83488,-0.6835 -1.82763,-0.0138 -2.5333,0.57649 -3.70501,0.80433 5.42611,2.98708 8.93934,7.84467 12.22434,12.9633 0.46381,-1.14731 0.29293,-3.4175 0.85438,-4.101 z"
       id="path32"
       sodipodi:nodetypes="cccccc"
       inkscape:label="glasses-bridge" /><path
       style="opacity:0.380531;fill:#8b8b8b;fill-opacity:1;stroke-width:0.264583"
       d="m 278.61175,169.09837 c -1.04074,23.60623 2.46658,44.89375 8.45613,60.49327 5.06322,-0.54084 9.22887,-2.25543 12.70409,-4.66046 -4.66994,-18.39479 -11.39631,-41.9005 -10.59825,-65.17742 -4.78704,3.12999 -7.54638,5.63786 -10.56197,9.34461 z"
       id="path34"
       sodipodi:nodetypes="ccccc"
       inkscape:label="glases-reflection" /><path
       id="path35"
       style="opacity:1;stroke-width:0.264583"
       d="m 302.931,154.92591 c -9.34326,-1.7662 -31.69897,14.80809 -36.74217,35.45294 -2.96207,16.35145 -0.64836,36.21217 13.57704,39.34537 14.2254,3.1332 32.44497,-10.6965 37.20218,-32.29528 4.75721,-21.59877 0.18835,-39.36983 -14.03705,-42.50303 z m -0.43524,0.97015 c 12.36343,2.72309 15.42153,22.00351 11.28699,40.77522 -4.13453,18.77171 -21.85857,34.75027 -34.222,32.02717 -10.70352,-2.62545 -16.71842,-19.33722 -12.58388,-38.10892 1.59176,-13.98772 23.15545,-37.41656 35.51889,-34.69347 z"
       sodipodi:nodetypes="cccccccccc"
       inkscape:label="glasses-edge" /></g><metadata
     id="metadata27"><rdf:RDF><cc:Work
         rdf:about=""><cc:license
           rdf:resource="http://creativecommons.org/publicdomain/zero/1.0/" /><dc:title>Xenia Linux logo</dc:title><dc:creator><cc:Agent><dc:title>Chimmie Firefly</dc:title></cc:Agent></dc:creator><dc:publisher><cc:Agent><dc:title>Chimmie Firefly</dc:title></cc:Agent></dc:publisher><dc:identifier>nya</dc:identifier><dc:source>Autism</dc:source><dc:language>arf</dc:language><dc:subject><rdf:Bag><rdf:li>xenia</rdf:li></rdf:Bag></dc:subject></cc:Work><cc:License
         rdf:about="http://creativecommons.org/publicdomain/zero/1.0/"><cc:permits
           rdf:resource="http://creativecommons.org/ns#Reproduction" /><cc:permits
           rdf:resource="http://creativecommons.org/ns#Distribution" /><cc:permits
           rdf:resource="http://creativecommons.org/ns#DerivativeWorks" /></cc:License></rdf:RDF></metadata></svg>
