<?xml version="1.0" encoding="UTF-8" standalone="no"?>
<!-- Uploaded to: SVG Repo, www.svgrepo.com, Generator: SVG Repo Mixer Tools -->

<svg
   width="800px"
   height="800px"
   viewBox="0 0 24 24"
   fill="none"
   version="1.1"
   id="svg6"
   sodipodi:docname="license.svg"
   inkscape:version="1.3.2 (091e20ef0f, 2023-11-25, custom)"
   xmlns:inkscape="http://www.inkscape.org/namespaces/inkscape"
   xmlns:sodipodi="http://sodipodi.sourceforge.net/DTD/sodipodi-0.dtd"
   xmlns="http://www.w3.org/2000/svg"
   xmlns:svg="http://www.w3.org/2000/svg">
  <defs
     id="defs6" />
  <sodipodi:namedview
     id="namedview6"
     pagecolor="#505050"
     bordercolor="#eeeeee"
     borderopacity="1"
     inkscape:showpageshadow="0"
     inkscape:pageopacity="0"
     inkscape:pagecheckerboard="0"
     inkscape:deskcolor="#505050"
     inkscape:zoom="0.53125"
     inkscape:cx="400"
     inkscape:cy="400"
     inkscape:window-width="1366"
     inkscape:window-height="634"
     inkscape:window-x="0"
     inkscape:window-y="0"
     inkscape:window-maximized="1"
     inkscape:current-layer="svg6" />
  <path
     opacity="0.1"
     d="M12 17H7C5.89543 17 5 16.1046 5 15V5C5 3.89543 5.89543 3 7 3H16C17.1046 3 18 3.89543 18 5V19C18 20.1046 17.1046 21 16 21C14.8954 21 14 20.1046 14 19C14 17.8954 13.1046 17 12 17Z"
     fill="#000000"
     id="path1"
     style="fill:#ffffff;fill-opacity:1" />
  <path
     d="M19 3H9V3C7.11438 3 6.17157 3 5.58579 3.58579C5 4.17157 5 5.11438 5 7V10.5V17"
     stroke="#000000"
     stroke-width="2"
     stroke-linecap="round"
     stroke-linejoin="round"
     id="path2"
     style="stroke:#fffeff;stroke-opacity:1" />
  <path
     d="M14 17V19C14 20.1046 14.8954 21 16 21V21C17.1046 21 18 20.1046 18 19V9V4.5C18 3.67157 18.6716 3 19.5 3V3C20.3284 3 21 3.67157 21 4.5V4.5C21 5.32843 20.3284 6 19.5 6H18.5"
     stroke="#000000"
     stroke-width="2"
     stroke-linecap="round"
     stroke-linejoin="round"
     id="path3"
     style="stroke:#fffeff;stroke-opacity:1" />
  <path
     d="M16 21H5C3.89543 21 3 20.1046 3 19V19C3 17.8954 3.89543 17 5 17H14"
     stroke="#000000"
     stroke-width="2"
     stroke-linecap="round"
     stroke-linejoin="round"
     id="path4"
     style="stroke:#fffeff;stroke-opacity:1" />
  <path
     d="M9 7H14"
     stroke="#000000"
     stroke-width="2"
     stroke-linecap="round"
     stroke-linejoin="round"
     id="path5"
     style="stroke:#fffeff;stroke-opacity:1" />
  <path
     d="M9 11H14"
     stroke="#000000"
     stroke-width="2"
     stroke-linecap="round"
     stroke-linejoin="round"
     id="path6"
     style="stroke:#fffeff;stroke-opacity:1" />
</svg>
