<?xml version="1.0" encoding="UTF-8" standalone="no"?>
<!-- Uploaded to: SVG Repo, www.svgrepo.com, Generator: SVG Repo Mixer Tools -->

<svg
   fill="#000000"
   width="600.23792"
   height="600.27301"
   viewBox="0 0 18.007137 18.00819"
   version="1.1"
   id="svg1"
   sodipodi:docname="source.svg"
   inkscape:version="1.3.2 (091e20ef0f, 2023-11-25, custom)"
   xmlns:inkscape="http://www.inkscape.org/namespaces/inkscape"
   xmlns:sodipodi="http://sodipodi.sourceforge.net/DTD/sodipodi-0.dtd"
   xmlns="http://www.w3.org/2000/svg"
   xmlns:svg="http://www.w3.org/2000/svg">
  <defs
     id="defs1" />
  <sodipodi:namedview
     id="namedview1"
     pagecolor="#505050"
     bordercolor="#eeeeee"
     borderopacity="1"
     inkscape:showpageshadow="0"
     inkscape:pageopacity="0"
     inkscape:pagecheckerboard="0"
     inkscape:deskcolor="#505050"
     inkscape:zoom="0.37565048"
     inkscape:cx="290.16335"
     inkscape:cy="320.77691"
     inkscape:window-width="1366"
     inkscape:window-height="634"
     inkscape:window-x="0"
     inkscape:window-y="0"
     inkscape:window-maximized="1"
     inkscape:current-layer="svg1" />
  <path
     d="m 15.507137,0 c 1.380712,0 2.5,1.1192881 2.5,2.5 v 13.007351 c 0,1.380712 -1.119288,2.5 -2.499968,2.5 L 2.5,18.00819 C 1.1192881,18.00819 1e-8,16.888902 1e-8,15.508085 L 0.00713701,2.4997904 C 0.00771171,1.1303836 1.109237,0.0185157 2.4745002,0.0010481 2.481693,5.847e-4 6.8259052,2.353e-4 15.507137,0 Z M 2.5363539,1 C 1.6789555,1.0008394 1.0074845,1.6720287 1.0071369,2.5002745 l -0.00714,13.0071815 c -2e-7,0.829162 0.67157269,1.500734 1.49996749,1.500734 l 13.0071726,-8.39e-4 c 0.828427,0 1.5,-0.671573 1.5,-1.5 V 2.5 c 0,-0.8284271 -0.671573,-1.5 -1.5,-1.5 z m 4.3612173,10.187653 c 0.1725046,0.21563 0.1375446,0.530277 -0.078087,0.702781 -0.2156309,0.172505 -0.5302771,0.137545 -0.7027819,-0.07809 l -2,-2.5 c -0.1460875,-0.18261 -0.1460875,-0.442086 0,-0.624695 l 2,-2.5000005 c 0.1725048,-0.215631 0.487151,-0.2505917 0.7027819,-0.078087 0.2156315,0.1725048 0.2505915,0.487151 0.078087,0.7027819 L 5.1474492,9 Z M 11.116703,6.8123475 c -0.172505,-0.2156309 -0.137544,-0.5302771 0.07809,-0.7027819 0.21563,-0.1725048 0.530277,-0.1375441 0.702781,0.078087 l 2,2.5000005 c 0.146088,0.182609 0.146088,0.442085 0,0.624695 l -2,2.4999999 c -0.172504,0.215631 -0.487151,0.250591 -0.702781,0.07809 -0.215631,-0.172504 -0.250592,-0.487151 -0.07809,-0.702781 L 12.866825,9 Z"
     id="path1"
     style="fill:#fcfffe;fill-opacity:1" />
</svg>
