<?xml version="1.0" encoding="UTF-8" standalone="no"?>
<!-- Uploaded to: SVG Repo, www.svgrepo.com, Generator: SVG Repo Mixer Tools -->

<svg
   fill="#000000"
   width="800"
   height="800"
   viewBox="0 0 23.999999 24"
   version="1.1"
   id="svg1"
   sodipodi:docname="source.svg"
   inkscape:version="1.3.2 (091e20ef0f, 2023-11-25, custom)"
   xmlns:inkscape="http://www.inkscape.org/namespaces/inkscape"
   xmlns:sodipodi="http://sodipodi.sourceforge.net/DTD/sodipodi-0.dtd"
   xmlns="http://www.w3.org/2000/svg"
   xmlns:svg="http://www.w3.org/2000/svg">
  <defs
     id="defs1" />
  <sodipodi:namedview
     id="namedview1"
     pagecolor="#505050"
     bordercolor="#eeeeee"
     borderopacity="1"
     inkscape:showpageshadow="0"
     inkscape:pageopacity="0"
     inkscape:pagecheckerboard="0"
     inkscape:deskcolor="#505050"
     inkscape:zoom="0.18782524"
     inkscape:cx="596.29898"
     inkscape:cy="524.42366"
     inkscape:window-width="1366"
     inkscape:window-height="634"
     inkscape:window-x="0"
     inkscape:window-y="0"
     inkscape:window-maximized="1"
     inkscape:current-layer="svg1" />
  <path
     d="m 18.503568,2.9959047 c 1.380712,0 2.5,1.1192881 2.5,2.5 V 18.503256 c 0,1.380712 -1.119288,2.5 -2.499968,2.5 l -13.0071688,8.39e-4 c -1.3807119,0 -2.4999999,-1.119288 -2.4999999,-2.500105 L 3.0035683,5.4956951 C 3.004143,4.1262883 4.1056682,3.0144204 5.4709314,2.9969528 5.4781242,2.9964894 9.8223364,2.99614 18.503568,2.9959047 Z m -12.9707829,1 C 4.6753867,3.9967441 4.0039157,4.6679334 4.0035681,5.4961792 l -0.00714,13.0071818 c -2e-7,0.829162 0.6715727,1.500734 1.4999675,1.500734 l 13.0071724,-8.39e-4 c 0.828427,0 1.5,-0.671573 1.5,-1.5 V 5.4959047 c 0,-0.8284271 -0.671573,-1.5 -1.5,-1.5 z M 9.8940024,14.183558 c 0.1725046,0.21563 0.1375446,0.530277 -0.078087,0.702781 -0.2156309,0.172505 -0.5302771,0.137545 -0.7027819,-0.07809 l -2,-2.5 c -0.1460875,-0.18261 -0.1460875,-0.442086 0,-0.624695 l 2,-2.5000008 c 0.1725048,-0.215631 0.487151,-0.2505917 0.7027819,-0.078087 0.2156316,0.1725048 0.2505916,0.487151 0.078087,0.7027819 L 8.1438804,11.995905 Z M 14.113134,9.8082522 c -0.172505,-0.2156309 -0.137544,-0.5302771 0.07809,-0.7027819 0.21563,-0.1725048 0.530277,-0.1375441 0.702781,0.078087 l 2,2.5000007 c 0.146088,0.182609 0.146088,0.442085 0,0.624695 l -2,2.5 c -0.172504,0.215631 -0.487151,0.250591 -0.702781,0.07809 -0.215631,-0.172504 -0.250592,-0.487151 -0.07809,-0.702781 l 1.750122,-2.187657 z"
     id="path1"
     style="fill:#fcfffe;fill-opacity:1" />
</svg>
