<?xml version="1.0" encoding="UTF-8" standalone="no"?>
<!-- Uploaded to: SVG Repo, www.svgrepo.com, Generator: SVG Repo Mixer Tools -->

<svg
   width="800px"
   height="800px"
   viewBox="0 0 24 24"
   fill="none"
   version="1.1"
   id="svg5"
   sodipodi:docname="zip.svg"
   inkscape:version="1.3.2 (091e20ef0f, 2023-11-25, custom)"
   xmlns:inkscape="http://www.inkscape.org/namespaces/inkscape"
   xmlns:sodipodi="http://sodipodi.sourceforge.net/DTD/sodipodi-0.dtd"
   xmlns="http://www.w3.org/2000/svg"
   xmlns:svg="http://www.w3.org/2000/svg">
  <defs
     id="defs5" />
  <sodipodi:namedview
     id="namedview5"
     pagecolor="#505050"
     bordercolor="#eeeeee"
     borderopacity="1"
     inkscape:showpageshadow="0"
     inkscape:pageopacity="0"
     inkscape:pagecheckerboard="0"
     inkscape:deskcolor="#505050"
     inkscape:zoom="0.295"
     inkscape:cx="396.61017"
     inkscape:cy="398.30508"
     inkscape:window-width="1366"
     inkscape:window-height="634"
     inkscape:window-x="0"
     inkscape:window-y="0"
     inkscape:window-maximized="1"
     inkscape:current-layer="svg5" />
  <path
     d="M4 4C4 3.44772 4.44772 3 5 3H14H14.5858C14.851 3 15.1054 3.10536 15.2929 3.29289L19.7071 7.70711C19.8946 7.89464 20 8.149 20 8.41421V20C20 20.5523 19.5523 21 19 21H5C4.44772 21 4 20.5523 4 20V4Z"
     stroke="#200E32"
     stroke-width="2"
     stroke-linecap="round"
     id="path1"
     style="stroke:#ffffff;stroke-opacity:1;stroke-width:0.99999;stroke-dasharray:none" />
  <path
     d="M20 8H15V3"
     stroke="#200E32"
     stroke-width="2"
     stroke-linecap="round"
     stroke-linejoin="round"
     id="path2"
     style="stroke:#ffffff;stroke-opacity:1;stroke-width:0.99999;stroke-dasharray:none" />
  <path
     d="M7 13H9.5L7 17H9.5"
     stroke="#200E32"
     stroke-width="1.5"
     stroke-linecap="round"
     stroke-linejoin="round"
     id="path3"
     style="stroke:#ffffff;stroke-opacity:1;stroke-width:0.99999;stroke-dasharray:none" />
  <path
     d="M12 13V17"
     stroke="#200E32"
     stroke-width="1.5"
     stroke-linecap="round"
     stroke-linejoin="round"
     id="path4"
     style="stroke:#ffffff;stroke-opacity:1;stroke-width:0.99999;stroke-dasharray:none" />
  <path
     d="M15 17L15 15.5M15 15.5L15 13L15.75 13C16.4404 13 17 13.5596 17 14.25V14.25C17 14.9404 16.4404 15.5 15.75 15.5H15Z"
     stroke="#200E32"
     stroke-width="1.5"
     stroke-linecap="round"
     stroke-linejoin="round"
     id="path5"
     style="stroke:#ffffff;stroke-opacity:1;stroke-width:0.99999;stroke-dasharray:none" />
</svg>
