<?xml version="1.0" encoding="UTF-8" standalone="no"?>
<!-- This Source Code Form is subject to the terms of the Mozilla Public
   - License, v. 2.0. If a copy of the MPL was not distributed with this
   - file, You can obtain one at http://mozilla.org/MPL/2.0/. -->

<svg
   width="86.100533"
   height="86.100998"
   version="1.1"
   viewBox="0 0 86.100535 86.100996"
   id="svg77"
   sodipodi:docname="xenia_firefox.svg"
   xml:space="preserve"
   inkscape:version="1.3.1 (91b66b0783, 2023-11-16, custom)"
   inkscape:export-filename="xenia_firefox.png"
   inkscape:export-xdpi="401.39124"
   inkscape:export-ydpi="401.39124"
   xmlns:inkscape="http://www.inkscape.org/namespaces/inkscape"
   xmlns:sodipodi="http://sodipodi.sourceforge.net/DTD/sodipodi-0.dtd"
   xmlns="http://www.w3.org/2000/svg"
   xmlns:svg="http://www.w3.org/2000/svg"
   xmlns:rdf="http://www.w3.org/1999/02/22-rdf-syntax-ns#"
   xmlns:cc="http://creativecommons.org/ns#"
   xmlns:dc="http://purl.org/dc/elements/1.1/"><sodipodi:namedview
     id="namedview77"
     pagecolor="#505050"
     bordercolor="#eeeeee"
     borderopacity="1"
     inkscape:showpageshadow="0"
     inkscape:pageopacity="0"
     inkscape:pagecheckerboard="0"
     inkscape:deskcolor="#505050"
     showguides="false"
     inkscape:zoom="4"
     inkscape:cx="37.25"
     inkscape:cy="46.625"
     inkscape:window-width="1821"
     inkscape:window-height="904"
     inkscape:window-x="0"
     inkscape:window-y="0"
     inkscape:window-maximized="1"
     inkscape:current-layer="layer1" /><title
     id="title1">Firefox Browser logo</title><defs
     id="defs66"><linearGradient
       id="a"
       x1="70.790001"
       x2="6.447"
       y1="12.39"
       y2="74.470001"
       gradientTransform="translate(-1.3,-0.004086)"
       gradientUnits="userSpaceOnUse"><stop
         stop-color="#fff44f"
         offset=".048"
         id="stop1" /><stop
         stop-color="#ffe847"
         offset=".111"
         id="stop2" /><stop
         stop-color="#ffc830"
         offset=".225"
         id="stop3" /><stop
         stop-color="#ff980e"
         offset=".368"
         id="stop4" /><stop
         stop-color="#ff8b16"
         offset=".401"
         id="stop5" /><stop
         stop-color="#ff672a"
         offset=".462"
         id="stop6" /><stop
         stop-color="#ff3647"
         offset=".534"
         id="stop7" /><stop
         stop-color="#e31587"
         offset=".705"
         id="stop8" /></linearGradient><radialGradient
       id="b"
       cx="-7907"
       cy="-8515"
       r="80.800003"
       gradientTransform="translate(7974,8524)"
       gradientUnits="userSpaceOnUse"><stop
         stop-color="#ffbd4f"
         offset=".129"
         id="stop9" /><stop
         stop-color="#ffac31"
         offset=".186"
         id="stop10" /><stop
         stop-color="#ff9d17"
         offset=".247"
         id="stop11" /><stop
         stop-color="#ff980e"
         offset=".283"
         id="stop12" /><stop
         stop-color="#ff563b"
         offset=".403"
         id="stop13" /><stop
         stop-color="#ff3750"
         offset=".467"
         id="stop14" /><stop
         stop-color="#f5156c"
         offset=".71"
         id="stop15" /><stop
         stop-color="#eb0878"
         offset=".782"
         id="stop16" /><stop
         stop-color="#e50080"
         offset=".86"
         id="stop17" /></radialGradient><radialGradient
       id="c"
       cx="-7937"
       cy="-8482"
       r="80.800003"
       gradientTransform="translate(7974,8524)"
       gradientUnits="userSpaceOnUse"><stop
         stop-color="#960e18"
         offset="0.30000001"
         id="stop18"
         style="stop-color:#f6a6b5;stop-opacity:1;" /><stop
         stop-color="#b11927"
         stop-opacity=".74"
         offset=".351"
         id="stop19" /><stop
         stop-color="#db293d"
         stop-opacity=".343"
         offset=".435"
         id="stop20" /><stop
         stop-color="#f5334b"
         stop-opacity=".094"
         offset=".497"
         id="stop21" /><stop
         stop-color="#ff3750"
         stop-opacity="0"
         offset=".53"
         id="stop22" /></radialGradient><radialGradient
       id="d"
       cx="-7927"
       cy="-8533"
       r="58.529999"
       gradientTransform="translate(7974,8524)"
       gradientUnits="userSpaceOnUse"><stop
         stop-color="#fff44f"
         offset=".132"
         id="stop23" /><stop
         stop-color="#ffdc3e"
         offset=".252"
         id="stop24" /><stop
         stop-color="#ff9d12"
         offset=".506"
         id="stop25" /><stop
         stop-color="#ff980e"
         offset=".526"
         id="stop26" /></radialGradient><radialGradient
       id="e"
       cx="-7946"
       cy="-8461"
       r="38.470001"
       gradientTransform="translate(7974,8524)"
       gradientUnits="userSpaceOnUse"><stop
         stop-color="#3a8ee6"
         offset="0"
         id="stop27"
         style="stop-color:#0992c5;stop-opacity:1;" /><stop
         stop-color="#9059ff"
         offset="1"
         id="stop29"
         style="stop-color:#5cccf9;stop-opacity:1;" /></radialGradient><radialGradient
       id="f"
       cx="-7936"
       cy="-8492"
       r="20.4"
       gradientTransform="matrix(0.972,-0.235,0.275,1.138,10090,7834)"
       gradientUnits="userSpaceOnUse"><stop
         stop-color="#9059ff"
         stop-opacity="0"
         offset="0.206"
         id="stop31"
         style="stop-color:#c359ff;stop-opacity:0;" /><stop
         stop-color="#7716a8"
         stop-opacity=".45"
         offset="0.74699998"
         id="stop33"
         style="stop-color:#a61bdf;stop-opacity:0.43298969;" /></radialGradient><radialGradient
       id="g"
       cx="-7938"
       cy="-8518"
       r="27.68"
       gradientTransform="translate(7974,8524)"
       gradientUnits="userSpaceOnUse"><stop
         stop-color="#ffe226"
         offset="0"
         id="stop35" /><stop
         stop-color="#ffdb27"
         offset=".121"
         id="stop36" /><stop
         stop-color="#ffc82a"
         offset=".295"
         id="stop37" /><stop
         stop-color="#ffa930"
         offset=".502"
         id="stop38" /><stop
         stop-color="#ff7e37"
         offset=".732"
         id="stop39" /><stop
         stop-color="#ff7139"
         offset=".792"
         id="stop40" /></radialGradient><radialGradient
       id="h"
       cx="-7916"
       cy="-8536"
       r="118.1"
       gradientTransform="translate(7974,8524)"
       gradientUnits="userSpaceOnUse"><stop
         stop-color="#fff44f"
         offset=".113"
         id="stop41" /><stop
         stop-color="#ff980e"
         offset=".456"
         id="stop42" /><stop
         stop-color="#ff5634"
         offset=".622"
         id="stop43" /><stop
         stop-color="#ff3647"
         offset=".716"
         id="stop44" /><stop
         stop-color="#e31587"
         offset=".904"
         id="stop45" /></radialGradient><radialGradient
       id="i"
       cx="-7927"
       cy="-8523"
       r="86.5"
       gradientTransform="matrix(0.105,0.995,-0.653,0.069,-4685,8470)"
       gradientUnits="userSpaceOnUse"><stop
         stop-color="#fff44f"
         offset="0"
         id="stop46" /><stop
         stop-color="#ffe847"
         offset=".06"
         id="stop47" /><stop
         stop-color="#ffc830"
         offset=".168"
         id="stop48" /><stop
         stop-color="#ff980e"
         offset=".304"
         id="stop49" /><stop
         stop-color="#ff8b16"
         offset=".356"
         id="stop50" /><stop
         stop-color="#ff672a"
         offset=".455"
         id="stop51" /><stop
         stop-color="#ff3647"
         offset=".57"
         id="stop52" /><stop
         stop-color="#e31587"
         offset=".737"
         id="stop53" /></radialGradient><radialGradient
       id="j"
       cx="-7938"
       cy="-8508"
       r="73.720001"
       gradientTransform="translate(7974,8524)"
       gradientUnits="userSpaceOnUse"><stop
         stop-color="#fff44f"
         offset="0.13699999"
         id="stop54"
         style="stop-color:#f4a7b7;stop-opacity:1;" /><stop
         stop-color="#ff980e"
         offset="0.47999999"
         id="stop55"
         style="stop-color:#f4a7b7;stop-opacity:1;" /><stop
         stop-color="#ff5634"
         offset="0.59200001"
         id="stop56"
         style="stop-color:#f5a6b7;stop-opacity:1;" /><stop
         stop-color="#ff3647"
         offset=".655"
         id="stop57" /><stop
         stop-color="#e31587"
         offset=".904"
         id="stop58" /></radialGradient><radialGradient
       id="k"
       cx="-7919"
       cy="-8504"
       r="80.690002"
       gradientTransform="translate(7974,8524)"
       gradientUnits="userSpaceOnUse"><stop
         stop-color="#fff44f"
         offset=".094"
         id="stop59" /><stop
         stop-color="#ffe141"
         offset=".231"
         id="stop60" /><stop
         stop-color="#ffaf1e"
         offset=".509"
         id="stop61" /><stop
         stop-color="#ff980e"
         offset=".626"
         id="stop62" /></radialGradient><linearGradient
       id="l"
       x1="70.010002"
       x2="15.27"
       y1="12.06"
       y2="66.809998"
       gradientTransform="translate(-1.3,-0.004086)"
       gradientUnits="userSpaceOnUse"><stop
         stop-color="#fff44f"
         stop-opacity=".8"
         offset="0.167"
         id="stop63"
         style="stop-color:#f5a7b7;stop-opacity:0.80000001;" /><stop
         stop-color="#fff44f"
         stop-opacity=".634"
         offset="0.266"
         id="stop64"
         style="stop-color:#f5a7b7;stop-opacity:0.63529414;" /><stop
         stop-color="#fff44f"
         stop-opacity=".217"
         offset="0.48899999"
         id="stop65"
         style="stop-color:#f5a7b7;stop-opacity:0.21568628;" /><stop
         stop-color="#fff44f"
         stop-opacity="0"
         offset="0.60000002"
         id="stop66"
         style="stop-color:#f5a7b7;stop-opacity:0;" /></linearGradient><filter
       inkscape:label="Neon"
       inkscape:menu="Bevels"
       inkscape:menu-tooltip="Neon light effect"
       x="-0.26160085"
       y="-0.24849083"
       width="1.5232017"
       height="1.4969817"
       style="color-interpolation-filters:sRGB"
       id="filter10"><feGaussianBlur
         stdDeviation="1"
         result="result1"
         id="feGaussianBlur5" /><feComposite
         in="result1"
         in2="result1"
         result="result4"
         operator="in"
         id="feComposite5" /><feGaussianBlur
         stdDeviation="7"
         result="result6"
         in="result4"
         id="feGaussianBlur6" /><feComposite
         operator="over"
         in="result6"
         in2="result4"
         result="result8"
         id="feComposite6" /><feComposite
         operator="in"
         result="fbSourceGraphic"
         in="result6"
         in2="result8"
         id="feComposite7" /><feSpecularLighting
         specularExponent="45"
         specularConstant="2"
         surfaceScale="2.5"
         lighting-color="#ffffff"
         result="result1"
         in="fbSourceGraphic"
         id="feSpecularLighting7"><fePointLight
           z="20000"
           y="-10000"
           x="-5000"
           id="fePointLight7" /></feSpecularLighting><feComposite
         operator="in"
         result="result2"
         in="result1"
         in2="fbSourceGraphic"
         id="feComposite8" /><feComposite
         k3="1.5"
         k2="1.2"
         operator="arithmetic"
         result="result4"
         in="fbSourceGraphic"
         in2="result2"
         id="feComposite9"
         k1="0"
         k4="0" /><feComposite
         operator="over"
         in="result9"
         in2="result4"
         result="result9"
         id="feComposite10" /><feBlend
         mode="screen"
         in2="result9"
         id="feBlend10" /></filter><filter
       inkscape:label="Neon"
       inkscape:menu="Bevels"
       inkscape:menu-tooltip="Neon light effect"
       x="-0.25753206"
       y="-0.26181188"
       width="1.5150641"
       height="1.5236237"
       style="color-interpolation-filters:sRGB"
       id="filter55"><feGaussianBlur
         stdDeviation="1"
         result="result1"
         id="feGaussianBlur50" /><feComposite
         in="result1"
         in2="result1"
         result="result4"
         operator="in"
         id="feComposite50" /><feGaussianBlur
         stdDeviation="7"
         result="result6"
         in="result4"
         id="feGaussianBlur51" /><feComposite
         operator="over"
         in="result6"
         in2="result4"
         result="result8"
         id="feComposite51" /><feComposite
         operator="in"
         result="fbSourceGraphic"
         in="result6"
         in2="result8"
         id="feComposite52" /><feSpecularLighting
         specularExponent="45"
         specularConstant="2"
         surfaceScale="2.5"
         lighting-color="#ffffff"
         result="result1"
         in="fbSourceGraphic"
         id="feSpecularLighting52"><fePointLight
           z="20000"
           y="-10000"
           x="-5000"
           id="fePointLight52" /></feSpecularLighting><feComposite
         operator="in"
         result="result2"
         in="result1"
         in2="fbSourceGraphic"
         id="feComposite53" /><feComposite
         k3="1.5"
         k2="1.2"
         operator="arithmetic"
         result="result4"
         in="fbSourceGraphic"
         in2="result2"
         id="feComposite54"
         k1="0"
         k4="0" /><feComposite
         operator="over"
         in="result9"
         in2="result4"
         result="result9"
         id="feComposite55" /><feBlend
         mode="screen"
         in2="result9"
         id="feBlend55" /></filter><filter
       inkscape:label="Neon"
       inkscape:menu="Bevels"
       inkscape:menu-tooltip="Neon light effect"
       x="-0.28822908"
       y="-0.24981306"
       width="1.5764582"
       height="1.499626"
       style="color-interpolation-filters:sRGB"
       id="filter66"><feGaussianBlur
         stdDeviation="1"
         result="result1"
         id="feGaussianBlur61" /><feComposite
         in="result1"
         in2="result1"
         result="result4"
         operator="in"
         id="feComposite61" /><feGaussianBlur
         stdDeviation="7"
         result="result6"
         in="result4"
         id="feGaussianBlur62" /><feComposite
         operator="over"
         in="result6"
         in2="result4"
         result="result8"
         id="feComposite62" /><feComposite
         operator="in"
         result="fbSourceGraphic"
         in="result6"
         in2="result8"
         id="feComposite63" /><feSpecularLighting
         specularExponent="45"
         specularConstant="2"
         surfaceScale="2.5"
         lighting-color="#ffffff"
         result="result1"
         in="fbSourceGraphic"
         id="feSpecularLighting63"><fePointLight
           z="20000"
           y="-10000"
           x="-5000"
           id="fePointLight63" /></feSpecularLighting><feComposite
         operator="in"
         result="result2"
         in="result1"
         in2="fbSourceGraphic"
         id="feComposite64" /><feComposite
         k3="1.5"
         k2="1.2"
         operator="arithmetic"
         result="result4"
         in="fbSourceGraphic"
         in2="result2"
         id="feComposite65"
         k1="0"
         k4="0" /><feComposite
         operator="over"
         in="result9"
         in2="result4"
         result="result9"
         id="feComposite66" /><feBlend
         mode="screen"
         in2="result9"
         id="feBlend66" /></filter><filter
       inkscape:label="Neon"
       inkscape:menu="Bevels"
       inkscape:menu-tooltip="Neon light effect"
       x="-0.55889285"
       y="-1.1484648"
       width="2.1177857"
       height="3.2969296"
       style="color-interpolation-filters:sRGB"
       id="filter72"><feGaussianBlur
         stdDeviation="1"
         result="result1"
         id="feGaussianBlur66" /><feComposite
         in="result1"
         in2="result1"
         result="result4"
         operator="in"
         id="feComposite67" /><feGaussianBlur
         stdDeviation="7"
         result="result6"
         in="result4"
         id="feGaussianBlur67" /><feComposite
         operator="over"
         in="result6"
         in2="result4"
         result="result8"
         id="feComposite68" /><feComposite
         operator="in"
         result="fbSourceGraphic"
         in="result6"
         in2="result8"
         id="feComposite69" /><feSpecularLighting
         specularExponent="45"
         specularConstant="2"
         surfaceScale="2.5"
         lighting-color="#ffffff"
         result="result1"
         in="fbSourceGraphic"
         id="feSpecularLighting69"><fePointLight
           z="20000"
           y="-10000"
           x="-5000"
           id="fePointLight69" /></feSpecularLighting><feComposite
         operator="in"
         result="result2"
         in="result1"
         in2="fbSourceGraphic"
         id="feComposite70" /><feComposite
         k3="1.5"
         k2="1.2"
         operator="arithmetic"
         result="result4"
         in="fbSourceGraphic"
         in2="result2"
         id="feComposite71"
         k1="0"
         k4="0" /><feComposite
         operator="over"
         in="result9"
         in2="result4"
         result="result9"
         id="feComposite72" /><feBlend
         mode="screen"
         in2="result9"
         id="feBlend72" /></filter></defs><metadata
     id="metadata77"><rdf:RDF><cc:Work
         rdf:about=""><dc:title>Firefox Browser logo</dc:title></cc:Work></rdf:RDF></metadata><g
     inkscape:groupmode="layer"
     id="layer1"
     inkscape:label="main"><g
       id="g1845"
       transform="matrix(0.6142783,0,0,0.6142783,-80.477944,-35.153691)"
       inkscape:label="xenia"><g
         transform="matrix(1.5985984,0,0,1.5985984,147.4035,63.427991)"
         id="g77"
         inkscape:label="firefox"><path
           d="m 74.62,26.83 c -1.684,-4.052 -5.1,-8.427 -7.775,-9.81 1.907522,3.693897 3.231542,7.660898 3.925,11.76 l 0.007,0.065 C 66.395,17.925 58.967,13.515 52.897,3.925 52.59,3.44 52.283,2.954 51.984,2.441 51.813,2.148 51.676,1.884 51.557,1.641 51.305291,1.1535537 51.111313,0.63840449 50.979,0.106 c 3.67e-4,-0.05086257 -0.0375,-0.09389766 -0.088,-0.1 -0.02389,-0.006552668 -0.04911,-0.006552668 -0.073,0 -0.005,0 -0.013,0.009 -0.019,0.011 -0.006,0.002 -0.019,0.011 -0.028,0.015 l 0.015,-0.026 c -9.735,5.7 -13.04,16.25 -13.34,21.53 C 24.739154,35.041369 23.724782,49.536817 0.004,41.04 v 0.2 C 0.03950722,61.345161 15.44192,78.085485 35.474576,79.79171 55.507231,81.497936 73.518869,67.603559 76.954,47.794 c 0.065,-0.5 0.118,-0.995 0.176,-1.5 0.798309,-6.598097 -0.0659,-13.291085 -2.514,-19.47 z M 29.95,57.17 c 0.181,0.087 0.351,0.181 0.537,0.264 l 0.027,0.017 C 30.326,57.361 30.138,57.267333 29.95,57.17 Z M 70.778,28.856 v -0.037 l 0.007,0.041 z"
           fill="url(#a)"
           id="path66"
           sodipodi:nodetypes="ccccccccccscccccscccccccccccc"
           style="display:inline;fill:#ea4f2f;fill-opacity:1" /><path
           d="m 74.62,26.83 c -1.684,-4.052 -5.1,-8.427 -7.775,-9.81 a 40.27,40.27 0 0 1 3.925,11.76 v 0.037 l 0.007,0.041 a 35.1,35.1 0 0 1 -1.206,26.16 c -4.442,9.531 -15.19,19.3 -32.02,18.82 -18.18,-0.515 -34.2,-14.01 -37.19,-31.68 -0.545,-2.787 0,-4.2 0.274,-6.465 a 28.88,28.88 0 0 0 -0.623,5.348 v 0.2 a 38.76,38.76 0 0 0 76.95,6.554 c 0.065,-0.5 0.118,-0.995 0.176,-1.5 a 39.86,39.86 0 0 0 -2.514,-19.47 z"
           fill="url(#b)"
           id="path67"
           style="display:inline;fill:#d45500" /><path
           d="m 74.62,26.83 c -1.684,-4.052 -5.1,-8.427 -7.775,-9.81 1.907522,3.693897 3.231542,7.660898 3.925,11.76 v 0.037 l 0.007,0.041 c 2.987815,8.54906 2.555709,17.9221 -1.206,26.16 -4.442,9.531 -15.19,19.3 -32.02,18.82 -18.18,-0.515 -34.2,-14.01 -37.19,-31.68 -0.545,-2.787 0,-4.2 0.274,-6.465 -0.37374947,1.759377 -0.58232231,3.549823 -0.623,5.348 v 0.2 C 0.04750722,61.346161 15.44992,78.086485 35.482576,79.79271 55.515231,81.498936 73.526869,67.604559 76.962,47.795 c 0.065,-0.5 0.118,-0.995 0.176,-1.5 0.798309,-6.598097 -0.0659,-13.291085 -2.514,-19.47 z"
           fill="url(#c)"
           id="path68"
           style="display:inline;fill:url(#c)"
           sodipodi:nodetypes="cccccccccccscccc" /><path
           d="m 55.78,31.38 c 0.084,0.059 0.162,0.118 0.241,0.177 a 21.1,21.1 0 0 0 -3.6,-4.695 C 40.371,14.812 49.264,0.742 50.763,0.022 L 50.778,0 c -9.735,5.7 -13.04,16.25 -13.34,21.53 0.452,-0.031 0.9,-0.069 1.362,-0.069 a 19.56,19.56 0 0 1 16.98,9.917 z"
           fill="url(#d)"
           id="path69"
           style="display:inline;fill:#f4a7b7;fill-opacity:1" /><path
           d="m 21.349,44.746 c 0.488,5.614 4.4,10.24 9.129,12.68 0.216,0.112 0.435,0.213 0.654,0.312 0.379333,0.168 0.758667,0.323333 1.138,0.466 1.622988,0.574314 3.322847,0.902286 5.043,0.973 19.32,0.906 23.06,-23.1 9.119,-30.07 3.28855,-0.427894 6.618828,0.380709 9.345,2.269 -3.466249,-6.117213 -9.948998,-9.903398 -16.98,-9.917 -0.46,0 -0.91,0.038 -1.362,0.069 -3.889046,0.266628 -7.607432,1.69927 -10.67,4.111 -12.302499,11.309428 2.538846,5.622352 -5.416,19.107 z"
           fill="url(#e)"
           id="path70"
           style="display:inline;fill:url(#e)"
           sodipodi:nodetypes="ccccccccccc" /><path
           d="m 21.349,44.746 c 0.488,5.614 4.4,10.24 9.129,12.68 0.216,0.112 0.435,0.213 0.654,0.312 0.379333,0.168 0.758667,0.323333 1.138,0.466 1.622988,0.574314 3.322847,0.902286 5.043,0.973 19.32,0.906 23.06,-23.1 9.119,-30.07 3.28855,-0.427894 6.618828,0.380709 9.345,2.269 -3.466249,-6.117213 -9.948998,-9.903398 -16.98,-9.917 -0.46,0 -0.91,0.038 -1.362,0.069 -3.889046,0.266628 -7.607432,1.69927 -10.67,4.111 -9.293028,8.746556 -5.58102,8.108025 -5.416,19.107 z"
           fill="url(#f)"
           id="path71"
           sodipodi:nodetypes="ccccccccccc"
           style="display:inline;fill:url(#f)" /><path
           d="M 5.1596346,46.302788 C 9.3106154,70.352683 30.13525,73.992846 37.544,73.84 c 16.83,0.476 27.58,-9.294 32.02,-18.82 3.761709,-8.2379 4.193815,-17.61094 1.206,-26.16 v -0.037 c 0,-0.029 -0.006,-0.046 0,-0.037 l 0.007,0.065 c 1.375,8.977 -3.191,17.67 -10.33,23.56 l -0.022,0.05 c -13.91,11.33 -27.22,6.834 -29.91,5 C 30.327,57.371 30.139,57.277333 29.951,57.18 23.250548,52.972577 22.302365,49.234231 20.950971,42.31424 17.018426,42.37228 10.934825,43.837629 9.2842981,40.26775 7.7232716,42.06004 6.111827,37.200467 4.5439423,41.806567 3.2821058,44.619808 1.9879615,38.708577 2.6669615,41.830577 Z"
           fill="url(#h)"
           id="path73"
           style="display:inline;fill:#f9f9f9"
           sodipodi:nodetypes="ccccsccccccccccc" /><path
           d="m 52.42,26.86 a 21.1,21.1 0 0 1 3.6,4.7 c 0.213,0.161 0.412,0.321 0.581,0.476 8.787,8.1 4.183,19.55 3.84,20.36 7.138,-5.881 11.7,-14.58 10.33,-23.56 C 66.387,17.906 58.951,13.496 52.891,3.906 52.584,3.421 52.277,2.935 51.978,2.422 51.807,2.129 51.67,1.865 51.551,1.622 a 7.053,7.053 0 0 1 -0.578,-1.535 0.1,0.1 0 0 0 -0.088,-0.1 0.138,0.138 0 0 0 -0.073,0 c -0.005,0 -0.013,0.009 -0.019,0.011 -0.006,0.002 -0.019,0.011 -0.028,0.015 -1.499,0.711 -10.39,14.79 1.66,26.83 z"
           fill="url(#i)"
           id="path74"
           style="display:inline;opacity:0.241;fill:#f7a6b5;fill-opacity:1" /><path
           d="M 56.6,32.04 C 56.431,31.885 56.232,31.725 56.019,31.564 55.94,31.505 55.862,31.446 55.778,31.387 a 13.38,13.38 0 0 0 -9.345,-2.269 c 13.94,6.97 10.2,30.97 -9.119,30.07 a 17.24,17.24 0 0 1 -5.043,-0.973 q -0.569,-0.213 -1.138,-0.466 c -0.219,-0.1 -0.438,-0.2 -0.654,-0.312 l 0.027,0.017 c 2.694,1.839 16,6.332 29.91,-5 l 0.022,-0.05 c 0.347,-0.81 4.951,-12.26 -3.84,-20.36 z"
           fill="url(#j)"
           id="path75"
           style="display:inline;opacity:0.7;fill:url(#j)" /><path
           d="m 74.62,26.83 c -1.684,-4.052 -5.1,-8.427 -7.775,-9.81 1.907522,3.693897 3.231542,7.660898 3.925,11.76 l 0.007,0.065 C 66.395,17.925 58.967,13.515 52.897,3.925 52.59,3.44 52.283,2.954 51.984,2.441 51.813,2.148 51.676,1.884 51.557,1.641 51.305291,1.1535537 51.111313,0.63840449 50.979,0.106 c 3.67e-4,-0.05086257 -0.0375,-0.09389766 -0.088,-0.1 -0.02389,-0.006552668 -0.04911,-0.006552668 -0.073,0 -0.005,0 -0.013,0.009 -0.019,0.011 -0.006,0.002 -0.019,0.011 -0.028,0.015 l 0.015,-0.026 c -9.735,5.7 -13.04,16.25 -13.34,21.53 0.452,-0.031 0.9,-0.069 1.362,-0.069 7.031002,0.0136 13.513751,3.799787 16.98,9.917 -2.726172,-1.888291 -6.05645,-2.696894 -9.345,-2.269 13.94,6.97 10.2,30.97 -9.119,30.07 -1.720153,-0.07071 -3.420012,-0.398686 -5.043,-0.973 -0.379333,-0.142 -0.758667,-0.297333 -1.138,-0.466 -0.219,-0.1 -0.438,-0.2 -0.654,-0.312 l 0.027,0.017 c -0.188,-0.09 -0.376,-0.183667 -0.564,-0.281 0.181,0.087 0.351,0.181 0.537,0.264 C 25.756,54.988 21.848,50.364 21.36,44.754 23.722779,33.208073 11.77252,9.2390776 1.077,32.944 L 1.025,33.2 c -0.073,0.341 -0.4,2.073 -0.447,2.445 -0.2990992,1.787865 -0.49011254,3.59214 -0.572,5.403 v 0.2 C 0.04150722,61.353161 15.44392,78.093485 35.476576,79.79971 55.509231,81.505936 73.520869,67.611559 76.956,47.802 c 0.065,-0.5 0.118,-0.995 0.176,-1.5 0.798309,-6.598097 -0.0659,-13.291085 -2.514,-19.47 z m -3.845,1.991 0.007,0.041 z"
           fill="url(#l)"
           id="path77"
           style="display:inline;fill:url(#l)"
           sodipodi:nodetypes="ccccccccccscccccccccccccccccccsccccccc" /></g><path
         style="fill:#f9f9f9"
         d="m 240.91513,121.81194 c 0.0305,-0.15134 0.11783,-0.64995 0.19411,-1.10802 0.10997,-0.66032 0.17522,-0.85582 0.315,-0.94373 0.30431,-0.1914 2.82919,-1.01741 2.8984,-0.94821 0.0362,0.0362 -0.12325,0.2237 -0.35443,0.41655 -0.23118,0.19285 -0.99337,0.91493 -1.69375,1.60461 -0.70038,0.68968 -1.30522,1.25397 -1.34408,1.25397 -0.0389,0 -0.0457,-0.12383 -0.0152,-0.27517 z m 0.50445,-5.16467 c -0.006,-0.80327 -0.0698,-1.97485 -0.14263,-2.6035 -0.30021,-2.59014 -0.27584,-3.71996 0.11686,-5.41866 0.18461,-0.79853 0.69114,-2.39707 0.92558,-2.921 1.37137,-3.06466 2.76937,-5.30144 4.33922,-6.942672 1.94359,-2.03196 5.70436,-5.207 6.1676,-5.207 0.12824,0 0.162,0.0608 0.162,0.292 0,0.78211 0.60802,4.65455 1.23034,7.836002 0.64248,3.28446 0.654,3.37604 0.59887,4.75783 -0.10966,2.74835 -0.53724,4.09857 -1.34596,4.25028 -0.65048,0.12204 -3.02075,1.24044 -4.50492,2.12563 -2.44341,1.45731 -4.59956,2.99296 -6.79931,4.8426 -0.2937,0.24695 -0.57978,0.44899 -0.63575,0.44899 -0.0749,0 -0.10443,-0.38539 -0.1119,-1.4605 z"
         id="path1857"
         transform="translate(-93.575343,-9.8321925)"
         sodipodi:nodetypes="cccssssccccccsssccccssc" /><path
         style="fill:#c98b3c"
         d="m 154.80353,133.71925 c -2.82815,-1.03171 -4.67504,-3.69575 -6.19564,-6.17111 -1.40516,-2.46036 -2.24015,-5.2482 -1.95834,-8.10498 0.28387,-3.29227 1.60802,-6.42733 3.54533,-9.06321 0.55997,-0.86002 1.9436,-2.43415 0.0364,-1.49576 -1.05274,0.0529 -3.224,1.66786 -3.57136,1.10321 0.97906,-1.61603 2.71926,-2.57176 4.15506,-3.77313 3.92305,-2.86718 8.23199,-5.77972 13.25709,-5.97147 3.61967,-0.601508 7.85642,0.3111 9.97835,3.55845 1.78647,-0.70558 4.18674,-2.47496 6.58721,-2.61006 1.278,-0.0332 -1.96015,1.05657 -2.4552,1.4419 -0.82485,0.40898 -3.6148,1.58627 -1.15604,1.37253 2.85488,-0.008 5.88998,-0.24793 8.44018,1.30145 2.41271,0.95179 3.26989,3.59043 5.15875,5.16345 2.46487,2.41641 6.21932,3.86642 7.17477,7.49385 0.24779,1.04582 0.83778,3.34837 0.19517,3.81064 -1.25771,-1.72359 -2.78541,-3.18655 -4.20653,-4.75212 0.31526,1.60894 0.3402,4.35696 -1.45641,4.77818 0.31597,-1.52865 0.0359,-4.04132 -0.8637,-4.88458 0.42004,2.36845 -0.98287,-0.58374 -1.71783,-1.20698 -0.91867,-1.04178 -2.51294,-1.75077 -3.89971,-2.01385 -1.59094,-0.96532 -4.8909,1.58815 -4.81837,-1.2361 -0.3001,-1.09986 -0.50054,-2.29704 -0.78923,-0.36293 -0.54419,2.4184 -2.2876,4.52622 -4.40439,5.76306 0.1609,-1.16269 1.65469,-2.65171 1.9424,-4.24132 0.25834,-0.74555 0.59454,-3.13727 0.0154,-1.05293 -0.37257,1.87405 -1.44561,3.45839 -2.46559,5.09193 -0.65019,1.00441 -3.51312,2.40649 -2.85689,0.0221 -0.18851,-2.01272 -1.30992,-3.60551 -2.66097,-4.93656 -1.39026,-1.31861 -0.60607,-3.7218 -1.26087,-5.4594 -0.28,-0.74877 -0.62266,-2.48616 -0.88828,-0.52297 -0.59672,1.33496 -1.02755,3.82565 -2.74131,3.97759 -2.06856,-0.22929 -4.02682,0.72133 -5.6831,1.65472 -0.0181,-1.38301 -0.84288,1.89184 -1.59255,2.11994 -0.80526,1.36609 -1.90832,3.00913 -3.20897,4.15812 -0.89271,0.66071 -2.33955,2.62445 -3.13607,2.29071 0.73087,-1.94163 1.81413,-3.7799 2.29618,-5.79795 -1.1454,1.60385 -1.79418,3.74218 -2.7017,5.5673 -0.62391,1.12591 -1.17471,2.56643 0.47155,1.38363 1.00873,-0.47687 2.32692,-1.88353 1.27572,0.0963 -0.88241,2.92229 -0.85224,6.24877 0.50767,9.04138 -0.0599,0.62098 2.72215,2.68999 1.65176,2.46693 z"
         id="path1848" /><path
         style="fill:#ea4f2f"
         d="m 185.45835,138.753 c -0.63702,-0.10566 -0.63654,-0.1564 0.002,-0.16629 0.29881,-0.005 0.71473,-0.0214 0.92428,-0.0372 0.20955,-0.0158 0.67859,-0.0512 1.0423,-0.0787 0.77947,-0.0588 1.30116,-0.17409 2.88209,-0.6368 1.741,-0.50955 3.34769,-1.2254 4.69805,-2.09319 l 0.7061,-0.45377 -0.23545,-0.1852 c -0.1295,-0.10186 -0.48534,-0.34776 -0.79077,-0.54643 -0.30542,-0.19868 -1.43162,-0.93463 -2.50265,-1.63544 -1.07104,-0.7008 -2.55694,-1.65751 -3.302,-2.126 -0.74507,-0.4685 -1.73038,-1.0987 -2.18959,-1.40044 l -0.83492,-0.54863 0.91959,-0.31136 c 1.1251,-0.38095 1.87551,-0.81984 2.8485,-1.66602 l 0.74359,-0.64667 0.42751,0.42976 c 0.23514,0.23638 0.45336,0.42977 0.48495,0.42977 0.0316,0 0.15858,0.0938 0.2822,0.20842 0.42843,0.39726 1.86532,1.32783 2.48959,1.61231 0.34499,0.15722 0.89418,0.37182 1.22042,0.4769 0.33705,0.10855 0.59316,0.23913 0.59316,0.30242 0,0.15188 -0.68268,0.57377 -1.94734,1.20344 -0.58208,0.28981 -1.09041,0.55813 -1.12962,0.59625 -0.0756,0.0735 0.39765,0.54491 0.72378,0.72087 0.1068,0.0576 0.53708,0.32316 0.95618,0.59009 1.41871,0.90357 3.15503,1.64667 4.699,2.01107 0.2948,0.0696 0.46566,0.15411 0.46566,0.23038 0,0.28205 -3.68082,1.89847 -6.18066,2.71422 -2.13398,0.69636 -3.18899,0.93115 -4.572,1.01748 -1.535,0.0958 -2.80296,0.0916 -3.42351,-0.0113 z m -39.48883,-0.27981 c -0.0714,-0.18597 0.76113,-2.36726 1.34899,-3.53459 0.15859,-0.31492 0.28835,-0.6299 0.28835,-0.69997 0,-0.13775 -0.43205,-0.383 -0.97367,-0.55269 -0.75916,-0.23784 -3.11148,-1.59531 -3.65829,-2.11112 -0.10283,-0.097 -0.2138,-0.17636 -0.2466,-0.17636 -0.0722,0 -1.33271,-1.02913 -1.37266,-1.12067 -0.0155,-0.0356 -0.0788,-0.0647 -0.14064,-0.0647 -0.0618,0 -0.21661,-0.12383 -0.34396,-0.27517 -0.12735,-0.15134 -0.24609,-0.26438 -0.26388,-0.25119 -0.0395,0.0293 -0.44314,-0.29474 -1.62304,-1.30291 -1.55162,-1.32579 -7.97193,-7.93751 -7.97193,-8.2096 0,-0.0302 0.10478,-0.0267 0.23284,0.008 0.12805,0.0344 0.44238,0.11107 0.6985,0.17048 0.25611,0.0594 0.82761,0.20129 1.27,0.31531 0.44238,0.11402 1.08126,0.25099 1.41973,0.30437 0.78076,0.12314 2.68811,0.12556 3.35884,0.004 1.33589,-0.24158 3.45222,-0.93069 3.79036,-1.2342 0.23889,-0.21443 0.81602,-1.07533 1.09624,-1.63526 0.23674,-0.47305 1.75453,-2.42994 2.58129,-3.32806 0.24841,-0.26986 0.49454,-0.57077 0.54694,-0.66869 0.0885,-0.16528 0.0779,-0.17453 -0.14723,-0.12912 -0.13338,0.0269 -0.30918,0.0747 -0.39067,0.10625 -0.32113,0.12423 -0.1067,-0.11161 0.5417,-0.5958 0.93322,-0.69688 1.19562,-0.93018 2.52343,-2.24367 0.6355,-0.62865 1.34115,-1.3118 1.56811,-1.51812 0.37188,-0.33806 0.41834,-0.35897 0.47031,-0.21166 0.0382,0.10823 -0.01,0.25196 -0.14169,0.42544 -0.10965,0.1441 -0.19936,0.28418 -0.19936,0.31129 0,0.0782 -0.831,1.31204 -0.92119,1.36778 -0.089,0.055 -1.3403,2.53449 -1.52002,3.01194 -1.18757,3.15501 -1.49931,6.19787 -0.89776,8.763 0.1729,0.7373 0.18099,0.71967 -0.33025,0.71967 -0.73445,0 -4.07341,-0.55474 -4.78293,-0.79464 -0.31367,-0.10606 -0.60719,-0.094 -0.60719,0.0249 0,0.1153 1.66052,2.31167 2.47028,3.26744 1.98651,2.34472 4.19589,4.05358 6.89241,5.33096 0.9278,0.43952 2.27567,0.97671 2.45066,0.97671 0.0618,0 0.37229,0.13635 0.69,0.303 0.90695,0.47574 1.37377,0.6349 1.54623,0.52719 0.16558,-0.1034 0.60583,0.005 0.58516,0.14348 -0.007,0.0466 -0.6832,0.30409 -1.50283,0.57228 -1.52017,0.49741 -2.62375,0.98701 -2.90858,1.29038 -0.15789,0.16817 -0.15473,0.16974 0.46034,0.22737 0.34063,0.0319 0.90508,0.0986 1.25433,0.14813 1.79496,0.25467 2.12363,0.28835 2.70934,0.27759 0.76765,-0.0141 0.59299,0.0905 -0.38833,0.23252 -1.23342,0.17852 -1.76881,0.28163 -2.02467,0.38993 -0.1397,0.0591 -0.53975,0.15312 -0.889,0.20886 -0.34925,0.0557 -0.92075,0.17069 -1.27,0.25544 -0.34925,0.0847 -0.84455,0.17524 -1.10067,0.2011 -0.25612,0.0259 -1.18957,0.22052 -2.07433,0.43259 -2.1926,0.52555 -2.04154,0.50106 -2.10301,0.34087 z m 6.37867,-14.7559 c 0,-0.29784 0.18216,-1.16148 0.35192,-1.66845 0.25932,-0.77447 0.44565,-1.08355 0.88978,-1.47596 0.22512,-0.1989 0.78541,-0.71154 1.2451,-1.13919 0.84622,-0.78725 1.18051,-0.99645 1.33901,-0.83796 0.0471,0.0471 0.11807,0.46097 0.15769,0.91969 0.0396,0.45872 0.12845,1.06264 0.1974,1.34204 0.15342,0.62168 0.54853,1.73884 0.66699,1.88588 0.0478,0.0593 0.072,0.1199 0.0537,0.13459 -0.1381,0.11099 -3.50292,0.82435 -4.45707,0.94492 -0.40069,0.0506 -0.4445,0.0402 -0.4445,-0.10556 z m 23.114,-2.27792 c -0.51227,-0.14783 -1.03075,-0.22258 -1.79917,-0.25941 -0.81299,-0.039 -1.0795,-0.0794 -1.0795,-0.16377 0,-0.1582 0.3653,-0.32645 1.08766,-0.50098 0.52618,-0.12713 0.70223,-0.13535 1.143,-0.0534 0.7139,0.13276 1.54746,0.55405 1.70711,0.86278 0.0694,0.13426 0.12623,0.26505 0.12623,0.29065 0,0.0972 -0.49191,0.0242 -1.18533,-0.17589 z m 0.63711,-1.18955 c -0.66803,-0.36441 -1.68503,-0.45548 -2.66911,-0.23903 -0.87285,0.192 -0.84648,0.20424 -0.83023,-0.38544 0.008,-0.28185 0.0442,-0.53101 0.0809,-0.55369 0.0367,-0.0227 0.3251,-0.11193 0.64089,-0.19833 0.79267,-0.21686 1.80207,-0.5836 2.05455,-0.74646 0.11572,-0.0746 0.41507,-0.24339 0.66523,-0.37498 1.29454,-0.68096 3.29684,-2.94732 3.79266,-4.29281 0.15533,-0.4215 0.35501,-0.70615 0.45292,-0.64564 0.10781,0.0666 0.27989,1.2838 0.20134,1.42416 -0.0407,0.0728 -0.3406,0.31993 -0.66632,0.54914 -1.21723,0.85656 -2.29418,2.03105 -2.75619,3.00583 -0.21489,0.45338 -0.37985,1.2863 -0.43918,2.21752 -0.0249,0.39006 -0.14867,0.44634 -0.52742,0.23973 z m -8.64388,-9.04522 c -0.14287,-0.0627 -0.52387,-0.18161 -0.84666,-0.26418 -0.85026,-0.21748 -0.84738,-0.2124 -0.49107,-0.86653 0.75599,-1.38788 0.86709,-1.606 1.05209,-2.06555 0.12728,-0.31619 0.22535,-0.45881 0.27875,-0.40541 0.11565,0.11565 0.53864,2.22905 0.6101,3.04828 0.0592,0.6789 0.0587,0.68123 -0.14201,0.67435 -0.11078,-0.004 -0.31832,-0.0582 -0.4612,-0.12096 z"
         id="path1847" /><g
         id="g1862"
         transform="translate(-50.182719,-110.04279)"><path
           style="fill:#3d3d3d"
           d="m 234.25981,238.0147 c 0.27223,-0.0495 0.46279,-0.31321 3.45648,-4.78394 2.72775,-4.07357 3.16065,-4.76235 3.11284,-4.95283 -0.11448,-0.45614 0.0519,-0.0948 0.33425,0.72578 0.40155,1.16713 0.50456,1.83275 0.43652,2.82065 -0.0597,0.86718 -0.19498,1.31685 -0.70027,2.32798 -0.44108,0.88266 -0.62217,1.15125 -0.73333,1.08762 -0.0542,-0.031 -0.0704,-0.0253 -0.0359,0.0128 0.13027,0.14379 -0.89077,1.2243 -1.40814,1.49016 -0.1448,0.0744 -0.51741,0.29205 -0.82802,0.48366 -0.71234,0.43942 -1.50841,0.71318 -2.08109,0.71566 -0.24447,0.001 -0.4445,0.0346 -0.4445,0.0745 0,0.0399 -0.31432,0.0676 -0.6985,0.0614 -0.46166,-0.007 -0.60081,-0.0289 -0.41039,-0.0635 z m -3.63994,-1.39388 c -0.16434,-0.14485 -0.23258,-0.30644 -0.27279,-0.64592 -0.10386,-0.87696 -0.37205,-1.48799 -0.89369,-2.03618 -0.26484,-0.27832 -0.46509,-0.50604 -0.44499,-0.50604 0.10198,0 -0.34336,-0.3983 -0.77084,-0.68941 -0.26664,-0.18158 -0.53101,-0.41507 -0.58749,-0.51887 -0.0566,-0.10408 -0.11941,-0.64132 -0.13997,-1.19786 -0.0298,-0.80656 -0.0131,-1.0275 0.0833,-1.10066 0.0663,-0.0504 0.45793,-0.66304 0.8702,-1.36154 0.41227,-0.6985 0.93682,-1.58407 1.16567,-1.96794 0.22885,-0.38386 0.39739,-0.7282 0.37453,-0.76518 -0.0655,-0.106 0.79038,-0.54992 1.12539,-0.5837 0.18226,-0.0184 0.37263,-0.10944 0.47897,-0.22911 0.0971,-0.10923 0.42092,-0.27736 0.71967,-0.37361 1.57788,-0.50837 3.13994,-0.44087 4.8804,0.2109 l 0.44256,0.16572 -0.40023,0.64734 c -0.22012,0.35604 -0.72849,1.1913 -1.1297,1.85613 -0.40121,0.66483 -1.16725,1.93269 -1.70232,2.81745 -0.53506,0.88477 -1.26188,2.10397 -1.61516,2.70934 -0.35328,0.60536 -0.75892,1.29116 -0.90142,1.524 -0.96365,1.57449 -1.19022,2.01433 -1.09605,2.12779 0.1426,0.17183 0.062,0.13605 -0.18607,-0.0827 z m -15.81433,-0.89565 c 1.77986,-2.49505 5.5153,-8.06073 6.53656,-9.73924 0.15294,-0.25137 0.15215,-0.26101 -0.0574,-0.7009 -0.11684,-0.24531 -0.29771,-0.57937 -0.40192,-0.74235 -0.10421,-0.16299 -0.12865,-0.23919 -0.0543,-0.16934 0.22288,0.2094 0.78706,1.2708 1.02105,1.92092 0.3683,1.02328 0.50612,1.96655 0.45539,3.11675 -0.0903,2.04734 -0.86758,3.71584 -2.23972,4.80782 -0.72806,0.57942 -1.25733,0.89471 -2.0532,1.22313 -0.81101,0.33467 -1.43058,0.44605 -2.48121,0.44605 -0.81407,0 -0.83766,-0.005 -0.72528,-0.16284 z m -3.06885,-0.41951 c -1.14624,-0.48911 -2.66685,-1.62256 -3.28998,-2.45233 -0.74898,-0.99736 -1.10525,-2.1544 -1.16425,-3.78099 -0.038,-1.04741 -0.0207,-1.26906 0.14834,-1.905 0.37356,-1.40506 1.00197,-2.5061 2.03578,-3.56689 0.9784,-1.00393 2.17336,-1.69196 3.59477,-2.06977 0.9016,-0.23964 2.73541,-0.22268 3.63835,0.0337 0.73324,0.20816 2.0759,0.84383 2.46665,1.16782 0.23423,0.19421 0.22851,0.19351 -0.16389,-0.0198 -0.22362,-0.12158 -0.41907,-0.20717 -0.43434,-0.19019 -0.039,0.0433 -1.16681,1.77679 -1.27309,1.95671 -0.048,0.0813 -0.32404,0.52287 -0.61336,0.98123 -0.28931,0.45836 -0.66626,1.09669 -0.83767,1.41849 -0.17141,0.32181 -0.36332,0.64526 -0.42648,0.71877 -0.0632,0.0735 -0.11482,0.15967 -0.11482,0.19145 0,0.0519 -0.3502,0.65035 -1.71731,2.93455 -0.49682,0.8301 -1.30104,2.08618 -2.0234,3.16027 -0.27641,0.411 -0.4908,0.80413 -0.47643,0.87363 0.0297,0.14366 0.24775,0.28095 0.91514,0.57629 0.25612,0.11333 0.42757,0.20722 0.381,0.20865 -0.0466,0.001 -0.33682,-0.10501 -0.64501,-0.23652 z"
           id="path1862" /><path
           style="fill:#505050"
           d="m 233.79436,237.99173 c -0.0294,-0.0476 -0.1253,-0.0677 -0.21313,-0.0447 -0.0878,0.023 -0.18166,0.006 -0.2085,-0.0372 -0.0268,-0.0434 -0.0935,-0.071 -0.14825,-0.0611 -0.0547,0.01 -0.24378,-0.045 -0.42018,-0.12178 -0.17641,-0.0768 -0.38596,-0.15047 -0.46567,-0.16374 -0.0797,-0.0133 -0.16741,-0.0546 -0.19488,-0.0919 -0.0275,-0.0373 -0.13225,-0.0739 -0.23283,-0.0815 -0.10059,-0.008 -0.18289,-0.0356 -0.18289,-0.0622 0,-0.0855 -0.48224,-0.33643 -0.53845,-0.28023 -0.0298,0.0298 -0.0542,0.01 -0.0542,-0.0446 0,-0.0543 -0.048,-0.0988 -0.10664,-0.0988 -0.0587,0 -0.15279,-0.0739 -0.20921,-0.16426 -0.10404,-0.1666 0.057,-0.48865 1.08247,-2.16407 0.1425,-0.23284 0.54814,-0.91864 0.90142,-1.524 0.58767,-1.00702 1.24302,-2.09809 3.33101,-5.54567 1.42852,-2.3587 1.54915,-2.54569 1.59804,-2.47725 0.0271,0.0379 0.22069,0.14302 0.43024,0.23358 0.20955,0.0906 0.40005,0.18602 0.42333,0.21213 0.0233,0.0261 0.23284,0.18636 0.46567,0.35612 0.34993,0.25514 0.889,0.78183 0.889,0.86858 0,0.0225 0.70838,1.11344 0.82626,1.27251 0.23868,0.32208 0.13394,0.50335 -2.99322,5.18041 -1.70666,2.55251 -3.14599,4.68377 -3.19853,4.73614 -0.13259,0.13218 -0.71538,0.20943 -0.78085,0.1035 z m -20.20641,-2.2151 c -0.10464,-0.038 -0.30455,-0.0812 -0.44425,-0.096 -0.1397,-0.0148 -0.32053,-0.0545 -0.40185,-0.0881 -0.0813,-0.0336 -0.23959,-0.0666 -0.35171,-0.0733 -0.11212,-0.007 -0.18621,-0.0408 -0.16465,-0.0757 0.0368,-0.0597 -0.12599,-0.0963 -0.3786,-0.0853 -0.0613,0.003 -0.0893,-0.0173 -0.0622,-0.0444 0.0271,-0.0271 -0.11325,-0.13106 -0.31186,-0.23104 -0.19861,-0.1 -0.37287,-0.24256 -0.38725,-0.31684 -0.0144,-0.0743 0.20002,-0.47133 0.47643,-0.88233 0.72236,-1.07409 1.52658,-2.33017 2.0234,-3.16027 1.36711,-2.2842 1.71731,-2.88262 1.71731,-2.93455 0,-0.0318 0.0517,-0.11793 0.11482,-0.19145 0.0632,-0.0735 0.25507,-0.39696 0.42648,-0.71877 0.17141,-0.3218 0.54836,-0.96013 0.83767,-1.41849 0.28932,-0.45836 0.56533,-0.89992 0.61336,-0.98123 0.0991,-0.16782 1.23236,-1.91122 1.26963,-1.95325 0.0943,-0.10638 1.73337,1.03895 1.73337,1.21126 0,0.0562 0.0738,0.16905 0.16406,0.25071 0.0902,0.0817 0.28758,0.35228 0.43855,0.60138 0.15097,0.2491 0.30531,0.43387 0.34297,0.41059 0.0377,-0.0233 0.0434,0.0231 0.0127,0.10296 -0.0376,0.0979 -0.0238,0.12552 0.0423,0.0847 0.0661,-0.0409 0.0799,-0.0132 0.0423,0.0847 -0.032,0.0834 -0.0214,0.12403 0.025,0.0954 0.0455,-0.0281 0.0767,0.0711 0.0715,0.22758 -0.006,0.18909 -0.19599,0.56718 -0.59551,1.18682 -1.07302,1.6642 -4.14048,6.25414 -4.95414,7.41305 -1.31112,1.86744 -1.1425,1.69754 -1.66003,1.67263 -0.24731,-0.0119 -0.53526,-0.0527 -0.63989,-0.0907 z m 14.13111,-6.55628 c 0.10629,-0.39806 0.17325,-0.75613 0.14879,-0.79571 -0.0245,-0.0396 -0.009,-0.072 0.0336,-0.072 0.043,0 0.17955,-0.22605 0.30354,-0.50233 0.24494,-0.54581 0.52176,-0.9037 1.23114,-1.59173 0.41457,-0.4021 0.59855,-0.52586 0.59855,-0.40266 0,0.0238 -0.33069,0.60483 -0.73486,1.29116 -0.40418,0.68634 -0.92805,1.58014 -1.16417,1.98623 -0.23612,0.40608 -0.46993,0.75463 -0.51959,0.77454 -0.0513,0.0206 -0.007,-0.27602 0.10298,-0.68754 z"
           id="path1863" /></g><path
         d="m 163.08307,140.50941 c -3.19814,-0.41859 -5.76427,-1.46681 -7.39902,-3.02239 -0.55283,-0.52606 -0.63105,-0.69515 -0.32681,-0.70655 0.33033,-0.0124 1.59925,-0.37041 1.59327,-0.44955 -0.003,-0.0416 -0.52961,-0.0808 -1.16992,-0.0872 -1.3143,-0.013 -4.02465,-0.35744 -3.97537,-0.50527 0.0502,-0.15074 0.75747,-0.52523 1.42017,-0.75203 2.9545,-1.01113 3.13559,-1.07927 3.08515,-1.16089 -0.0234,-0.0379 -0.24276,-0.116 -0.48738,-0.17351 -0.69503,-0.1634 -0.94231,-0.33044 -1.51761,-1.02519 -1.59504,-1.92622 -2.23885,-3.95201 -2.17447,-6.84217 0.0378,-1.69567 0.0726,-1.76208 1.01014,-1.92864 0.34568,-0.0614 1.31432,-0.24885 2.15252,-0.41654 2.29127,-0.45838 2.01186,-0.48171 2.75166,0.2297 1.46627,1.40999 3.00643,2.30748 4.53114,2.64041 0.70281,0.15346 1.10908,0.18404 2.41153,0.18148 l 1.56633,-0.003 0.94038,-0.3146 c 1.1296,-0.37791 2.10335,-0.95413 2.93315,-1.7357 0.62542,-0.58907 1.41814,-1.56912 1.41814,-1.75326 0,-0.17973 0.42751,-0.62887 0.59858,-0.62887 0.14884,0 -0.16979,0.38195 0.26596,0.51235 3.18024,0.95169 2.01839,1.13577 5.61352,1.14768 0.0821,-0.14621 0.0988,-0.14636 0.3981,-0.004 0.25694,0.12253 0.37914,0.2796 0.68867,0.88519 0.37423,0.73217 0.51557,1.22479 0.60703,2.11568 0.0263,0.25652 0.0749,0.50703 0.10785,0.55669 0.033,0.0497 0.28856,0.24422 0.56796,0.43235 0.92491,0.62279 2.45208,1.04061 3.84076,1.0508 0.39281,0.003 0.80013,0.0379 0.90517,0.0779 0.10503,0.0399 0.56607,0.31705 1.02451,0.6158 0.74718,0.48691 1.74219,1.12795 4.02489,2.59306 3.01199,1.93318 4.72499,3.08821 4.72499,3.18591 0,0.1598 -2.19055,1.41806 -2.794,1.60489 -0.11642,0.036 -0.40217,0.15391 -0.635,0.26193 -0.59818,0.27752 -1.56488,0.58798 -2.86202,0.91913 -1.93037,0.49281 -4.64521,0.59344 -6.76424,0.25071 -0.42299,-0.0684 -0.78649,-0.10698 -0.80777,-0.0857 -0.0213,0.0213 0.10786,0.11626 0.287,0.21106 0.17914,0.0948 0.4144,0.24273 0.52279,0.32874 0.32424,0.25726 0.0859,0.33556 -1.46936,0.48284 -1.45507,0.13778 -2.27574,0.22947 -4.95072,0.55312 -0.81492,0.0986 -1.78647,0.21284 -2.159,0.25387 -0.37254,0.041 -1.05834,0.11708 -1.524,0.16902 -2.58957,0.28881 -3.53464,0.35022 -5.842,0.37958 -1.397,0.0178 -2.8067,-0.003 -3.13267,-0.0453 z m -11.67081,-8.38133 c -1.07207,-0.46399 -2.04088,-0.95234 -2.70806,-1.36507 -0.36458,-0.22554 -0.68359,-0.41007 -0.70892,-0.41007 -0.0732,0 -1.12371,-0.7568 -1.63388,-1.17708 -1.19316,-0.98297 -2.04729,-1.87315 -3.25742,-3.39492 -0.95346,-1.19901 -1.56858,-2.06195 -1.56858,-2.20053 0,-0.12141 0.22009,-0.0968 1.94734,0.2175 0.62865,0.1144 1.61559,0.26336 2.19322,0.33102 1.19758,0.14028 1.36913,0.23548 1.52261,0.84503 0.13794,0.54782 0.95596,2.32215 1.41486,3.06891 0.72234,1.17545 2.45385,3.32969 3.13178,3.89636 0.3487,0.29149 0.4596,0.44982 0.31003,0.44267 -0.0349,-0.002 -0.32427,-0.11589 -0.64298,-0.25382 z"
         style="fill:#f9f9f9"
         id="path1-6"
         inkscape:label="facefront"
         sodipodi:nodetypes="csccccscsscssssccsssssccsccsccssscssssscssccccccsscssssssscc" /><path
         style="display:inline;fill:#151414"
         d="m 176.44833,128.76016 c -1.02971,-1.26884 -1.05521,-2.36567 -2.67753,-0.64701 -2.07438,1.19551 -3.26911,0.78365 -4.80271,-0.3396 -3.16068,0.22898 2.3364,-1.63038 0.85439,-0.18502 1.08338,2.46521 4.04557,-0.10766 5.68916,-0.95301 1.05191,-2.02813 -2.59517,-3.33188 -3.08848,-4.66894 -1.24091,1.59632 -2.6296,3.5606 -4.86818,4.07893 -3.71023,1.32408 -8.3278,-0.34911 -10.35068,-3.72138 -1.08164,-1.31489 -0.12223,-5.91365 -2.43429,-2.96215 -1.17028,0.979 -3.22045,3.11818 -4.31142,2.69326 0.60822,-1.35434 1.8512,-4.29052 2.20055,-4.66824 -0.13312,1.01627 -2.16305,3.98811 -1.44266,4.0187 3.03053,-2.00147 5.37084,-4.83388 7.28846,-7.87786 2.19505,-2.66254 6.3573,-3.5721 9.45386,-1.93994 0.83179,-0.77549 -1.13738,-5.69659 0.26616,-5.15543 1.06932,2.14496 -0.12344,5.20778 1.88803,6.71383 1.98082,1.85569 2.48714,4.65066 2.46582,7.24553 1.64557,-1.44645 4.7551,1.65311 4.26675,-1.41065 -0.1321,-2.87554 4.4123,-3.41612 3.63411,-6.00005 -0.3667,-1.57741 0.40443,-2.1023 0.52007,-0.17923 0.19319,2.50763 3.55799,-0.14866 5.28092,1.09512 2.39919,0.53163 4.27226,2.41761 5.23865,4.5511 0.24257,-3.15108 1.27156,3.12463 0.70115,3.76559 2.11425,-0.58005 1.6238,-3.81635 1.97826,-4.63526 1.94387,1.93648 1.0351,5.1375 -0.41678,7.10014 -0.78854,1.24251 -2.29199,2.59013 -1.43632,0.18842 0.67556,-2.88384 -2.21605,1.81731 -3.21253,2.22656 -2.44992,2.1245 -6.44206,2.19327 -8.87084,0.0369 -0.16316,-1.20237 2.40398,1.36323 3.60306,0.94688 4.51393,0.6022 8.7316,-4.24214 7.24783,-8.6158 -0.70737,-3.27332 -4.00409,-5.36474 -7.24574,-5.159 -3.43767,0.0857 -6.93851,2.9304 -6.62673,6.59861 -0.28691,1.85277 2.36563,2.4223 0.0464,3.80117 -2.99018,0.60232 -0.4492,5.20175 1.55782,4.37048 0.70236,-2.04533 2.49549,1.02307 0.47105,0.21838 -0.72174,0.20824 -1.89235,0.65749 -2.40405,-0.19981 z m -9.74914,-2.97114 c 2.31424,-0.58583 4.5196,-2.29716 5.05017,-4.60718 1.06645,-3.53286 -0.69723,-7.88463 -4.26005,-9.19263 -3.15426,-1.46078 -7.20055,-0.31809 -9.07132,2.62345 -2.42874,2.97893 -1.74768,8.26116 1.88596,10.00906 1.80276,1.42998 4.22654,1.29685 6.39524,1.1673 z m 10.0829,-3.91556 c 0.0643,-1.95852 -4.47987,-1.90866 -4.30806,-0.50666 1.45328,-0.16493 3.2022,0.35131 4.30806,0.50673 z m -34.10663,-4.5085 c -2.66505,-4.15541 -3.0689,-9.60553 -0.88265,-14.0578 3.51367,-8.334118 9.98024,-15.046432 17.17434,-20.349762 1.73405,-0.881686 0.97487,2.397907 1.35886,4.057518 0.63892,4.307898 2.03013,8.558266 1.92387,12.943037 -2.49159,1.914597 -0.47923,-2.65126 -0.86601,-3.949089 -0.25145,-4.259871 -1.67471,-8.372755 -1.89416,-12.643347 -3.22285,2.184266 -6.22971,4.874378 -8.53282,8.045005 -2.63531,3.735569 -4.04018,8.404571 -3.28533,12.965958 0.41984,2.27276 0.32946,4.62796 -1.62176,6.18709 0.91442,-0.25284 2.07624,-0.65517 1.28624,1.06122 0.22086,1.2846 -4.28253,3.15062 -2.00123,2.90514 -0.75143,0.8623 -1.65805,2.7131 -2.65935,2.83503 z m 44.51306,-11.07458 c -2.5155,-2.32931 -6.05917,-2.5052 -9.29403,-2.37165 -3.57589,0.36622 0.79315,-1.21021 1.86879,-1.82552 0.96404,-0.36936 3.72664,-1.73551 1.01947,-1.06979 -2.35272,0.33773 -4.57809,1.24083 -6.46179,2.68912 -1.3644,-1.12835 -3.40578,-2.75784 -0.79321,-3.83392 6.15537,-4.916879 13.16116,-8.710842 20.45768,-11.622338 -1.61453,5.61616 -3.25404,11.257513 -5.39198,16.705968 -0.31788,0.44609 -0.57959,2.23852 -1.40493,1.32813 z"
         id="path1845"
         sodipodi:nodetypes="cccccccccccccccccccccccccccccccccccccccccccsccscccccccccccccccccccccc" /></g></g></svg>
