<?xml version="1.0" encoding="UTF-8" standalone="no"?>
<!-- Created with Inkscape (http://www.inkscape.org/) -->

<svg
   width="652.34833mm"
   height="534.74304mm"
   viewBox="0 0 652.34833 534.74304"
   version="1.1"
   id="svg1"
   xml:space="preserve"
   inkscape:version="1.3.2 (091e20ef0f, 2023-11-25, custom)"
   sodipodi:docname="xenia-linux-dirty.svg"
   inkscape:export-filename="xenia-linux-dirty.png"
   inkscape:export-xdpi="46.723503"
   inkscape:export-ydpi="46.723503"
   xmlns:inkscape="http://www.inkscape.org/namespaces/inkscape"
   xmlns:sodipodi="http://sodipodi.sourceforge.net/DTD/sodipodi-0.dtd"
   xmlns:xlink="http://www.w3.org/1999/xlink"
   xmlns="http://www.w3.org/2000/svg"
   xmlns:svg="http://www.w3.org/2000/svg"
   xmlns:rdf="http://www.w3.org/1999/02/22-rdf-syntax-ns#"
   xmlns:cc="http://creativecommons.org/ns#"
   xmlns:dc="http://purl.org/dc/elements/1.1/"><title
     id="title27">Xenia Linux Dirty Art 1</title><sodipodi:namedview
     id="namedview1"
     pagecolor="#5d5d5d"
     bordercolor="#eeeeee"
     borderopacity="1"
     inkscape:showpageshadow="0"
     inkscape:pageopacity="0"
     inkscape:pagecheckerboard="0"
     inkscape:deskcolor="#505050"
     inkscape:document-units="mm"
     inkscape:zoom="0.11746281"
     inkscape:cx="1485.5765"
     inkscape:cy="1008.8299"
     inkscape:window-width="1366"
     inkscape:window-height="648"
     inkscape:window-x="0"
     inkscape:window-y="0"
     inkscape:window-maximized="1"
     inkscape:current-layer="layer2" /><defs
     id="defs1"><linearGradient
       id="linearGradient26"
       inkscape:collect="always"><stop
         style="stop-color:#00a8ff;stop-opacity:1;"
         offset="0"
         id="stop26" /><stop
         style="stop-color:#22a7da;stop-opacity:0;"
         offset="1"
         id="stop27" /></linearGradient><linearGradient
       inkscape:collect="always"
       xlink:href="#linearGradient26"
       id="linearGradient27"
       x1="337.59134"
       y1="89.536316"
       x2="359.83463"
       y2="101.92498"
       gradientUnits="userSpaceOnUse" /></defs><g
     inkscape:groupmode="layer"
     id="layer2"
     inkscape:label="main"><path
       style="opacity:1;fill:#f9f9f9;fill-opacity:1;stroke-width:0.264583"
       d="m 447.164,400.97432 -17.12203,-45.39332 -15.1311,-29.86402 -8.36194,-15.5293 -0.79637,-8.36192 7.96375,0.79637 11.54742,-0.79637 -6.37098,-11.54742 22.29847,-7.96375 14.7329,-1.99093 -31.05859,-9.95469 -18.3166,-9.15829 -11.94559,-6.37099 -19.90937,-13.14017 -19.11297,-16.32567 -29.86402,-24.6876 -12.90299,-3.87529 -15.20428,-6.19434 -18.0199,-10.41775 -7.03903,-2.53405 -9.57305,3.6603 h -7.03902 l -9.00994,5.06809 -10.69931,7.60214 0.28156,15.7674 7.60214,17.45677 8.16526,10.98086 16.89363,14.07804 14.07806,9.57307 12.95177,6.75745 20.27238,9.57307 24.21424,12.38867 20.27238,17.45676 8.44682,9.57307 9.00994,14.07803 6.75745,10.69933 11.26242,21.96174 5.63123,11.26241 c 0,0 35.00466,23.71476 45.09526,25.3723 z"
       id="path24" /><path
       style="fill:#cb8c3d;stroke-width:0.264583;fill-opacity:1"
       d="m 351.92795,144.59746 15.99978,-5.54312 0.31461,23.9098 2.51683,13.68521 5.03361,-4.08983 3.46065,-12.7414 3.77523,-5.66285 14.62903,12.2695 3.46061,11.9549 3.30333,-13.05601 3.77523,-11.16839 3.77523,-3.30333 2.98874,5.97745 0.7865,10.38189 -1.73033,11.95489 -3.30332,14.94363 5.03365,-2.04492 5.97744,-3.46063 1.94577,19.50486 8.45338,16.35063 4.11549,-12.23517 1.33475,11.90149 -8.45622,46.11755 -7.23588,22.33679 10.6965,-9.43806 6.60664,-17.30314 2.83144,-7.23587 0.9438,13.5279 -4.08983,18.24696 -9.75267,27.68502 -9.12349,10.38188 -8.17965,7.23588 -12.58411,5.34824 -9.43809,3.46061 -8.49426,0.94383 -9.75267,-0.62921 -9.43809,-2.51682 -3.77523,-1.88762 4.71903,6.60665 4.71905,5.03364 6.92126,3.46065 12.89871,3.77523 18.24693,1.88762 9.71352,0.32985 13.34746,-2.00213 10.45549,-5.11651 10.45551,-7.78602 7.78602,-9.34321 6.22883,-11.79026 7.3411,-19.13136 5.33897,-10.45551 8.00846,-8.89831 10.23305,-5.56143 8.45342,-6.89618 7.56353,-8.23095 3.7818,-8.8983 1.5572,-10.90042 -1.5572,-11.5678 -4.00423,-11.12288 -8.89831,-22.46822 -2.22459,-9.56568 -4.22669,-8.67584 -6.00636,-8.89831 -8.23092,-5.56144 -5.33898,-2.22458 -25.36018,-13.56991 12.23518,-16.68432 21.13346,-15.7945 -9.78812,-6.45127 -15.3496,-6.00635 -27.79421,-6.58992 -23.90979,-2.516817 -18.56155,-1.258411 -13.84252,3.146028 -5.34824,3.77523 -8.49426,8.17967 -2.20223,6.92126 0.31461,5.34824 -0.94382,8.17967 -3.77523,5.97744 -10.6965,7.23587 z"
       id="path2" /><path
       style="fill:#9f722f;stroke-width:0.264583;fill-opacity:1"
       d="m 541.43105,197.57043 1.88762,7.23586 2.83144,13.21331 1.25841,17.61774 v 15.41553 l -1.25841,16.04472 -3.46065,9.7527 -6.29206,8.17967 -5.03361,5.03362 -8.17968,7.23588 -11.64029,7.86505 -7.86508,7.86506 -7.55047,12.8987 -3.77521,11.3257 -5.03364,19.81997 -0.31462,8.80887 0.94383,13.52791 -9.43809,-4.08982 -11.01108,-8.17967 -6.60668,-9.43809 -1.573,-8.49426 -0.94382,-12.2695 6.29206,-11.3257 5.03364,-14.78632 4.40444,-12.26949 5.34824,-6.29206 8.49429,-8.17967 7.55044,-2.83141 10.3819,-9.43809 7.55044,-10.38189 2.83144,-12.8987 -1.88762,-11.9549 -5.34823,-17.61775 z"
       id="path3" /><path
       style="fill:#c99548;stroke-width:0.264583;fill-opacity:1"
       d="m 345.74824,324.66986 9.12349,1.10112 17.93235,-0.9438 -5.34826,-9.12349 -6.29203,-5.97744 -7.55047,7.23585 -9.91,6.29205 z"
       id="path4" /><path
       style="fill:#e8522d;stroke-width:0.264583;fill-opacity:1"
       d="m 406.46654,302.64769 0.47191,8.17967 10.06729,19.19076 7.70776,-6.29205 5.66285,-8.49427 1.25841,-5.50555 4.87633,-10.85379 4.62237,-14.90531 -8.45338,-0.66735 -6.78495,7.786 -4.56039,3.55933 3.78177,6.67372 -4.67161,1.5572 c 0,0 -13.60821,-0.34549 -13.97836,-0.22836 z"
       id="path5" /><path
       style="fill:#e8522d;fill-opacity:1;stroke-width:0.264583"
       d="m 436.983,273.23235 3.93253,-8.80887 2.20223,10.06728 z"
       id="path6" /><path
       style="fill:#e8522d;fill-opacity:1;stroke-width:0.264583"
       d="m 431.5678,357.93431 17.57415,48.27331 10.01059,4.89407 9.12077,6.89618 19.79872,19.35382 3.11441,-8.45338 7.3411,-13.34746 10.67797,-15.79449 12.68008,-14.23731 -6.00636,-5.7839 -6.67372,-14.45974 -8.67587,-18.68643 -6.00633,-14.90467 -4.22669,13.34746 -2.66952,10.67797 -0.66735,10.01059 0.66735,13.125 -5.78389,-2.00212 -8.89831,-5.56144 -7.11864,-7.11864 -4.44916,-4.89408 -2.22456,-7.11864 -0.44492,-15.34956 -5.7839,6.67371 -6.67372,6.45129 -7.11864,4.67161 z"
       id="path7" /><path
       style="fill:#e8522d;fill-opacity:1;stroke-width:0.264583"
       d="m 428.17412,270.24361 -19.81997,-7.55045 -23.28058,-14.15711 -16.04473,-11.3257 -24.53902,-21.70758 -21.70755,-14.78632 h 14.78632 11.01108 l 5.66285,-0.6292 6.92127,-3.14603 7.55044,-9.43808 7.86508,-13.52791 1.573,-11.01109 4.08982,-8.49427 5.34827,3.14603 8.17967,7.55046 2.51682,3.46063 3.146,11.01109 3.14603,-16.35934 2.83144,-7.70776 4.24712,-4.24713 2.98873,3.46062 1.41571,5.82015 -0.1573,6.44935 -1.573,10.22459 -3.14603,16.51664 5.34824,-2.20222 5.82014,-2.67412 0.1573,8.33696 0.78652,6.76396 4.24712,12.7414 4.4831,7.23586 1.33705,-3.77523 2.59548,-7.86506 2.32019,9.71335 -4.93327,29.30702 z"
       id="path8" /><path
       style="fill:#f9f9f9;fill-opacity:1;stroke-width:0.264583"
       d="m 361.63567,208.26691 14.94364,-17.46044 7.55044,1.57301 18.08967,12.89871 18.40423,13.68521 -4.40441,4.71904 -5.97747,2.35952 -10.53917,-0.3146 -12.58412,-1.73032 -9.28076,-3.30332 -8.49429,-5.19095 z"
       id="path9" /><path
       style="fill:#241c1c;fill-opacity:1;stroke-width:0.264583"
       d="m 236.36123,193.64936 9.6769,-7.45233 11.23411,-4.89407 6.45127,-1.00105 10.90044,-2.11335 -31.92268,-13.01377 -8.56462,-4.2267 0.11123,9.45445 0.11123,15.90572 z"
       id="path10" /><path
       style="fill:#cccccc;fill-opacity:1;stroke-width:0.264583"
       d="m 324.19798,199.45804 5.50553,-1.57301 5.34826,-11.9549 1.73029,-18.87616 -1.25841,-3.93253 -3.61791,0.31461 -8.80888,9.90998 -7.07856,16.35933 -1.57302,7.55046 z"
       id="path11" /><path
       style="fill:#cccccc;fill-opacity:1;stroke-width:0.264583;opacity:0.64430894"
       d="m 347.0339,201.76906 -4.00423,13.34746 0.88982,15.34958 4.22669,10.45551 5.11654,4.89407 8.45338,1.77966 12.23516,-2.6695 8.23095,-6.22881 6.67371,-11.5678 1.77967,-14.6822 -0.22246,-22.91313 -6.45128,-15.34958 -7.56354,-1.11229 -9.12077,4.44916 -8.23092,7.3411 -7.11867,8.00847 z"
       id="path12" /><path
       style="opacity:1;fill:#040914;fill-opacity:1;stroke-width:0.263597"
       d="m 500.26148,190.48948 2.50745,14.41781 6.26862,13.63423 34.32062,-23.82073 13.94767,-12.69393 6.26862,-9.08949 6.89547,-15.98496 3.13431,-14.10438 0.31342,-21.6267 -0.94028,-15.67153 0.31341,-17.865545 0.31345,-10.65664 -15.04468,5.328319 -16.29838,5.01489 -17.23867,7.522333 -12.85065,7.522333 -14.41782,8.1492 -11.91037,7.52233 -10.65662,7.52233 -11.59695,10.34321 -8.77604,10.65665 -5.01489,7.2089 21.62671,15.04466 14.10437,-9.40292 18.17896,-18.17897 18.4924,-20.99985 10.02979,-8.46262 9.08948,-8.1492 7.52234,-4.074593 6.58203,-2.507444 6.58207,0.626859 -0.94032,10.343208 v 14.73124 11.59693 l -2.82086,10.97007 -6.89547,11.2835 -9.71634,7.52233 -16.92527,10.02978 -15.67151,7.52234 -7.52234,4.70146 z"
       id="path13" /><path
       style="opacity:1;fill:#040914;fill-opacity:1;stroke-width:0.264583"
       d="m 483.54419,119.23438 14.4717,-8.49427 15.41552,-9.43808 17.30317,-10.067279 1.25841,-22.651386 -1.25841,-23.280592 -4.71905,-22.965989 -6.29206,-16.0447323 -3.14603,-4.0898336 -11.32567,4.4044364 -17.93235,12.8987065 -7.86508,7.235859 -12.2695,14.786322 -5.97744,9.438079 -8.49426,20.134563 -4.40444,14.786322 -1.25841,12.898707 -0.62921,6.292047 12.8987,3.14603 14.78632,5.03364 z"
       id="path14" /><path
       style="opacity:1;fill:#9f722f;fill-opacity:1;stroke-width:0.264583"
       d="m 444.91526,104.11017 -9.78816,-1.77966 -0.88982,-4.004241 -4.44915,-10.233051 7.3411,4.67161 7.336,7.387132 z"
       id="path15" /><path
       style="opacity:1;fill:#9f722f;fill-opacity:1;stroke-width:0.264583"
       d="m 518.43365,335.80363 1.74556,11.34618 5.8913,9.81882 11.3462,12.65537 10.9098,12.43716 9.81882,17.0193 7.63686,18.11027 1.96376,-11.78258 -3.27295,-19.85584 -6.76407,-13.09177 -7.20045,-8.50963 -12.65539,-10.90981 -13.30994,-12.87356 z"
       id="path16" /><path
       style="opacity:1;fill:#c99548;fill-opacity:1;stroke-width:0.264583"
       d="m 525.41593,295.43737 10.9098,-9.16424 5.67309,6.54587 10.03702,6.98228 15.71011,8.72783 11.78259,6.5459 14.40092,7.85506 13.96455,7.85505 8.72784,6.54587 10.9098,11.78259 7.85506,12.21896 8.72783,18.76486 4.80031,15.71011 1.74556,14.83733 -0.87278,15.27373 -4.3639,17.89205 -8.29146,17.4557 -9.16421,13.09174 2.18193,-18.76485 0.43641,-18.32846 -2.18197,-23.56517 -6.10949,-22.25598 -9.16422,-12.21899 -13.96454,-14.40092 -21.38321,-13.52815 -20.94682,-13.96455 -17.89208,-17.01929 -10.9098,-17.45568 z"
       id="path17" /><path
       style="opacity:1;fill:#dcb27d;fill-opacity:1;stroke-width:0.264583"
       d="m 525.50446,295.15268 -18.05168,14.50306 4.32004,11.88016 6.44263,10.99478 5.89129,6.98228 10.47343,10.9098 13.52814,11.56438 8.50964,9.16422 6.10949,10.9098 3.49115,10.25522 1.30916,12.43717 -0.65458,13.74634 -4.36393,12.21899 -4.36391,7.41865 -7.20047,7.41868 -10.2552,5.45489 -11.56441,2.40017 -13.52814,0.87278 -13.96455,-0.87278 -30.59174,-3.50788 -25.76605,-4.47434 -19.90314,-4.47434 -40.26914,-14.50306 -13.57733,-4.32006 -12.65161,-5.86295 -11.4173,-6.48007 -19.13167,-9.56586 -21.32283,-9.21551 -21.6014,-6.98228 -16.58289,-4.3639 -17.23749,-3.92753 -17.01929,-1.96376 -19.85583,0.2182 -21.84503,2.16588 -20.05742,4.32006 -12.6516,4.62862 -15.73736,7.40582 -18.51455,14.1945 -11.10872,11.4173 -18.20597,20.36598 -9.874422,13.88592 7.714393,-2.16003 29.623269,-9.87444 35.79478,-6.78865 28.38897,-0.30858 58.93796,3.08575 20.98314,2.7772 20.98316,5.55435 20.67456,10.49157 30.54901,15.73737 59.15784,24.41834 15.92829,8.29143 25.74713,14.83733 18.32845,8.29146 23.56517,6.1095 h 15.27374 l 18.32845,-1.74559 19.63764,-2.61835 19.63764,-3.92752 19.20123,-2.18197 18.76486,-5.23669 13.96455,-8.29146 10.03702,-10.9098 6.54587,-13.96455 4.36394,-17.89205 1.74556,-20.94682 -0.43641,-20.51042 -4.8003,-24.87436 -8.72784,-17.89205 -15.27371,-14.40095 -18.76486,-12.65536 -21.8196,-14.83733 -15.27371,-13.09175 -11.78258,-13.09176 -6.5459,-13.09177 z"
       id="path18" /><path
       style="opacity:1;fill:#c99548;fill-opacity:1;stroke-width:0.264583"
       d="m 510.5786,452.53846 -39.71166,-20.51042 -47.56674,-20.9468 -36.65691,-13.09177 -17.01929,-4.3639 -17.89208,-3.05475 -19.9177,-2.06473 -19.1752,-0.8337 -8.7539,1.6674 25.42799,10.83816 29.17963,15.42351 16.67409,7.50335 20.00891,6.25279 21.25942,7.92017 17.71624,5.41909 23.96897,4.7938 21.88475,3.33481 27.30381,3.75166 z"
       id="path19" /><path
       style="opacity:1;fill:#c99548;fill-opacity:1;stroke-width:0.264583"
       d="m 336.81643,469.79223 -9.5876,1.6674 -14.58981,1.25058 -25.42797,6.66962 -35.01557,11.255 -35.01557,10.83816 -20.42575,6.25279 -19.59205,2.08425 h -26.26167 l -18.3415,-2.91795 -32.04616,-8.74954 -20.63312,-7.9585 -17.685533,-8.84275 -15.916981,-11.79036 -11.495596,-14.44318 27.707336,2.65282 24.17023,0.58952 22.696434,-2.9476 31.83396,-8.548 27.11782,-9.43228 5.30566,-4.12663 60.13081,2.65282 27.70734,1.76855 25.64402,6.4847 16.50651,8.25325 z"
       id="path20" /><path
       style="opacity:1;fill:#9f722f;fill-opacity:1;stroke-width:0.264583"
       d="m 435.61036,516.47965 -15.42351,2.50113 -42.51891,3.75166 -33.34816,1.66741 -24.59427,-1.25056 -30.84705,-8.33704 -27.92909,-10.42131 -17.50779,-10.62971 38.05318,-13.00946 35.37106,-8.84277 20.04361,-2.35807 15.33054,7.32779 27.92907,10.00445 22.09316,9.17075 22.51001,12.08871 z"
       id="path21" /><path
       style="opacity:1;fill:#9f722f;fill-opacity:1;stroke-width:0.264583"
       d="m 93.73333,440.3698 12.37987,-12.9694 16.80126,-18.27504 -15.62222,-4.4214 -38.318657,-5.01089 -25.349266,-2.35807 -23.580712,2.35807 -12.9693916,4.12663 11.7903556,1.76855 22.401675,4.1266 15.916982,4.71615 17.096017,11.20084 z"
       id="path22" /><path
       style="opacity:1;fill:#9f722f;fill-opacity:1;stroke-width:0.264583"
       d="m 102.33717,447.49066 23.49185,3.7578 23.40401,-6.25891 23.13528,-10.4213 -14.38139,-0.41685 -16.88251,3.33481 -27.92908,7.08649 z"
       id="path23"
       sodipodi:nodetypes="cccccccc" /><path
       style="opacity:1;fill:#f9f9f9;fill-opacity:1;stroke-width:0.264583"
       d="m 499.3265,189.53702 9.95469,-6.76918 12.34379,-7.16737 16.72386,-8.36192 14.73293,-11.14924 7.16735,-13.53836 1.19456,-17.12204 -0.39817,-23.09485 0.79637,-5.176429 h -8.36194 l -13.14016,6.370989 -7.96375,7.96374 -9.55649,8.36193 -11.54742,11.94561 -11.54742,13.93655 -11.94562,11.94561 -10.35285,8.76011 6.76917,3.98187 5.17645,3.98187 6.37098,11.14924 z"
       id="path25" /><path
       style="opacity:1;fill:url(#linearGradient27);fill-opacity:1;stroke-width:0.264583"
       d="m 352.7956,108.11932 3.6603,-10.417745 0.28157,-8.165261 -1.97094,-2.252485 -4.78652,5.068093 -4.50498,-3.941849 -3.6603,0.56312 -2.25248,5.631215 1.12625,5.912772 3.94184,4.22341 4.50499,2.53405 z"
       id="path26" /></g><g
     inkscape:label="daft"
     inkscape:groupmode="layer"
     id="layer1"
     transform="translate(225.52715,103.87969)"
     style="display:inline"><path
       style="display:inline;fill:#000000;stroke-width:0.316798"
       d="m 261.55313,430.79119 c -0.46586,-0.049 -2.59993,-0.3302 -4.74234,-0.62476 -13.42057,-1.84515 -24.41646,-5.44147 -39.37435,-12.87776 -4.47524,-2.22484 -4.96647,-2.34443 -6.44807,-1.5697 -0.8161,0.42669 -1.31259,0.47855 -5.86776,0.61284 -2.73691,0.0807 -5.54795,0.2471 -6.24675,0.36983 -0.69879,0.12273 -3.12866,0.37008 -5.39975,0.54968 -3.8841,0.30716 -8.62403,0.84144 -15.98742,1.8021 -1.74698,0.22794 -6.13029,0.6578 -9.74071,0.95527 -6.37558,0.52529 -10.11554,0.84237 -17.57562,1.49016 -8.2427,0.71577 -32.60274,1.6788 -38.15215,1.5083 -4.39183,-0.13492 -10.99028,-0.60866 -13.685848,-0.98258 -4.62408,-0.64142 -15.70408,-3.0928 -22.50858,-4.97987 -6.14223,-1.70342 -22.211,-7.13915 -28.46012,-9.62746 -6.56152,-2.61272 -10.75826,-4.52955 -19.48139,-8.89798 -4.16505,-2.08581 -6.8975,-3.58038 -7.27531,-3.97939 -0.51838,-0.54747 -0.59201,-0.77043 -0.51402,-1.55659 0.0501,-0.50467 0.13176,-1.06052 0.18154,-1.23522 0.0738,-0.25893 -0.14426,-0.31306 -1.18001,-0.29293 -1.27791,0.0248 -7.56859,1.98642 -24.0341095,7.49435 -19.3941305,6.48759 -31.4338705,8.87538 -48.1964105,9.55855 -14.1954,0.57855 -26.88729,-0.65838 -42.96381,-4.18718 -14.765072,-3.24094 -17.899492,-4.11193 -29.635212,-8.23498 -20.26718,-7.12038 -36.36276,-14.9585 -46.70221,-22.74274 -1.33935,-1.00835 -3.1022,-2.29857 -3.91746,-2.86716 -0.81525,-0.56858 -2.09029,-1.51793 -2.83343,-2.10966 -1.68828,-1.3443 -6.2028,-6.37002 -7.52521,-8.37733 -0.54581,-0.82849 -1.46386,-2.02695 -2.04008,-2.66324 -1.15141,-1.27142 -1.30733,-1.94179 -0.71717,-3.08305 0.18178,-0.35151 0.29535,-0.74447 0.25242,-0.87325 -0.0429,-0.12878 -0.64192,-0.5273 -1.33112,-0.8856 -0.68922,-0.3583 -1.38922,-0.89628 -1.55554,-1.19552 -0.65476,-1.17786 0.32735,-2.31462 1.99972,-2.31462 0.4267,0 2.17045,0.23507 3.87504,0.52238 5.32442,0.89744 19.88909,2.65112 25.86282,3.11406 1.9301,0.14957 6.95337,0.27259 11.22298,0.27484 8.0865,0.004 9.00853,-0.0881 8.85465,-0.88712 -0.0699,-0.36302 -0.25223,-0.47455 -2.1342,-1.30549 -0.73138,-0.32292 -1.10613,-0.64988 -1.36351,-1.18961 -0.34,-0.71298 -0.3368,-0.76871 0.076,-1.32488 0.26979,-0.3635 0.74003,-0.64763 1.25763,-0.75991 1.78387,-0.38693 2.11272,-0.66505 4.34681,-3.67623 4.28141,-5.77063 4.45998,-6.23129 2.77961,-7.17079 -1.99222,-1.11385 -6.56521,-4.27583 -10.31324,-7.13104 -3.94479,-3.00511 -9.81439,-7.2873 -13.94925,-10.17675 -2.71085,-1.89434 -8.15622,-4.96487 -11.25929,-6.34886 -7.23905,-3.22866 -23.90779,-7.20216 -34.83357,-8.30362 -8.17012,-0.82367 -15.61196,-2.11802 -17.07011,-2.969 -1.63439,-0.95382 -3.00809,-2.98147 -2.74097,-4.04579 0.17934,-0.71454 1.02218,-1.20484 1.78367,-1.03759 0.34328,0.0754 1.08535,0.46498 1.64903,0.86573 1.2911,0.91797 1.83612,0.91807 3.98202,6.4e-4 4.14862,-1.77339 14.62959,-4.52591 18.9771,-4.98378 2.58757,-0.27252 17.88121,-0.27372 24.54713,-0.002 5.30738,0.21639 12.54877,0.68426 16.51683,1.06715 7.86628,0.75905 25.92472,3.37351 35.57472,5.15043 3.43571,0.63265 7.78952,1.353 9.67512,1.60079 3.43186,0.45099 5.4315,0.88767 7.77482,1.69786 1.34693,0.46569 2.54287,0.54955 3.36728,0.23611 0.284,-0.10798 1.60043,-1.12616 2.925402,-2.26263 5.21655,-4.4744 16.09802,-12.12236 21.46861,-15.08906 2.97118,-1.64126 9.99647,-4.86141 14.50348,-6.64788 6.35555,-2.51919 12.48385,-4.28624 20.6827,-5.96373 8.63108,-1.76592 13.14804,-2.33283 25.69149,-3.2245 6.31394,-0.44883 23.3117605,-0.5133 28.05744,-0.10642 18.63932,1.59808 36.75881,5.63113 60.21337,13.40234 2.83651,0.93982 5.49429,1.71831 5.90619,1.72999 0.60971,0.0173 0.87126,-0.12016 1.40712,-0.73938 1.17263,-1.35507 1.06764,-1.33849 8.0696,-1.2745 13.439128,0.12282 21.918348,0.63688 32.398398,1.96417 11.96114,1.51486 13.71547,1.82831 26.99868,4.82382 7.28087,1.64193 9.32431,2.16182 13.55226,3.44798 5.55726,1.69053 7.94152,2.47409 11.223,3.68832 1.68872,0.62488 4.59506,1.67343 6.45849,2.33011 9.21236,3.24646 31.4987,11.86954 37.05701,14.33817 5.60143,2.48779 15.59168,7.13254 22.76357,10.58345 16.64892,8.01097 19.90491,9.43239 19.90491,8.68957 0,-0.45365 -1.3833,-2.04373 -5.30206,-6.09465 -7.91883,-8.1859 -8.99566,-9.18145 -13.83794,-12.79342 -2.52061,-1.88017 -5.25999,-3.85649 -6.08753,-4.39181 -1.94716,-1.25961 -5.37171,-2.86674 -7.37261,-3.45995 -1.74818,-0.51828 -2.21036,-0.90144 -3.85505,-3.19591 -1.96874,-2.74656 -6.68921,-6.01915 -21.35372,-14.80397 -3.43573,-2.05817 -8.12564,-4.99108 -10.42208,-6.51758 -2.37962,-1.5818 -5.29388,-3.31324 -6.77614,-4.02588 -1.43044,-0.68774 -3.12489,-1.58468 -3.76546,-1.9932 -0.64056,-0.40853 -1.59346,-0.93474 -2.11754,-1.16935 -1.40411,-0.62855 -1.89977,-1.30396 -3.61675,-4.92846 -3.63941,-7.68263 -4.76283,-9.55304 -6.18542,-10.29799 -0.32493,-0.17018 -1.94488,-0.54684 -3.5998,-0.83704 -3.87963,-0.68031 -4.57465,-0.86373 -10.52627,-2.77788 -10.89312,-3.50345 -13.0956,-5.18812 -21.86364,-16.72357 -0.75765,-0.99679 -0.78518,-2.11646 -0.071,-2.88709 1.03859,-1.12068 2.2728,-1.0174 4.51475,0.3778 5.83126,3.6289 10.6961,5.02854 17.38465,5.00163 4.67337,-0.0188 5.23626,-0.3775 4.07424,-2.59628 -2.22994,-4.25789 -8.07885,-13.37707 -9.09,-14.17244 -0.47659,-0.37489 -0.76751,-0.39962 -3.39953,-0.28907 -1.5831,0.0665 -5.16532,0.31868 -7.96046,0.56042 -6.21009,0.53706 -9.23766,0.45466 -13.0118,-0.35414 -6.9182,-1.48259 -8.06041,-2.37935 -6.62842,-5.20408 0.53709,-1.05943 0.72217,-1.22042 2.38225,-2.07202 4.81973,-2.4725 8.29557,-4.85562 11.06644,-7.58743 1.66294,-1.63948 2.27407,-2.48271 2.27407,-3.13772 0,-0.7717 -0.78261,-1.67439 -4.16772,-4.80717 -8.6482,-8.00357 -14.62678,-12.6942 -20.71341,-16.25113 -4.39557,-2.56872 -13.852078,-7.22071 -20.222538,-9.94819 -7.18263,-3.07521 -12.21585,-5.44535 -19.48138,-9.17376 -13.54497,-6.9508 -15.63064,-8.32494 -28.81827,-18.98684 -14.19875,-11.47936 -16.11186,-13.36874 -20.09698,-19.84769 -3.05162,-4.96127 -6.25166,-9.69354 -6.95533,-10.28564 -0.36899,-0.31048 -1.14169,-0.82076 -1.71713,-1.13395 -1.6581795,-0.90249 -1.6557495,-0.89088 -1.9102395,-9.13346 -0.25545,-8.27339 -0.49786,-11.82963 -0.94969,-13.93247 -0.17517,-0.81525 -0.32248,-2.05401 -0.32735,-2.7528 -0.005,-0.69879 -0.0976,-1.65452 -0.20602,-2.12384 -0.20048,-0.86769 -1.02247,-7.25639 -1.21769,-9.46424 -0.0929,-1.0505 -0.0262,-1.36106 0.5002,-2.32929 l 0.60738,-1.11719 0.10588,-6.77613 c 0.0957,-6.12439 0.14334,-6.83136 0.49539,-7.35021 0.69484,-1.02406 1.70244,-1.02406 2.39729,0 0.3596095,0.53 0.3998595,1.34628 0.5243495,10.6324 0.11881,8.8632 0.35018,13.85243 0.71437,15.40512 0.24017,1.02396 0.88859,0.67567 6.36469,-3.41871 4.46488,-3.33831 7.97908,-5.37782 12.41432,-7.20479 2.50903,-1.03352 3.32146,-1.01761 4.40345,0.0862 0.94634,0.96545 0.69685,0.99244 3.81402,-0.41259 1.22288,-0.5512 2.72369,-1.22368 3.33513,-1.4944 1.9445,-0.86094 1.57653,-1.19613 -2.41724,-2.20188 -4.05056,-1.02005 -7.24289,-2.18151 -14.19981,-5.16626 -3.23502,-1.38792 -6.69181,-2.78929 -7.68176,-3.11414 -3.53759,-1.16086 -4.44684,-1.75171 -4.44684,-2.8896 0,-0.89069 0.79648,-1.3219 2.17744,-1.17885 1.42732,0.14786 5.57236,1.68758 11.75778,4.36754 2.71461,1.17616 6.1278,2.57062 7.58485,3.09878 3.4411,1.24735 8.12534,2.39865 10.69395,2.62838 2.29643,0.20538 2.55797,0.30604 3.50791,1.35003 0.45542,0.50051 1.0438,0.85059 1.79991,1.0709 0.86531,0.25213 1.39082,0.60025 2.28796,1.51568 0.64056,0.6536 1.61627,1.5225 2.16826,1.93089 1.3467,0.99641 9.18308,5.0598 11.05434,5.73201 0.8219,0.29525 2.209,0.89371 3.0825,1.32993 5.62547,2.80936 16.85836,7.6236 17.78782,7.6236 0.74761,0 1.16071,-0.39573 1.49005,-1.4274 0.13974,-0.43781 0.80778,-2.17771 1.48452,-3.86645 0.67671,-1.68875 1.6751,-4.21392 2.21863,-5.61149 1.0965,-2.81929 4.46026,-9.51439 5.8842,-11.71164 1.18812,-1.83337 2.722368,-3.67362 5.186078,-6.22049 1.52908,-1.58066 2.35548,-2.24619 3.60636,-2.90431 0.89251,-0.46956 1.90861,-1.04699 2.25801,-1.28318 0.70199,-0.47453 1.59853,-0.5549 2.25727,-0.20235 0.74885,0.40078 1.24496,1.92852 1.45648,4.48529 0.37994,4.59179 0.25686,7.6426 -0.54739,13.5708 -1.12733,8.30953 -1.58434,10.10693 -3.63269,14.28735 -1.57664,3.21768 -1.66677,3.06334 2.6208,4.48838 3.91838,1.30235 5.82658,1.55127 7.31109,0.95374 0.5007,-0.20155 1.47007,-0.44643 2.15407,-0.54417 0.79133,-0.11307 1.41881,-0.34223 1.72515,-0.63002 0.26482,-0.24877 1.13221,-1.56458 1.92756,-2.92402 0.79532,-1.35943 2.16078,-3.4246 3.03432,-4.58924 2.13218,-2.84268 7.53117,-8.22025 10.91543,-10.87208 3.74942,-2.93796 4.07592,-3.24117 4.25396,-3.95051 0.0852,-0.33944 -0.006,-1.95535 -0.20228,-3.59089 -1.18153,-9.83668 -1.70805,-20.59099 -1.20823,-24.67852 0.13527,-1.10642 0.30279,-2.74799 0.37227,-3.64793 0.1116,-1.4454 0.0821,-1.65321 -0.25246,-1.78161 -0.20833,-0.0799 -0.67443,-0.0223 -1.03577,0.12816 -2.55,1.06161 -7.0709,2.71495 -12.51519,4.57692 -3.49396,1.19495 -7.44846,2.56087 -8.78781,3.03539 -2.64656,0.93765 -3.75485,1.05339 -5.3861,0.56245 -1.26615,-0.38105 -1.81354,-0.87013 -1.81354,-1.62031 0,-0.8023 0.64658,-1.25943 2.94371,-2.08113 2.41045,-0.86225 7.61139,-3.49589 9.9733,-5.05025 2.17222,-1.42956 4.81872,-4.03166 5.47113,-5.37937 0.42448,-0.87684 0.46186,-1.18731 0.34385,-2.85676 -0.11838,-1.67528 -0.0616,-2.14127 0.5385,-4.41406 0.87692,-3.32149 1.01888,-4.23457 1.2676,-8.15254 0.36897,-5.81241 0.99129,-7.1934298 5.01304,-11.1246298 1.55316,-1.51818 2.82393,-2.84136 2.82393,-2.9404 0,-0.75144 -5.76194,1.48216 -8.70344,3.37386 -2.24433,1.44334 -4.99027,1.18115 -9.08196,-0.86715 -3.7199,-1.86219 -5.58397,-3.49948002 -7.18498,-6.31091 -1.27146,-2.23279 -1.57958,-3.54911 -1.59175,-6.80015 -0.01,-2.5654902 0.0565,-3.1712902 0.49114,-4.5003302 1.02585,-3.13715 3.5596,-4.88183 6.16608,-4.2458 0.77347,0.18873 1.25744,0.54565 2.57012,1.89534 0.88947,0.91455 1.71419,1.66282 1.83274,1.66282 0.11851,0 0.46785,-0.4306 0.77625,-0.95687 0.59843,-1.02115 2.32187,-2.51825 3.44308,-2.99095 1.09565,-0.46191 1.86955,-0.3586 2.68639,0.35858 0.89131,0.78259 1.1002,1.3936 1.38703,4.05734 0.30099,2.79512 0.27926,3.9252702 -0.11218,5.8405102 -0.74156,3.62821 -2.23637,5.53408 -3.36357,4.28855 -0.45042,-0.49773 -0.39954,-0.99538 0.40155,-3.92691 0.50804,-1.85907 0.56307,-2.35625 0.4508,-4.0731402 -0.14161,-2.16593 -0.37867,-3.02062 -0.83787,-3.02062 -0.34749,0 -1.24574,1.08184 -2.22347,2.67796 -0.83239,1.3588 -1.83784,1.9158202 -2.83237,1.56912 -1.12571,-0.39243 -1.56244,-0.78719 -2.71451,-2.45374 -1.47853,-2.13876 -2.35035,-2.5928 -3.58184,-1.86535 -0.93874,0.55452 -1.48268,1.76179 -1.75078,3.88579 -0.69801,5.5299202 1.6041,9.58887018 6.99594,12.3348402 1.54248,0.78555 2.64535,1.21523 3.11919,1.21523 0.82997,0 1.99924,-0.43796 7.41167,-2.77605002 4.29895,-1.85709998 6.66587,-2.77683998 9.74068,-3.78503998 1.16467,-0.38187 3.54689,-1.27213 5.29388,-1.97835 l 3.17631,-1.28404 2.96456,-0.14968 c 1.63049,-0.0823 3.9651,-0.26489 5.18797,-0.40573 1.2338,-0.14208 5.19225,-0.26505 8.89369,-0.27626 7.10729,-0.0215 8.30751,0.0697 17.57559,1.33527 2.504,0.34194 6.79202,0.8631 9.52896,1.15815 2.73691,0.29504 6.47547,0.78593 8.30789,1.09087 1.83243,0.30494 3.47616,0.49899 3.65278,0.43122 0.50428,-0.19352 0.37844,-1.02188 -0.32336,-2.12853 -1.00691,-1.58772 -2.80534,-5.2860902 -3.88099,-7.9810102 -1.16724,-2.92442 -1.2684,-4.05126 -0.45081,-5.0229 0.29117,-0.34602 0.52991,-0.71067 0.53058,-0.81032 0.004,-0.62474 0.50371,-1.79799 0.843,-1.97958 0.80355,-0.43005 1.39967,0.14322 2.65882,2.55687 1.19854,2.29751 2.63803,4.18311 6.20584,8.12901 2.1879,2.4197502 5.05302,4.9824202 5.57045,4.9824202 0.58598,0 0.75284,-0.63286 1.01055,-3.83266 0.40899,-5.0781202 1.34915,-9.4573402 3.33677,-15.5428602 3.74246,-11.45822 7.00737,-20.06437 10.14668,-26.74622 3.48991,-7.42805 8.8334,-15.07851 16.29747,-23.33367 6.86238,-7.58969 10.58007,-10.60364 23.70227,-19.2155 6.27954,-4.12116 8.39578,-5.3089 12.35603,-6.93474 1.24027,-0.50915 2.91974,-1.2733 3.73217,-1.69807 2.54081,-1.32845 3.20501,-0.87455 5.54827,3.79169 2.81376,5.60317 4.52662,10.24003 6.73901,18.24323 3.09415,11.19267 4.48755,19.43 5.29105,31.27943 0.1757,2.58992 0.4092,5.66184 0.519,6.82649 0.5827,6.17844 0.4183,14.79051 -0.4145,21.7259 -0.5472,4.55587 -0.5448,5.57126 0.014,6.13062 0.2981,0.29803 0.5805,0.39162 0.9,0.29821 0.5468,-0.15989 5.034,-1.98981 8.9169,-3.63646 3.7025,-1.57013 6.3204,-2.40467 12.1947,-3.88748 4.5098,-1.13835 7.2051,-1.99116 14.6111,-4.62308 3.4552,-1.22788 5.203,-1.16529 5.9405,0.21272 0.163,0.30467 0.1564,0.63498 -0.024,1.18062 -0.2085,0.63167 -0.1872,0.94256 0.1282,1.8704 0.3599,1.05881 0.3612,1.27585 0.026,4.47295 -0.9009,8.58969 -1.0856,20.4619102 -0.4476,28.7706602 0.4909,6.3942098 0.5723,22.6733798 0.1334,26.6810398 -1.2401,11.32226 -3.403,19.7253 -7.2761,28.2692 -2.6672,5.88377 -5.2313,10.03318 -8.8226,14.27738 -3.219,3.80428 -5.2009,5.71221 -12.3157,11.85575 -1.5723,1.35764 -3.0249,2.72717 -3.2282,3.04339 -0.5497,0.85548 -0.4598,1.70016 0.4667,4.38716 3.6506,10.58708 5.5767,26.75557 5.2273,43.8804 -0.4447,21.80242 -1.8723,27.54569 -9.4621,38.06788 -1.021,1.41553 -1.6789,2.8003 -1.6845,3.5458 0,0.0867 0.4038,0.34969 0.8988,0.58431 0.495,0.23461 1.9309,1.37681 3.1909,2.53822 5.7375,5.28851 13.2644,10.01243 28.905,18.14083 9.3798,4.87472 9.8545,5.13283 18.037,9.80805 13.3989,7.65576 22.9632,13.68625 27.2102,17.15662 8.1907,6.69279 15.6356,15.53072 20.692,24.56359 2.5706,4.5923 3.3511,6.28342 6.2833,13.61542 4.7395,11.85113 7.0312,20.12325 8.3715,30.21772 0.3492,2.63001 0.7521,8.69862 0.7521,11.32885 0,11.0134 -2.0543,20.23316 -7.5726,33.98656 -2.3718,5.91151 -7.8215,16.47318 -9.0618,17.56214 -1.1949,1.04918 -2.3811,0.7727 -2.7327,-0.63698 -0.1905,-0.76332 0.3188,-1.98616 2.7715,-6.65507 4.2991,-8.1837 7.407,-15.57133 9.5765,-22.76359 2.3572,-7.81438 3.2071,-13.53348 3.2098,-21.59894 0,-8.48979 -1.3265,-17.42667 -3.9216,-26.3634 -1.4728,-5.07207 -1.8581,-6.15257 -4.9983,-14.01817 -4.5849,-11.48433 -8.0175,-17.42822 -14.75,-25.54092 -3.4134,-4.11324 -8.7306,-9.17205 -12.8093,-12.1869 -8.0556,-5.95453 -27.011,-17.08121 -43.8784,-25.75645 -11.8358,-6.08732 -19.266,-10.55703 -25.3047,-15.22218 -1.8482,-1.42782 -5.4312,-4.91534 -6.0614,-5.89994 -0.3506,-0.54781 -0.6625,-0.79408 -1.0054,-0.79408 -0.6332,0 -1.8273,0.79609 -3.3092,2.20615 -0.6405,0.60952 -1.8143,1.66627 -2.6085,2.34833 -1.5296,1.31378 -2.05005,2.06597 -2.05005,2.96299 0,1.33631 3.52335,8.80132 6.04665,12.81094 3.0799,4.89425 7.018,9.8588 11.3165,14.26581 8.9808,9.20758 17.0375,15.27786 39.387,29.6758 15.128,9.74568 22.8718,16.07572 29.5283,24.13739 7.0367,8.52203 11.1957,17.11411 14.2972,29.53668 4.1057,16.44449 4.951,37.24667 2.3297,57.32956 -0.7812,5.98482 -2.1421,11.93217 -4.1282,18.03954 -2.5843,7.94732 -5.996,14.56294 -10.2903,19.95435 -3.2183,4.0405 -8.6088,8.57686 -14.0202,11.79872 -11.177,6.65463 -19.2282,9.01208 -38.0449,11.13988 -8.8452,1.00023 -10.4413,1.26162 -22.0225,3.60636 -3.2027,0.64846 -6.7285,1.31449 -7.8349,1.48008 -4.1758,0.62501 -14.32324,1.82092 -20.75189,2.44568 -3.66864,0.35653 -8.52841,0.83837 -10.79947,1.07078 -3.89345,0.39847 -13.72077,0.6992 -15.77571,0.48277 z m 9.31718,-3.25766 c 1.74698,-0.11221 5.55856,-0.44076 8.47019,-0.73006 2.91162,-0.28933 7.29493,-0.72224 9.74067,-0.96199 5.62902,-0.55186 17.83631,-2.02532 20.28731,-2.44875 1.0255,-0.17719 5.4089,-1.03064 9.7407,-1.89658 8.3659,-1.67237 11.2467,-2.14098 17.5109,-2.84839 10.3815,-1.17234 15.4665,-2.00004 21.0695,-3.42956 6.778,-1.72927 13.0568,-4.58318 19.707,-8.9574 7.7335,-5.08677 12.5517,-10.57467 16.8319,-19.17133 4.4076,-8.85233 7.1975,-19.83979 8.4662,-33.3418 0.9789,-10.41806 1.0101,-20.60176 0.094,-30.71387 -1.0352,-11.4263 -3.4972,-22.33878 -7.0209,-31.11904 -3.1922,-7.95421 -9.2953,-16.46595 -16.6581,-23.23215 -5.4475,-5.00619 -9.4608,-8.00965 -19.4753,-14.57483 -13.6891,-8.97412 -20.2041,-13.31782 -23.226,-15.48546 -17.5577,-12.59408 -29.0129,-25.43771 -35.44076,-39.73615 -0.74498,-1.65718 -1.4727,-3.15549 -1.61719,-3.32957 -0.60356,-0.72727 -1.33986,-0.37112 -5.52441,2.67223 -4.49251,3.26733 -7.51134,5.65526 -8.66221,6.85187 -0.70785,0.73604 -0.74099,0.83901 -0.73779,2.29408 0.003,1.32417 0.15093,1.91128 1.13173,4.48802 2.0501,5.38604 5.52023,11.89226 7.84189,14.7029 0.4393,0.5318 1.23177,1.64267 1.76108,2.46858 0.5293,0.82592 1.85501,2.54113 2.94599,3.81158 4.35157,5.06739 8.34927,8.90666 23.52917,22.59668 9.4164,8.49217 13.0252,13.23931 16.8552,22.17203 3.8976,9.09048 5.9283,21.2447 5.1341,30.72851 -0.5681,6.78283 -1.0851,9.3271 -2.7633,13.5968 -2.0389,5.1874 -5.1545,10.62992 -8.2565,14.42256 -4.3591,5.32968 -10.7596,9.7926 -17.2686,12.04113 -2.7405,0.94666 -9.2501,2.56591 -12.4817,3.10475 -3.88607,0.64798 -9.43225,1.15558 -12.71504,1.16373 -5.64505,0.014 -17.03659,-1.29555 -32.29252,-3.71228 -2.15461,-0.34132 -8.53897,-1.19209 -14.18754,-1.89061 -15.8831,-1.96415 -18.1182,-2.28677 -24.24586,-3.49972 -9.47793,-1.87614 -18.07316,-4.19847 -26.89743,-7.26738 -4.33265,-1.5068 -17.47716,-6.29368 -21.52226,-7.83783 -4.49089,-1.71432 -10.26472,-3.66961 -14.54726,-4.92641 -2.40399,-0.7055 -5.7526,-1.83553 -7.44135,-2.51117 -9.80246,-3.92185 -15.69917,-6.60967 -20.55109,-9.36751 -4.60567,-2.61788 -6.44325,-3.60953 -13.6983,-7.39223 -14.11204,-7.35784 -16.473328,-8.46414 -26.841708,-12.57559 -9.96015,-3.94959 -15.97262,-6.05331 -26.25753,-9.18733 -18.31699,-5.58157 -31.96127,-8.49168 -47.43297,-10.11673 -5.1793595,-0.54401 -25.13556,-0.54932 -32.08077,-0.009 -11.07177,0.86209 -12.92289,1.07581 -18.88112,2.17993 -13.44874,2.49217 -20.07273,4.47743 -30.68903,9.1977 -6.85357,3.04727 -9.5558,4.53018 -15.50488,8.50862 -5.66186,3.78636 -12.17438,8.71113 -14.58156,11.02656 -1.19641,1.15083 -1.41075,1.58807 -1.74614,3.56215 -0.2023,1.19072 -0.948932,1.74479 -2.400022,1.78105 -0.66913,0.0167 -1.41641,0.13816 -1.66062,0.26988 -1.04818,0.56535 -6.2827,6.51778 -8.6077,9.78824 -0.70377,0.98995 -1.63394,2.22871 -2.06706,2.7528 -0.43311,0.5241 -1.5175,2.01839 -2.40974,3.32066 -1.97212,2.87842 -2.51316,3.36495 -3.96373,3.56446 -0.95958,0.13197 -1.27617,0.31501 -2.49692,1.44355 -2.88624,2.66822 -5.96995,6.34519 -8.55415,10.19983 -0.70271,1.04819 -1.92138,2.81154 -2.70815,3.91856 -1.58102,2.22459 -1.97905,3.17521 -1.32948,3.17521 0.21601,0 2.25124,-0.89506 4.52273,-1.98904 6.26943,-3.01941 5.66765,-2.82226 26.57513,-8.70613 8.663782,-2.43819 13.378082,-3.61976 20.540982,-5.14832 11.52401,-2.45921 15.16763,-2.92149 25.62226,-3.2508 9.45076,-0.29769 9.95747,-0.29804 12.81114,-0.009 1.33935,0.13581 5.3415,0.34578 8.89368,0.4666 7.1926,0.24463 19.10661,0.73827 25.41051,1.05286 2.2710705,0.11333 6.9878905,0.30908 10.48184046,0.435 13.31945954,0.48 30.21372954,1.96386 38.75103954,3.40356 7.78714,1.31321 18.53231,3.99396 24.13998,6.02257 4.63934,1.67829 12.44385,5.43073 27.4076,13.17765 13.210468,6.83922 29.787948,15.18092 33.154118,16.68296 3.35723,1.49806 7.7541,3.26034 16.09333,6.45028 23.03569,8.81166 40.66096,16.46924 49.42339,21.4728 1.70042,0.97098 4.85452,2.7463 7.00912,3.94515 2.15461,1.19886 5.58502,3.17748 7.62317,4.39694 12.39636,7.41702 21.55815,11.99259 31.4455,15.70448 7.62469,2.86246 14.0643,4.49213 22.6059,5.72086 5.74706,0.82675 8.72391,0.96395 13.81584,0.63686 z m -35.65448,-27.43607 c -0.23548,-0.29936 -0.48908,-0.99021 -0.56355,-1.53522 -0.36435,-2.66615 -2.77319,-14.02108 -3.02862,-14.27651 -0.11798,-0.11798 -0.43589,-0.15868 -0.70646,-0.0904 -0.27058,0.0682 -2.82653,1.99498 -5.67993,4.28163 -2.8534,2.28666 -5.94468,4.69217 -6.86951,5.34558 -2.04243,1.44302 -5.02774,3.00767 -5.73854,3.00767 -0.56314,0 -1.36774,-0.66833 -1.36774,-1.13609 0,-0.52363 0.79025,-1.30692 1.93931,-1.92222 0.62213,-0.33313 1.89344,-1.09958 2.82517,-1.70322 2.22151,-1.43926 13.65731,-10.58587 14.1332,-11.30404 0.20304,-0.30643 0.3698,-0.87051 0.37056,-1.25352 0,-0.38301 -0.67097,-3.19405 -1.49275,-6.24675 -1.3455,-4.99823 -1.64063,-5.84528 -2.9669,-8.51494 -1.5091,-3.03762 -1.71718,-3.84985 -1.13531,-4.43171 1.08874,-1.08874 2.52719,0.5066 4.57722,5.0764 0.31581,0.70397 1.20576,3.6103 1.97767,6.45851 0.90883,3.35345 1.54721,5.32599 1.81136,5.59689 0.39371,0.40385 0.43166,0.40551 1.09536,0.048 0.37809,-0.20367 1.92622,-1.41754 3.44026,-2.69748 4.73632,-4.00396 5.98121,-4.96777 7.8742,-6.09623 2.02263,-1.20577 3.10402,-1.41065 3.73948,-0.70848 0.84002,0.92822 0.4055,1.4881 -2.50067,3.22205 -1.04404,0.62291 -2.59002,1.70939 -3.43552,2.4144 -2.62942,2.19254 -6.68535,5.60407 -7.83944,6.59388 -0.78519,0.67343 -1.14155,1.1507 -1.23631,1.6557 -0.125,0.66641 0.59463,4.62512 2.14007,11.7725 0.64842,2.99883 0.88576,5.87545 0.53836,6.52456 -0.35481,0.66303 -1.34905,0.62069 -1.90097,-0.081 z m -34.22617,-8.71996 c -0.17563,-0.20382 -0.58063,-0.67389 -0.89996,-1.0446 -0.43369,-0.5035 -0.95562,-0.77882 -2.06286,-1.08818 -7.60752,-2.12552 -14.22216,-4.80793 -16.94937,-6.87342 -0.70377,-0.533 -1.56137,-1.03484 -1.9058,-1.11521 -2.08655,-0.48687 -2.09827,-1.31898 -0.0642,-4.56227 2.54946,-4.06507 6.90055,-11.89332 9.5301,-17.14592 2.46548,-4.92495 4.24927,-7.90747 5.53268,-9.25073 0.76488,-0.80057 1.70177,-0.92795 2.04927,-0.27862 0.43658,0.81575 0.23902,1.63229 -0.72765,3.00769 -1.42721,2.0306 -2.86648,4.58834 -4.63073,8.22921 -1.55374,3.20642 -4.962,9.44324 -7.68108,14.05566 -0.74682,1.26682 -1.41476,2.5301 -1.48432,2.80729 -0.13515,0.53841 0.30412,1.37597 1.06881,2.03794 0.59998,0.51939 3.59885,2.0395 6.29734,3.1921 2.91558,1.24531 12.22573,4.16454 13.28181,4.16454 0.59729,0 1.38998,-0.72658 1.77362,-1.62571 2.60439,-6.10373 4.05374,-9.34056 5.76695,-12.87946 1.12761,-2.3293 3.09952,-6.46856 4.38198,-9.19837 2.64821,-5.63682 2.7333,-5.78702 3.46884,-6.12215 1.01765,-0.46367 1.80718,0.48916 1.48125,1.78766 -0.15611,0.62208 -3.47017,7.75217 -6.68376,14.37988 -1.18587,2.44576 -3.0156,6.44792 -4.06604,8.89368 -2.42832,5.65376 -2.32799,5.46998 -3.85467,7.06115 -1.83407,1.91157 -2.92062,2.38187 -3.62217,1.56784 z m -36.82948,-12.95447 c -0.56767,-0.62727 -0.72439,-1.71333 -0.74314,-5.14973 -0.0168,-3.10552 -0.44815,-9.31573 -0.86391,-12.44136 -0.11617,-0.87349 -0.45397,-3.68452 -0.75065,-6.24675 -0.77701,-6.71061 -1.45087,-9.63482 -2.22031,-9.63482 -0.50324,0 -0.93573,0.64464 -2.50122,3.72801 -1.62672,3.20397 -2.87338,5.06201 -6.0943,9.08312 -5.31403,6.63424 -7.62294,8.83574 -8.79823,8.3889 -0.68749,-0.26138 -0.87142,-0.97761 -0.45689,-1.77922 0.17947,-0.34703 1.22468,-1.58008 2.3227,-2.74013 2.25994,-2.38756 6.87819,-8.0996 8.40078,-10.39043 0.55775,-0.83918 1.54743,-2.57396 2.19927,-3.85508 0.65181,-1.28111 1.73995,-3.28422 2.41806,-4.45134 0.75889,-1.30623 1.35237,-2.63421 1.54366,-3.45422 0.40664,-1.74306 0.79291,-2.29223 1.83109,-2.60328 0.76598,-0.2295 0.91539,-0.21094 1.43018,0.17763 0.57448,0.43362 0.5748,0.43549 0.50685,2.85316 -0.0542,1.92779 0.0225,2.77296 0.37657,4.16038 1.32422,5.18638 2.87418,17.16676 3.35578,25.93793 0.22632,4.12199 0.38551,4.23654 2.65578,1.91131 0.64756,-0.66324 1.87268,-2.28807 2.72249,-3.61073 2.32099,-3.61247 4.29661,-6.40239 6.96952,-9.84224 1.32577,-1.70615 3.22044,-4.40139 4.2104,-5.98942 2.35663,-3.78039 2.85207,-4.47633 3.47936,-4.88735 1.08557,-0.71128 1.98686,0.17158 1.60873,1.57584 -0.33558,1.24626 -4.44647,7.54128 -7.55968,11.57618 -1.52196,1.97257 -3.98759,5.44464 -5.47914,7.7157 -2.35242,3.5818 -3.07893,4.50382 -5.48022,6.95486 -3.42196,3.49289 -4.22083,3.96638 -5.08353,3.01308 z m -33.9228,-17.07483 c -0.32377,-0.49416 -0.3264,-0.60269 -0.0295,-1.21759 0.17921,-0.37129 0.88592,-1.3066 1.57049,-2.07847 1.77676,-2.00345 4.00645,-5.18332 6.25182,-8.91602 1.06957,-1.77807 2.5633,-4.2334 3.3194,-5.45628 1.55019,-2.50717 2.82356,-5.13464 4.18167,-8.62841 1.62463,-4.17951 2.28547,-5.18855 3.39807,-5.18855 0.63385,0 1.13635,0.53444 1.13318,1.20512 0,0.23978 -0.24818,0.96006 -0.54894,1.60062 -0.3008,0.64056 -0.95452,2.21283 -1.45274,3.49395 -1.54062,3.96161 -2.70397,6.22778 -5.94041,11.57177 -3.536,5.83865 -5.37751,8.60509 -7.42973,11.1614 -2.26672,2.8235 -3.69478,3.60996 -4.45322,2.45246 z m -8.8679,-4.55502 c -5.44309,-3.2111 -16.06896,-8.12146 -22.231878,-10.27366 -0.58234,-0.20336 -1.36848,-0.67772 -1.74699,-1.05415 -0.57128,-0.56813 -0.68821,-0.84487 -0.68821,-1.62892 0,-1.17521 0.50549,-1.9592 2.83154,-4.39174 0.946658,-0.98998 2.953128,-3.22928 4.458838,-4.97623 1.50574,-1.74694 4.03743,-4.51031 5.62604,-6.14082 2.44108,-2.50545 3.16148,-3.40727 4.65186,-5.82324 2.16987,-3.51745 2.81215,-4.34973 3.55723,-4.60947 1.08249,-0.37736 1.96354,0.36126 1.61075,1.35038 -0.0785,0.22022 -1.15146,2.02032 -2.38431,4.00022 -1.97986,3.17959 -2.5762,3.94655 -5.10846,6.56988 -1.5768,1.63352 -3.96929,4.25398 -5.3166,5.82324 -1.3473,1.56925 -3.37202,3.85373 -4.49938,5.07661 -1.36926,1.48529 -2.03045,2.36167 -1.99164,2.63985 0.0657,0.47081 0.38316,0.6528 2.91679,1.67197 4.61523,1.85652 8.31141,3.50791 12.59936,5.62918 8.78689,4.34692 11.04084,6.04456 9.67107,7.28416 -0.65925,0.59663 -1.32944,0.40228 -3.95601,-1.14726 z M 71.744662,334.14811 c -0.22213,-0.36529 -0.516,-1.2526 -0.65301,-1.97178 -0.13702,-0.71919 -0.66471,-3.07048 -1.17269,-5.22508 -0.92556,-3.9257 -2.31937,-10.96017 -2.95797,-14.92867 -0.66753,-4.14827 -1.65515,-8.6869 -1.95835,-8.99956 -0.27248,-0.28096 -0.38558,-0.22806 -0.97976,0.45832 -2.23026,2.57616 -9.16477,15.38585 -10.52745,19.44658 -1.01543,3.02602 -1.25379,3.54741 -1.88143,4.1154 -0.62819,0.56852 -1.5199,0.2497 -1.77336,-0.63405 -0.14828,-0.51703 0.0109,-1.24117 0.81387,-3.70312 1.6139,-4.94807 6.4956,-14.03479 11.88278,-22.1183 1.08661,-1.63051 2.2147,-3.3234 2.50682,-3.76197 0.58389,-0.87661 1.66727,-1.63574 2.33616,-1.63697 0.23614,-3.2e-4 0.6411,0.14754 0.89996,0.32884 0.56846,0.39817 0.60923,1.22352 0.13536,2.7408 -0.50446,1.61534 -0.41015,4.68649 0.23548,7.66796 0.29728,1.37293 0.81962,4.21145 1.16068,6.30782 0.82805,5.08936 1.65898,9.24171 2.93162,14.6496 0.58053,2.46697 1.11383,4.99214 1.18508,5.61149 0.16869,1.46592 -0.17114,2.16039 -1.10132,2.25086 -0.56748,0.0552 -0.7447,-0.0427 -1.08247,-0.59817 z m -33.3191,-7.84431 c -0.87693,-0.51124 -0.56513,-3.06278 1.1296,-9.24361 1.1915,-4.34553 4.75549,-13.84408 6.77218,-18.04882 1.39325,-2.9049 4.47398,-7.70606 5.49711,-8.56697 1.13113,-0.95178 2.31535,-0.60592 2.31535,0.6762 0,0.22395 -0.92058,1.77867 -2.04575,3.45493 -2.0769,3.09418 -3.98659,6.755 -5.12468,9.82389 -0.34553,0.93172 -1.35439,3.59983 -2.24191,5.92912 -1.62772,4.27195 -2.94539,8.65185 -3.59935,11.96412 -0.48496,2.45636 -0.73035,3.20085 -1.23884,3.75864 -0.46804,0.51342 -0.89099,0.58638 -1.46371,0.2525 z m -10.71969,-1.94813 c -1.00524,-0.48352 -3.2386,-6.00812 -4.56846,-11.30087 -1.32044,-5.25523 -1.9392,-9.06157 -2.57742,-15.85502 -0.33328,-3.54761 -1.66819,-10.08282 -2.31507,-11.33375 -0.72206,-1.39631 -1.32594,-0.55352 -1.97598,2.7577 -0.65422,3.33248 -0.85119,5.06685 -0.98603,8.68193 -0.17629,4.72644 -0.50673,10.03671 -0.73131,11.75236 -0.10672,0.81525 -0.25269,3.09815 -0.32439,5.0731 -0.12193,3.35867 -0.16675,3.65768 -0.69327,4.62507 -0.68227,1.25355 -1.38595,1.84244 -2.2016,1.84244 -0.44639,0 -0.67625,-0.14268 -0.85228,-0.52901 -0.20074,-0.44059 -0.14633,-0.76797 0.32553,-1.95873 0.50542,-1.27541 0.57549,-1.77254 0.6493,-4.60603 0.0455,-1.74698 0.23104,-4.31979 0.41232,-5.71737 0.18127,-1.39758 0.43018,-5.20915 0.55314,-8.47017 0.3863,-10.2452 1.83354,-16.66961 4.05018,-17.97901 1.91475,-1.13107 3.67029,0.73604 4.9586,5.27376 0.75067,2.64398 1.48592,6.80895 1.88779,10.69359 0.73028,7.05938 1.68515,12.62167 2.47029,14.3899 0.55307,1.24559 0.69755,0.9744 1.01201,-1.89952 0.45083,-4.1202 1.73429,-8.19047 3.67747,-11.66242 1.54379,-2.75835 9.07136,-13.32057 9.73974,-13.6662 0.76109,-0.39358 1.39382,-0.20118 1.66251,0.50554 0.30441,0.80066 -0.23472,1.74974 -4.15009,7.30585 -4.18129,5.93345 -5.3865,7.92147 -6.44696,10.63437 -1.55334,3.97377 -1.8855,7.1293 -2.00271,19.02556 -0.0177,1.80162 -0.0757,2.1217 -0.43155,2.38224 -0.47596,0.34851 -0.48852,0.34889 -1.14176,0.0347 z m -58.33026,-6.13928 c -0.19535,-0.14558 -0.93421,-1.36052 -1.6419,-2.69987 -0.7077,-1.33934 -2.20969,-3.81687 -3.33775,-5.50561 -1.65185,-2.47286 -2.66327,-3.6957 -5.19683,-6.28316 -3.30186,-3.3721 -4.03081,-3.89276 -4.89726,-3.49798 -0.43194,0.1968 -2.78794,2.88721 -6.67447,7.62183 -0.52409,0.63846 -2.00108,2.55126 -3.28219,4.25068 -2.37931,3.15618 -2.99887,3.71632 -3.78926,3.42586 -0.74992,-0.27559 -0.89201,-1.09614 -0.37328,-2.15579 0.65238,-1.33268 4.04295,-5.76303 8.24452,-10.77284 2.79928,-3.33776 3.64137,-4.47803 3.64384,-4.93408 0.004,-0.74403 -0.90018,-1.61436 -3.49074,-3.35997 -3.87199,-2.60909 -6.71887,-4.71206 -7.03775,-5.19872 -0.26085,-0.39812 -0.27881,-0.60797 -0.0879,-1.02701 0.48457,-1.0635 1.67459,-0.93473 3.58682,0.38812 0.71318,0.49336 2.42055,1.67255 3.79416,2.62041 1.37361,0.94787 3.10517,2.21045 3.84792,2.80575 1.89735,1.52066 2.12556,1.4869 4.49246,-0.66463 3.47917,-3.16259 6.68775,-5.75344 8.48288,-6.84972 6.38109,-3.8969 6.20436,-3.80969 6.85574,-3.38289 0.59674,0.391 0.66075,0.93532 0.21202,1.80306 -0.41135,0.79547 -1.53578,1.65002 -3.61654,2.74853 -3.01156,1.5899 -6.38101,4.1986 -10.2068,7.90232 -1.1326,1.09646 -1.53521,1.6309 -1.53521,2.03789 0,0.4314 0.66457,1.19869 3.04837,3.51951 3.4415,3.35057 3.72226,3.68979 6.5709,7.93893 2.25762,3.36756 4.3603,7.34492 4.34977,8.22788 -0.0135,1.13288 -1.07945,1.69886 -1.96153,1.0415 z m 11.7332,-0.71624 c -0.46198,-0.32358 -0.48397,-0.4352 -0.34419,-1.74697 0.0821,-0.77072 0.13455,-2.15439 0.1165,-3.07484 l -0.0328,-1.67353 0.83454,-0.86752 c 0.459,-0.47714 0.93258,-1.05999 1.05239,-1.29523 0.57633,-1.1315 0.87023,-3.73013 0.91078,-8.053 0.0354,-3.77328 -0.0157,-4.63038 -0.33258,-5.58455 -0.35318,-1.06332 -0.35427,-1.19466 -0.0193,-2.31876 0.3889,-1.30502 0.58601,-5.64665 0.30282,-6.66994 -0.0926,-0.3344 -0.55276,-0.96297 -1.0227,-1.39681 -0.97702,-0.90198 -1.00797,-1.02508 -0.43937,-1.74793 0.44538,-0.56621 2.37031,-1.22348 3.58318,-1.22348 0.985,0 7.8773005,-1.41928 9.8047705,-2.01903 3.77475996,-1.17454 5.54743,-1.39463 6.84983,-0.85046 0.64052,0.26763 0.73434,0.40194 0.73434,1.05133 0,0.91999 -0.37134,1.14889 -2.29801004,1.4165 -0.77423,0.10754 -2.61494996,0.52924 -4.09047996,0.93709 -1.47554,0.40786 -4.0732,1.02318 -5.77259,1.36736 -3.3741905,0.68341 -3.7967605,0.83946 -4.1782205,1.54307 -0.21638,0.39912 -0.30423,3.11142 -0.19531,6.03015 0.01,0.26204 0.20835,0.66702 0.44128,0.89995 0.38386,0.38386 0.70606,0.42354 3.4410105,0.42378 2.47283,2.3e-4 3.40173,0.0934 5.14617,0.516 4.49889996,1.08997 6.78916,2.52013 6.33371,3.95513 -0.30898,0.97348 -1.27502004,0.96482 -3.2744,-0.0294 -2.17229,-1.08017 -4.27162,-1.53513 -7.56808,-1.64015 -1.6584505,-0.0528 -3.2518005,-0.0367 -3.5407705,0.0358 -0.81599,0.2048 -1.03828,0.87267 -0.99369,2.98555 0.0663,3.14251 -0.34516,8.33754 -0.79446,10.03029 -0.44556,1.67864 -0.348,2.44185 0.33843,2.64751 0.21048,0.0631 1.2403,0.26071 2.28849,0.43921 1.04818,0.1785 2.7633905,0.50941 3.8115705,0.73535 1.04819,0.22594 2.992,0.5683 4.31959,0.7608 1.3276,0.1925 2.62303996,0.42955 2.87876996,0.52678 1.70217004,0.64717 1.45356,2.54357 -0.33302,2.54015 -1.05614996,-0.002 -5.83502996,-0.75002 -8.77112996,-1.37288 -1.3975705,-0.29648 -3.2557205,-0.59581 -4.1292005,-0.66519 -1.4839,-0.11784 -1.61712,-0.0933 -2.02931,0.37434 -0.24262,0.27526 -0.60745,0.95207 -0.81072,1.50403 -0.3199,0.86866 -1.16445,1.85512 -1.58826,1.85512 -0.0748,0 -0.35815,-0.15555 -0.62958,-0.34566 z m 146.192108,101.4589 c 14.87004,-0.62758 17.4771,-0.76954 23.61059,-1.28566 3.4357,-0.28911 9.20072,-0.76371 12.81114,-1.05465 8.42397,-0.6789 12.03885,-1.04518 16.63036,-1.68512 3.79467,-0.52889 9.79121,-1.17196 14.70927,-1.57746 1.51404,-0.12482 3.801,-0.36666 5.0821,-0.53745 1.28113,-0.17074 3.06002,-0.31232 3.95307,-0.31459 0.89308,-0.002 1.77451,-0.062 1.95873,-0.13267 0.54847,-0.21046 0.38218,-0.86778 -0.35171,-1.39035 -0.94593,-0.67356 -5.74579,-3.5237 -9.80562,-5.82255 -1.8577,-1.0519 -5.23575,-2.96467 -7.50684,-4.25059 -5.79883,-3.28341 -11.58197,-6.12774 -18.97096,-9.33049 -9.49037,-4.11359 -23.03661,-9.59044 -34.42426,-13.91799 -7.80574,-2.96634 -11.47552,-4.49211 -16.31176,-6.78189 -2.36562,-1.12003 -4.60367,-2.1258 -4.97347,-2.23503 -0.49994,-0.14769 -1.0971,-0.0914 -2.32929,0.21943 -1.22245,0.30842 -3.29504,0.50649 -7.90372,0.75532 -7.694858,0.41548 -11.367908,0.68857 -13.022888,0.96827 -2.4363,0.41175 -9.99358,2.15116 -15.6698,3.60662 -17.51128,4.49012 -15.92131,4.01255 -41.28399,12.40021 -10.41505,3.44434 -12.18398,4.10285 -12.18398,4.53571 0,0.12016 0.30969,0.32504 0.6882,0.4553 0.37851,0.13027 3.40395,1.58895 6.7232,3.24151 14.73011,7.33376 21.33384,10.0231 38.11578,15.52248 10.33882,3.38799 17.07226,5.15946 26.99868,7.10289 4.35768,0.85317 6.0961,1.08009 10.693568,1.39587 1.80521,0.124 3.61571,0.2562 4.02333,0.2938 2.08957,0.19277 12.19811,0.0952 18.74027,-0.18092 z M -50.360938,404.66317 c 9.70086,-0.5059 16.69671,-1.55497 26.178,-3.92553 6.69435,-1.67375 10.25034,-2.73565 20.5138305,-6.12587 11.86145,-3.91806 19.3547995,-6.32129 24.7752495,-7.94579 2.38752,-0.71554 8.0096,-2.528 12.4935,-4.02768 16.80608,-5.62094 23.54942,-7.72839 30.49262,-9.52964 11.1739,-2.89881 14.11479,-3.63364 19.37551,-4.84126 6.67312,-1.53184 7.29591,-1.62088 14.21354,-2.03199 6.744588,-0.40083 7.556738,-0.48534 8.036718,-0.83631 0.35807,-0.26182 0.34353,-0.3136 -0.24102,-0.85818 -0.34211,-0.31875 -2.48021,-1.51272 -4.75127,-2.65326 -2.271058,-1.14054 -6.892608,-3.516 -10.270078,-5.2788 -14.1487,-7.38459 -23.83986,-12.10823 -28.39002,-13.83778 -4.72821,-1.79723 -12.73988,-3.91899 -20.94873,-5.54793 -7.76151,-1.54018 -14.45838,-2.27839 -32.7160295,-3.60635 -0.87349,-0.0635 -6.2097,-0.30344 -11.85824,-0.53312 -5.64855,-0.22968 -14.4628205,-0.60223 -19.5872705,-0.82788 -16.68778,-0.73485 -21.79123,-0.9089 -22.97534,-0.78358 -1.98422,0.21 -7.37835,2.20157 -9.82615,3.62791 -3.16301,1.84309 -8.63708,3.91504 -18.65481,7.06089 -8.10236,2.54437 -9.63944,2.97849 -20.79886,5.8743 -10.556412,2.73933 -11.646502,2.99867 -18.222422,4.33518 -26.38357,5.3623 -37.92363,5.6494 -67.39143,1.67658 -3.3655,-0.45373 -5.19402,-0.52587 -5.38765,-0.21257 -0.0688,0.11122 0.35196,0.72887 0.93487,1.37255 0.58294,0.64368 1.29985,1.64392 1.59314,2.22274 1.10784,2.18619 5.35325,6.89816 7.89382,8.76132 0.98327,0.72109 3.32195,2.44627 5.19705,3.83373 5.64864,4.17961 11.92663,7.92178 19.73819,11.7655 4.4012,2.16563 16.69082,7.33255 21.49286,9.03622 1.80531,0.6405 4.5688,1.62257 6.14107,2.18239 9.02532,3.21352 13.85717,4.56159 25.780912,7.19279 11.78268,2.60007 20.89893,4.0064 28.8517,4.45085 4.31626,0.24122 13.78926,0.24668 18.31674,0.0106 z M -126.27484,350.9867 c 9.0676,-1.50927 17.76234,-3.34781 26.0413,-5.50657 16.111722,-4.20115 16.738052,-4.37565 24.779722,-6.90385 11.46664,-3.60495 16.72859,-5.73095 16.72859,-6.75889 0,-0.38698 -1.15444,-0.47909 -4.42425,-0.353 -5.18274,0.19986 -10.18794,0.91239 -18.12758,2.58063 -10.47575,2.2011 -10.17901,2.12408 -33.850182,8.78601 -8.46567,2.38254 -11.51301,3.54571 -16.75219,6.39429 -2.47551,1.34595 -3.2891,1.95548 -3.2891,2.46413 0,0.47628 3.44608,0.20399 8.89369,-0.70275 z m 426.09527,-2.34494 c 5.45215,-0.75737 13.00135,-2.66124 16.68295,-4.20735 8.1019,-3.40244 14.7393,-10.02073 19.3387,-19.28307 1.5851,-3.19218 2.0779,-4.53817 2.0934,-5.71736 0.029,-2.22031 -0.4895,-5.50838 -1.3856,-8.78781 -1.7882,-6.54354 -3.4209,-10.80081 -6.504,-16.95977 -2.3589,-4.71234 -3.8517,-7.22394 -6.5326,-10.99061 -4.1394,-5.81616 -6.6828,-8.77522 -13.4697,-15.671 -9.81287,-9.97025 -13.33252,-14.74694 -16.17864,-21.9566 -1.69309,-4.28891 -2.28702,-6.57467 -3.30388,-12.71468 -0.40956,-2.47297 -0.86023,-4.75991 -1.00149,-5.0821 -0.14123,-0.3222 -0.77343,-1.44341 -1.40487,-2.4916 -1.71549,-2.84772 -3.89963,-7.29666 -5.09864,-10.38556 -1.77271,-4.56683 -1.96183,-4.79971 -3.11175,-3.83211 -1.4112,1.18745 -5.47876,7.80164 -7.45124,12.11633 -1.11649,2.44223 -1.38288,3.78699 -1.08053,5.4543 0.28302,1.56091 3.58399,10.40128 5.42928,14.54028 0.7529,1.68874 3.06521,7.02495 5.13846,11.85824 4.41404,10.29027 6.21636,14.12726 8.2503,17.56445 2.08849,3.52934 3.6452,5.51099 6.33583,8.06536 2.88992,2.74359 3.19813,3.56256 1.66768,4.43172 -0.48419,0.27499 -0.67129,0.26997 -1.65425,-0.0444 -0.60958,-0.19493 -1.18204,-0.30887 -1.2721,-0.2532 -0.0901,0.0557 -0.31097,0.59973 -0.49085,1.20902 -0.37921,1.28441 -1.50035,2.74848 -5.30459,6.92716 -1.43332,1.57441 -3.11377,3.48194 -3.73428,4.23896 -0.62055,0.75702 -1.74429,2.08626 -2.49719,2.95387 -1.3584,1.56531 -9.847,14.2194 -11.73445,17.49276 -3.46193,6.00387 -6.44249,14.30611 -5.99093,16.68749 0.17865,0.94213 1.31424,2.25163 3.51174,4.04947 1.5078,1.23358 8.81243,5.19126 14.81964,8.02937 4.08371,1.92934 3.72263,1.80529 6.25311,2.14813 1.16468,0.15779 2.49871,0.42762 2.96456,0.59963 1.12521,0.41546 3.77161,0.41966 6.71593,0.0106 z m -22.12104,-0.43679 c 1.26687,-0.3395 0.27552,-1.07495 -5.45266,-4.04518 -2.03815,-1.05683 -4.28726,-2.15653 -4.99806,-2.44377 -0.7108,-0.28725 -2.07252,-1.02273 -3.02608,-1.63441 -0.95356,-0.61169 -4.99352,-2.63478 -8.97773,-4.49577 -3.98421,-1.86099 -8.62571,-4.02864 -10.31446,-4.81701 -1.68872,-0.78838 -6.02439,-2.86478 -9.6348,-4.61423 -3.61042,-1.74945 -8.66075,-4.1339 -11.22298,-5.29877 -2.56222,-1.16488 -6.04028,-2.75899 -7.72904,-3.54248 -3.47527,-1.61236 -7.49493,-3.26982 -16.51682,-6.81058 -10.17162,-3.99198 -15.13298,-5.85749 -23.82237,-8.95741 -2.56223,-0.91407 -5.80386,-2.08914 -7.20363,-2.61127 -2.42277,-0.90371 -9.77397,-3.21361 -13.67353,-4.29648 -1.00064,-0.27786 -4.14517,-1.03339 -6.98789,-1.67895 -2.84276,-0.64557 -6.78854,-1.5444 -8.76843,-1.99742 -5.85398,-1.33943 -9.36745,-1.91358 -20.06353,-3.27869 -10.18717,-1.30017 -19.928828,-1.88703 -29.381088,-1.76999 -7.1525,0.0886 -7.1366,0.13155 1.31344,3.54836 8.74932,3.53784 11.534608,4.83915 21.661868,10.12058 8.32833,4.34326 12.52964,6.58736 15.77571,8.42651 8.02598,4.5473 20.68959,10.04221 28.03619,12.16529 5.0675,1.46444 10.45113,3.31656 19.07915,6.56378 10.51626,3.95786 22.45601,8.12597 27.21042,9.49902 7.86545,2.2715 18.69674,4.63492 25.79659,5.62887 2.05871,0.28822 8.08382,1.05432 13.38914,1.70245 5.30532,0.64813 10.87975,1.36207 12.38762,1.58651 1.50789,0.22445 6.25051,0.93835 10.53913,1.58645 6.80865,1.02891 10.13043,1.47443 11.68388,1.56703 0.23294,0.0139 0.6379,-0.0322 0.89996,-0.10244 z m -409.28325,-14.04596 c 0.20928,-0.112 1.18894,-1.13636 2.17703,-2.27635 0.98809,-1.14 3.07372,-3.35913 4.63474,-4.93141 1.56102,-1.57227 3.83012,-4.09744 5.04245,-5.61148 2.82081,-3.52285 3.46407,-4.20347 4.90805,-5.19313 0.6852,-0.46962 2.03283,-1.82007 3.20192,-3.20863 1.11032,-1.31874 2.79337,-3.24085 3.74012,-4.27136 1.84703,-2.01043 2.09243,-2.6395 1.24491,-3.19122 -0.60075,-0.39108 -3.28667,-1.10954 -4.81741,-1.28861 -2.88818,-0.33788 -6.05854,-0.84739 -11.88049,-1.90935 -6.67202,-1.217 -23.88463,-3.81397 -30.05177,-4.53408 -10.76147,-1.25656 -21.88074,-1.77003 -35.99331,-1.6621 -11.64127,0.089 -11.38774,0.0629 -18.20367,1.87829 -2.65236,0.70646 -3.65259,1.1765 -3.55723,1.67166 0.10008,0.51968 1.28522,0.77782 5.77345,1.25753 11.10319,1.18673 27.14327,4.91752 34.74575,8.08159 4.04433,1.68321 10.36884,5.16479 13.43341,7.39497 1.10363,0.80314 3.43595,2.48541 5.18292,3.73836 1.74697,1.25295 5.27268,3.85943 7.83491,5.79218 2.56222,1.93276 5.97183,4.41405 7.57689,5.514 1.60506,1.09994 3.21525,2.21429 3.5782,2.47634 0.74032,0.53451 0.8876,0.56262 1.42913,0.2728 z m 393.82678,-3.99522 c 0.14646,-0.093 0.54233,-1.02059 0.87975,-2.06137 2.21236,-6.82421 4.40422,-11.04311 10.74191,-20.67595 2.77883,-4.2236 5.52885,-8.26379 6.11116,-8.9782 2.01338,-2.47007 5.34336,-6.33794 7.09104,-8.23638 0.96494,-1.04819 2.46668,-2.7634 3.33718,-3.81158 1.02703,-1.2366 1.92711,-2.09168 2.5634,-2.43518 0.53932,-0.29116 1.04591,-0.61903 1.12574,-0.72861 0.22027,-0.30238 -0.32361,-1.18675 -1.30996,-2.13007 -2.3277,-2.22609 -5.02184,-6.30161 -7.63755,-11.55354 -2.05668,-4.12949 -2.80752,-5.79923 -7.08809,-15.76276 -1.90136,-4.42566 -3.99479,-9.28052 -4.65205,-10.78857 -0.65729,-1.50805 -1.69477,-4.06025 -2.30553,-5.67156 -1.28579,-3.39218 -1.7906,-4.2243 -2.3042,-3.79806 -0.85678,0.71107 -3.77483,11.77052 -5.03784,19.09354 -0.46889,2.7186 -0.93991,11.21123 -0.73637,13.2768 0.18802,1.90807 0.90133,5.23017 1.50308,7.00055 0.57873,1.70258 0.63639,2.3222 0.28734,3.08827 -0.58079,1.2747 -1.95927,1.34544 -4.84697,0.24872 -5.15487,-1.95776 -10.66449,-5.1243 -13.89488,-7.98579 -0.829,-0.73432 -2.56603,-2.27085 -3.86012,-3.4145 -2.99421,-2.64619 -4.39541,-4.19413 -6.07814,-6.71475 -1.5692,-2.3505 -2.5405,-4.39268 -3.48066,-7.3182 -0.86027,-2.6768 -0.97301,-4.25969 -0.64525,-9.05944 0.14604,-2.13872 0.20104,-4.09173 0.12225,-4.34003 -0.27638,-0.87074 -0.90009,-0.47257 -3.02466,1.93079 -6.52211,7.37808 -11.0597,11.11242 -17.43072,14.34512 -2.86259,1.45251 -3.58761,2.0215 -3.58761,2.81556 0,0.21494 1.20307,3.26683 2.67352,6.78196 3.01215,7.20068 5.60596,13.83178 6.64141,16.97888 0.3832,1.16464 1.59695,4.40448 2.69725,7.19964 1.1003,2.79516 2.42734,6.22558 2.94894,7.62316 1.07515,2.88059 2.56689,5.75544 3.41686,6.58488 0.31572,0.3081 1.58975,1.01347 2.83122,1.56749 3.19747,1.42693 5.03715,2.5746 10.01762,6.24936 5.73939,4.23473 7.25511,5.56057 11.72335,10.25485 5.4821,5.75938 10.35612,10.60097 10.6683,10.59726 0.15016,-0.002 0.39283,-0.0793 0.53928,-0.17229 z m 78.02646,-24.29588 c 0.3174,-1.10479 0.1877,-6.0398 -0.2472,-9.40927 -1.0578,-8.19508 -2.8957,-14.43309 -6.1454,-20.8578 -3.7901,-7.49311 -6.4237,-10.60776 -16.7382,-19.79562 -7.8491,-6.99178 -13.5292,-12.30599 -17.28375,-16.17039 -2.11054,-2.17232 -3.98611,-3.94967 -4.16785,-3.94967 -0.18178,0 -0.38938,0.18545 -0.46129,0.4121 -0.32608,1.02735 1.71159,7.2409 3.64944,11.12851 2.47673,4.9686 6.45015,9.85808 14.78565,18.19434 8.8998,8.90066 14.5894,16.52515 19.3121,25.87999 2.5915,5.1333 3.8002,7.88728 5.2381,11.93468 1.2594,3.54476 1.6522,4.04727 2.0584,2.63313 z M 218.94725,294.04332 c -0.0238,-0.32935 -0.79935,-2.51727 -1.72348,-4.86205 -0.92413,-2.34478 -2.3685,-6.21667 -3.20973,-8.6042 -2.85232,-8.09524 -8.65241,-22.10962 -9.44298,-22.81653 -0.67573,-0.60421 -1.30049,-0.59905 -3.73584,0.0309 -4.85426,1.25563 -9.01894,1.69491 -16.04302,1.69217 -4.28785,-0.002 -6.54231,-0.098 -8.55034,-0.36537 -1.49991,-0.19971 -2.90544,-0.30651 -3.1234,-0.23734 -0.76884,0.24403 -0.44006,1.28486 1.82076,5.76359 1.21936,2.41558 2.33902,4.53655 2.4881,4.71325 0.69354,0.82188 4.24845,3.08474 7.17436,4.56676 1.82907,0.92647 4.8996,2.76145 7.08328,4.23309 2.12005,1.42874 6.35237,4.08786 9.40516,5.90916 6.85043,4.08699 13.0405,7.91395 14.72409,9.10304 2.46656,1.7421 3.21078,1.9496 3.13304,0.87354 z m 41.24339,-21.73212 c 0.51876,-0.27763 0.51359,-0.69752 -0.042,-3.40407 -0.41655,-2.0294 -0.44193,-2.62683 -0.32715,-7.70558 0.13879,-6.14249 0.33295,-7.73917 1.75097,-14.39929 1.0397,-4.88328 1.12463,-5.21082 3.377,-13.02289 0.85627,-2.96985 1.62397,-5.87541 1.70599,-6.45679 0.0936,-0.66378 0.40629,-1.43095 0.8404,-2.06202 0.38022,-0.55272 0.90075,-1.64932 1.15676,-2.43688 0.25597,-0.78757 0.82253,-2.00367 1.25898,-2.70246 0.43645,-0.69879 1.24825,-2.12813 1.80397,-3.17632 1.37085,-2.58555 4.21113,-6.86685 5.79081,-8.72872 1.27439,-1.50203 2.15176,-2.87811 2.15176,-3.37483 0,-0.70868 2.55545,-2.82512 3.41112,-2.82512 0.19999,0 1.36163,-0.7969 2.58139,-1.77088 1.21977,-0.97398 3.44353,-2.65375 4.9417,-3.73281 5.72865,-4.12612 6.15297,-4.48198 6.8792,-5.76924 0.75648,-1.34091 1.73836,-2.1125 3.17476,-2.4948 1.1859,-0.31562 1.88838,-0.85045 4.71328,-3.58805 7.5804,-7.34619 11.8875,-14.44614 13.4612,-22.18954 1.6519,-8.1286 2.0242,-29.06696 0.7445,-41.87421 -0.8168,-8.17502 -2.1622,-15.17954 -3.9328,-20.47621 -1.1694,-3.49787 -1.401,-3.6879 -3.2861,-2.69626 -2.1608,1.13664 -8.9777,5.97558 -17.40476,12.35473 -5.07779,3.84379 -7.04875,5.12618 -8.19999,5.33533 -0.91859,0.16688 -1.05655,0.25999 -1.11354,0.75148 -0.0358,0.30855 0.37832,1.83274 0.92017,3.3871 3.7372,10.72016 4.82261,15.18056 5.17068,21.24874 0.38494,6.71043 -0.78646,13.18835 -3.49061,19.3032 -1.89873,4.29364 -7.98834,11.21975 -15.80878,17.98039 -2.60084,2.2484 -3.28646,2.63209 -4.70337,2.63209 -0.65738,0 -1.35108,0.21265 -2.28313,0.6999 -2.03295,1.06274 -5.60599,3.67626 -7.29379,5.3351 -0.8295,0.81525 -2.10452,2.05402 -2.83338,2.7528 -1.49601,1.43432 -4.64606,6.0234 -6.04095,8.80075 -1.43928,2.86562 -2.52114,5.62188 -5.83415,14.86355 -3.536,9.8637 -4.7889,12.74537 -7.32629,16.85037 -1.63322,2.64225 -1.77505,3.21797 -1.10892,4.50125 0.56339,1.08545 0.59526,2.02375 0.31207,9.19318 l -0.17563,4.44684 0.75857,2.25973 c 1.36832,4.07622 3.11593,6.95649 5.93965,9.78921 2.61431,2.62265 6.94636,6.42811 8.99715,7.90348 2.1488,1.5459 7.55008,4.40372 8.88684,4.70203 0.0367,0.008 0.25116,-0.0837 0.47643,-0.20428 z m -65.65776,-16.60166 c 4.39791,-0.69353 6.77105,-1.36766 12.67448,-3.60041 5.49457,-2.07812 10.31566,-5.46478 15.84369,-11.12971 4.26818,-4.37389 7.40803,-8.35627 10.28411,-13.04373 2.456,-4.00277 3.27721,-5.91939 7.27326,-16.97483 4.42716,-12.2482 5.54567,-14.75134 8.68001,-19.4253 3.61954,-5.39744 6.16719,-7.83009 12.89997,-12.31761 3.64165,-2.42724 4.33861,-2.79879 5.73379,-3.0567 0.68504,-0.12664 1.48568,-0.35576 1.7792,-0.50914 0.78353,-0.40947 5.89674,-5.16363 8.55623,-7.95538 4.99175,-5.24 6.71579,-8.04241 8.67116,-14.09472 1.27021,-3.93164 1.50761,-5.57563 1.50942,-10.45347 0.003,-4.76803 -0.28122,-7.08908 -1.39081,-11.40673 -1.19474,-4.64895 -4.85182,-15.24823 -7.24903,-21.0096 -4.96742,-11.93867 -6.10073,-15.14629 -6.61495,-18.72233 -0.1297,-0.90203 -0.31683,-1.22356 -1.26393,-2.17182 l -1.11171,-1.11306 -0.0746,-1.75051 c -0.0686,-1.60929 -0.14537,-1.8697 -0.95172,-3.22791 -0.48242,-0.81257 -1.60464,-2.85013 -2.4938,-4.52792 -3.86012,-7.28369 -5.91899,-9.28832 -14.12487,-13.75274 -2.00102,-1.08865 -2.62689,-1.10589 -4.68382,-0.12906 -0.86762,0.41204 -1.92385,0.80536 -2.34716,0.87406 -1.57252,0.25518 -2.38954,-1.07496 -1.41852,-2.3094 0.22996,-0.29234 1.20665,-0.94058 2.17047,-1.44053 7.07631,-3.67064 13.5356,-8.98712 23.22378,-19.11496 3.41118,-3.566 10.21717,-11.10687 12.93625,-14.33305 7.14562,-8.47833 12.63921,-14.06014 18.39505,-18.69042 1.47225,-1.1844098 4.24915,-3.6830398 6.17085,-5.5525198 5.8155,-5.65752002 8.5221,-7.75022 12.8022,-9.89823 4.5635,-2.29022 7.8883,-3.27233 11.7613,-3.47414 1.5205,-0.0792 2.6142,-0.23868 2.9118,-0.42453 0.2621,-0.16371 0.7463,-0.89096 1.076,-1.6161302 0.3296,-0.72517 0.7521,-1.4441 0.9389,-1.59763 0.5586,-0.45924 1.6832,-0.22879 2.0451,0.41907 0.3522,0.63048 0.2928,1.10837 -0.6794,5.4715602 -1.2467,5.59506998 -1.4256,9.75857 -1.2097,28.1633198 0.093,7.89505 -0.026,9.74827 -0.8821,13.74459 -1.5095,7.04895 -5.7434,14.42529 -11.2491,19.59792 -5.0356,4.73107 -11.1715,8.96907 -19.8443,13.70642 -4.66757,2.54957 -5.30994,2.87697 -14.61103,7.44717 -8.71843,4.28389 -11.4779,5.90346 -13.20565,7.75059 l -1.02867,1.0997 0.13815,1.51929 c 0.0766,0.8421 0.0381,2.03644 -0.0862,2.67952 -0.40765,2.10802 0.5608,5.90239 3.10874,12.18029 4.43738,10.93323 4.80972,11.75236 5.34172,11.75236 0.17468,0 0.75942,-0.43516 1.29944,-0.96703 0.53998,-0.53187 1.79849,-1.55623 2.79669,-2.27636 0.99816,-0.72013 2.89423,-2.1286 4.21344,-3.12993 5.3529,-4.06308 11.70667,-8.64098 15.12597,-10.89826 2.782,-1.83661 3.7924,-2.62786 4.3571,-3.41216 0.7392,-1.02674 0.9649,-1.18683 2.7145,-1.92529 1.8557,-0.78325 10.9574,-8.95679 14.5476,-13.06409 4.2611,-4.87472 6.6963,-8.73048 9.5351,-15.09703 3.6952,-8.2871 5.8862,-17.15434 6.8668,-27.79069 0.4312,-4.67729 0.3203,-16.49407 -0.2367,-25.1987598 -0.398,-6.22038 -0.4599,-8.61324002 -0.3591,-13.8699 0.1397,-7.2848802 0.4302,-12.2854402 0.9165,-15.7756902 0.1866,-1.33935 0.3501,-2.81634 0.3632,-3.2822 0.022,-0.76815 -0.029,-0.85311 -0.5433,-0.91255 -0.3119,-0.036 -1.2648,0.18597 -2.1175,0.49338 -6.3584,2.29223 -9.7454,3.37589 -13.5145,4.324 -7.7906,1.95969 -8.2339,2.11117 -17.258,5.89641 -12.81857,5.3768902 -20.76411,9.5206102 -34.1983,17.8349402 -3.43574,2.12634 -8.34312,5.15515 -10.90535,6.7306698 -15.4457,9.49763 -26.97837,18.81288 -34.52769,27.88891 -2.27125,2.73055 -5.2508,6.81123 -6.52363,8.93451 -1.23418,2.05879 -2.26751,2.74116 -3.30791,2.18436 -1.11433,-0.59638 -0.61246,-2.28918 1.70257,-5.74293 6.22995,-9.29433 13.50645,-16.66707 24.90534,-25.23474 1.65033,-1.24043 3.03777,-2.42528 3.0832,-2.63299 0.15577,-0.71212 -0.3002,-1.26574 -1.7089,-2.07485 -0.77568,-0.44552 -1.99557,-1.22008 -2.71087,-1.72125 -2.4644,-1.72666 -4.24737,-2.45588 -13.87112,-5.6731698 -2.29371,-0.7668 -3.88413,-1.1809 -4.55273,-1.1854 -1.03314,-0.007 -1.54699,-0.16497 -5.05086,-1.55324 -1.60804,-0.63711 -2.16782,-0.75619 -3.5827,-0.76211 -1.47793,-0.006 -1.81538,-0.0852 -2.84364,-0.66548 -0.91922,-0.51877 -2.11323,-0.85352 -5.62861,-1.578 -9.72037,-2.00325002 -12.02352,-2.38279 -19.17881,-3.16052 -2.73694,-0.29749 -6.3103,-0.72856 -7.94079,-0.95795 -8.36485,-1.1768 -9.94403,-1.31698 -16.03953,-1.42379 -5.87657,-0.10298 -10.4881,0.0992 -13.71196,0.60128 -3.12771,0.48708 -7.56447,2.45111 -9.75234,4.31709998 -0.75062,0.64020002 -2.49228,2.03098002 -3.87031,3.09064002 -3.60709,2.77364 -5.32018,4.29409 -6.29921,5.59079 -1.38048,1.8284398 -1.67583,2.8889098 -2.0352,7.3076598 -0.46364,5.70064 -0.46909,5.52329 0.19932,6.4879 0.8195,1.18268 0.75379,2.00795 -0.39105,4.91251 -1.1904,3.02003 -2.35501,5.29166 -3.45474,6.73858 -1.51084,1.98779 -1.59499,2.48691 -0.38108,2.26046 1.24416,-0.2321 5.84622,-1.97598 7.46651,-2.82931 2.32061,-1.22218 2.84421,-1.14693 4.80703,0.69077 l 1.21758,1.13998 V 37.187 c 0,0.69665 -0.16268,2.40615 -0.3615,3.79889 -0.652,4.56746 -0.38304,13.48781 0.69882,23.1783 0.49415,4.426 0.78402,5.08255 1.91631,4.34062 0.89413,-0.58585 1.50201,-1.85304 2.28538,-4.76413 1.33033,-4.94377 5.40841,-14.25346 6.49939,-14.83736 0.26336,-0.14093 0.95423,-0.20337 1.63018,-0.14732 1.01955,0.0845 1.2581,0.19473 1.82248,0.84178 0.35715,0.40947 1.1258,1.05875 1.70814,1.44283 1.70868,1.12701 3.16284,2.41224 7.09377,6.26972 2.60686,2.55814 4.0193,3.7846 4.76327,4.13603 0.99906,0.47192 1.07306,0.5639 1.33733,1.66164 0.78994,3.28122 0.95527,3.80487 1.29982,4.11669 0.67735,0.61299 0.78249,0.33236 2.12692,-5.67655 1.42755,-6.38035 2.41786,-8.87388 5.39456,-13.58315 0.66258,-1.04819 1.64979,-2.7065 2.19386,-3.68514 1.35003,-2.42832 2.34582,-3.03198 3.50172,-2.12274 0.68751,0.5408 0.72879,1.36066 0.12783,2.53866 -0.71457,1.40067 -0.61576,2.08421 0.58614,4.05453 1.6149,2.64739 2.1514,4.55395 2.62501,9.32838 0.31563,3.18191 0.0748,6.68217 -0.7771,11.2948 -0.28959,1.56793 -0.72113,4.20565 -0.95895,5.86158 -0.57606,4.01106 -1.28525,7.08855 -2.36119,10.24643 -1.22784,3.60375 -0.83169,3.83315 2.20172,1.2749 1.47951,-1.24777 4.88907,-3.76307 5.61201,-4.14011 0.86707,-0.45221 1.95014,-0.2963 2.62419,0.37775 0.75449,0.75449 0.7912,1.47119 0.1743,3.40436 -0.66781,2.0927 -0.6437,4.8219 0.0674,7.62315 0.31043,1.22288 0.67013,3.27161 0.79935,4.55272 0.27327,2.70912 0.69515,4.89498 1.25274,6.4908 0.56945,1.62969 4.51349,9.71087 5.29088,10.84075 0.79728,1.1588 0.88541,2.35472 0.22571,3.06281 -0.89948,0.96548 -2.02829,0.40503 -3.2377,-1.6075 -1.4708,-2.44744 -4.94059,-9.79974 -5.61828,-11.90485 -0.49091,-1.52479 -0.9905,-4.34501 -1.20035,-6.77613 -0.0754,-0.87349 -0.41453,-2.70224 -0.7536,-4.06389 -0.3915,-1.57211 -0.61655,-3.02634 -0.61655,-3.98431 0,-1.6708 -0.23652,-2.32776 -0.83815,-2.32776 -0.21986,0 -1.33616,0.74459 -2.48066,1.65465 -2.95455,2.34932 -3.66335,2.79219 -4.469,2.79219 -0.65675,0 -1.53539,-0.59806 -1.76279,-1.19985 -0.0463,-0.1226 -0.53326,-0.41994 -1.08215,-0.66077 -1.64231,-0.72062 -1.6106,-1.25341 0.3367,-5.65666 0.99103,-2.24095 1.96107,-6.18486 2.57806,-10.48183 0.27594,-1.92168 0.64168,-4.16098 0.81278,-4.97623 1.30201,-6.20333 1.27587,-12.51721 -0.0698,-16.8548 -0.44741,-1.44228 -1.22281,-2.52072 -1.81233,-2.52072 -0.59929,0 -1.32048,0.9584 -2.41033,3.20309 -1.25759,2.59027 -1.84272,4.52792 -3.09312,10.24331 -1.79025,8.18296 -1.92518,9.64878 -1.05934,11.5087 0.29,0.623 0.52731,1.33192 0.52731,1.57536 0,0.51104 -1.86226,2.32276 -2.77705,2.70167 -1.45185,0.60138 -2.04239,-0.1142 -2.62951,-3.18635 -0.18919,-0.98995 -1.00729,-3.84864 -1.81801,-6.35263 -1.67646,-5.17803 -1.78025,-5.36175 -5.25536,-9.30285 -3.75621,-4.25995 -8.20595,-8.061 -9.43664,-8.061 -0.66686,0 -1.01844,0.47859 -2.26365,3.08163 l -1.10895,2.3181 -0.008,3.28219 c -0.006,2.68676 -0.0805,3.47827 -0.40902,4.36299 -0.50032,1.34749 -0.34357,2.07623 0.56577,2.63068 0.7752,0.47266 1.74239,0.52957 2.93374,0.17263 1.04039,-0.31171 1.24596,-0.13788 3.06276,2.58995 2.84276,4.26826 4.91598,9.54649 5.48333,13.96024 0.68707,5.3448 0.76722,5.50106 3.90852,7.619 0.99605,0.67156 2.62509,1.8763 3.62008,2.67719 14.97782,12.05588 20.03794,15.97312 21.88496,16.94202 3.24509,1.7023 4.15167,2.45204 4.15167,3.43341 0,0.55231 -1.08294,1.44536 -1.95366,1.61113 -1.98677,0.37824 -2.48927,0.62189 -3.96998,1.92494 -1.66896,1.46871 -4.25583,2.90948 -6.89359,3.83944 l -1.68796,0.5951 -6.77614,0.002 c -6.09836,0.001 -7.02756,-0.0454 -9.29,-0.46707 -2.30544,-0.42967 -2.57734,-0.44201 -3.2793,-0.14871 -0.86011,0.35938 -1.72411,1.09452 -1.72411,1.467 0,0.46295 -2.12872,4.60071 -3.36249,6.53598 -0.67725,1.06229 -1.48715,2.38231 -1.79976,2.93338 -0.31262,0.55107 -0.73215,1.09029 -0.93234,1.19828 -0.20015,0.108 -0.6385,0.66868 -0.97409,1.24597 -0.42783,0.73592 -0.85174,1.15618 -1.41843,1.4062 -0.83942,0.37035 -1.15926,0.90257 -0.94605,1.57429 0.14439,0.45498 3.39024,2.92939 4.74861,3.62002 0.50982,0.25921 2.22503,1.30437 3.81158,2.32259 10.37196,6.65656 19.12112,11.30249 29.03629,15.41871 9.07695,3.76823 9.32044,3.84307 10.0058,3.07519 0.47621,-0.53354 0.49763,-0.62297 2.59857,-10.85241 0.39467,-1.92167 0.95955,-4.54213 1.25525,-5.82324 0.72347,-3.13423 2.74739,-13.73754 3.27391,-17.1521 0.56368,-3.65558 1.28962,-10.11165 1.28572,-11.43473 -0.004,-1.51142 -0.17487,-1.70192 -1.27321,-1.42314 -0.96978,0.24616 -1.63204,0.095 -2.11063,-0.48162 -0.25911,-0.31222 -0.24707,-0.60702 0.0896,-2.19254 0.60382,-2.84364 0.95249,-4.85296 1.17044,-6.74501 0.11003,-0.95528 0.34953,-2.02591 0.53219,-2.37917 0.68014,-1.31522 2.20536,-0.95795 2.68049,0.62787 0.24219,0.80837 1.09226,1.90002 1.47951,1.90002 0.28959,0 0.85206,0.98967 1.04255,1.83438 0.18194,0.80669 -0.0497,6.54844 -0.43851,10.87088 -0.60284,6.7009 -2.6733,19.17854 -4.56784,27.52805 -0.40959,1.80521 -1.11605,5.09269 -1.56986,7.30552 -1.59499,7.77727 -2.29527,11.01827 -2.5393,11.75237 -0.13549,0.40763 -0.37008,1.31287 -0.52129,2.01166 -0.5638,2.60551 -2.2939,8.0511 -3.33141,10.48574 -0.17462,0.40978 -0.71273,1.20171 -1.19579,1.75986 -0.65586,0.75778 -0.87832,1.19576 -0.87832,1.72928 0,0.39296 -0.0892,0.94911 -0.19822,1.23587 -0.10904,0.28677 -0.14462,0.57505 -0.079,0.64061 0.38779,0.38778 2.6483,-1.68441 3.66307,-3.35785 0.28249,-0.46586 0.59267,-0.87996 0.68926,-0.92021 0.72458,-0.30191 1.46763,-1.2597 1.76149,-2.27052 0.18266,-0.62833 0.41823,-1.19564 0.52351,-1.26071 0.10527,-0.0651 0.63803,-0.94825 1.1839,-1.96264 0.54588,-1.01439 1.11757,-1.99154 1.27049,-2.17146 0.3122,-0.36739 1.15254,-2.88149 1.55392,-4.6491 0.14548,-0.64056 0.48252,-1.49817 0.74901,-1.90579 0.53805,-0.82301 1.3934,-3.09934 2.54623,-6.77614 1.33315,-4.25199 1.61294,-5.76467 1.76519,-9.54299 0.15432,-3.83 0.34373,-4.46498 1.412,-4.7331 0.79247,-0.19889 1.80949,0.44744 2.3145,1.47085 0.35506,0.71965 0.44022,1.52921 0.58959,5.60559 0.26582,7.25572 0.0488,19.53046 -0.36875,20.8578 -0.18318,0.58232 -0.46576,1.86873 -0.62796,2.85868 -0.86422,5.27528 -2.27524,10.11748 -5.2449,17.99912 -0.63629,1.68874 -1.37107,3.78511 -1.63291,4.65859 -0.8289,2.76558 -2.35875,6.41454 -3.22554,7.69353 -0.63277,0.93368 -0.91209,1.63121 -1.14478,2.85869 -0.16926,0.89301 -0.46053,2.1001 -0.64728,2.68242 -0.92711,2.89112 -3.72076,6.57894 -8.74263,11.54091 -2.18078,2.15477 -4.33,4.46742 -4.77605,5.13923 -0.50228,0.75648 -1.00954,1.2713 -1.33248,1.35236 -0.28683,0.072 -1.86819,1.03217 -3.51414,2.13374 -4.50154,3.01269 -8.28794,4.78611 -15.04527,7.04666 -4.12458,1.37982 -6.18614,1.96208 -7.45891,2.10671 -0.96737,0.10992 -2.11868,0.29758 -2.55839,0.41703 -5.78099,1.57029 -5.86257,1.58296 -10.22259,1.58668 -4.60858,0.004 -7.12507,-0.3656 -10.6854,-1.56906 -3.17016,-1.07159 -3.71597,-0.82186 -2.33011,1.06608 2.24334,3.05603 6.76192,5.94089 11.63909,7.43091 1.16464,0.35581 3.30867,1.05474 4.76448,1.55317 4.55523,1.5596 11.07541,2.93645 15.03455,3.17481 1.22288,0.0736 3.3669,0.27133 4.76448,0.43934 1.39756,0.16801 2.87456,0.34396 3.28219,0.391 0.40762,0.047 3.5998,0.0582 7.09376,0.0249 4.61863,-0.0441 6.95954,-0.15633 8.57604,-0.41124 z m -29.25079,-17.30957 c 3.81646,-1.0309 12.3528,-4.08682 14.83367,-5.31032 3.01338,-1.4861 7.30346,-4.26965 8.2606,-5.3598 0.99794,-1.1366 0.89875,-1.81435 -0.83638,-5.71416 -1.58722,-3.56734 -1.84617,-4.05843 -4.59309,-8.71126 -0.9758,-1.65286 -2.01902,-3.60629 -2.31823,-4.34096 -0.8961,-2.20021 -1.52649,-5.08439 -1.76133,-8.05831 -0.12188,-1.54351 -0.32859,-3.57637 -0.45933,-4.51747 -0.19366,-1.39414 -0.18333,-1.82445 0.0558,-2.3231 0.42115,-0.87835 1.16603,-1.20619 1.89001,-0.83181 0.57648,0.2981 0.74977,0.62503 1.36293,2.57115 0.18944,0.60128 0.45866,1.1349 0.59827,1.18583 0.13958,0.0509 3.35863,0.112 7.15339,0.13573 7.69483,0.0481 7.60026,0.0649 7.15276,-1.27173 -0.13252,-0.39575 -0.47083,-1.02924 -0.75183,-1.40775 -0.48441,-0.65247 -0.58183,-0.6882 -1.87655,-0.6882 -1.08329,0 -1.45318,-0.0876 -1.78915,-0.42351 -0.53624,-0.53623 -0.53624,-1.20198 0,-2.01166 0.73602,-1.11132 0.43611,-2.89747 -0.75065,-4.47084 -0.79874,-1.05893 -0.8602,-1.66658 -0.23215,-2.29464 0.58487,-0.58487 0.86815,-0.63024 2.12058,-0.33966 0.53973,0.12522 0.99357,0.11128 1.32729,-0.0408 0.54058,-0.2463 1.41891,-1.56306 2.08393,-3.12417 0.22328,-0.52409 0.81635,-1.72422 1.31797,-2.66697 1.44292,-2.71183 3.1855,-8.37898 2.91178,-9.46955 -0.22391,-0.89214 -0.91633,-1.30769 -4.64954,-2.79037 -14.99366,-5.95484 -23.3857,-10.36347 -38.64515,-20.30164 -5.68192,-3.70052 -6.24478,-4.00401 -7.19964,-3.88199 -0.40762,0.0521 -1.6464,0.52515 -2.75281,1.05124 -2.38029,1.13181 -4.74861,1.90454 -7.33219,2.39235 -2.23067,0.42117 -6.43401,0.31569 -8.97289,-0.22517 -3.01154,-0.64155 -6.62794,-2.75957 -8.42115,-4.93197 -2.86844,-3.4751 -5.28881,-8.9667 -6.41262,-14.54967 -0.37768,-1.87623 -0.4943,-3.37959 -0.59954,-7.72903 -0.12963,-5.35881 -0.13489,-5.40696 -0.69407,-6.35263 -0.87382,-1.47775 -7.16872,-6.27542 -12.50268,-9.52895 l -2.60369,-1.58815 -2.162238,-0.008 c -1.94362,-0.007 -2.21341,-0.0564 -2.66861,-0.484 -0.2785,-0.26165 -0.61804,-0.84837 -0.75449,-1.30383 -0.13644,-0.45546 -0.48834,-1.01709 -0.78198,-1.24806 -0.29364,-0.23097 -2.88799,-1.19521 -5.76521,-2.14274 -6.19647,-2.04065 -10.48012,-3.66179 -13.77976,-5.21497 -3.80128,-1.7893 -8.62741,-4.48523 -10.3825,-5.79977 -1.59001,-1.19088 -4.59059,-2.9172 -8.04445,-4.62819 -0.97713,-0.48406 -2.38444,-1.31385 -3.12733,-1.84398 -3.33391,-2.37902 -4.91714,-2.60243 -9.07184,-1.28015 -3.63196,1.15592 -7.73644,3.2706 -9.7081,5.00174 -0.4317,0.37903 -1.12637,1.27264 -1.54371,1.98578 -0.41734,0.71314 -0.86745,1.36663 -1.00025,1.45219 -0.53978,0.34782 -1.38075,0.15522 -1.83505,-0.42026 -0.68365,-0.866 -0.49325,-2.25213 0.51872,-3.77626 1.41832,-2.13614 0.65006,-2.17018 -3.37195,-0.1494 -2.68872,1.3509 -4.02793,2.22168 -7.82833,5.09014 -3.09476,2.33586 -3.55288,2.92314 -4.56441,5.85123 l -0.6497,1.88066 0.34283,3.41319 c 0.2603,2.59155 0.30728,4.36508 0.19514,7.36745 -0.19055,5.10152 -0.0437,6.55281 0.75316,7.44517 l 0.59882,0.67057 5.89388,0.13501 c 3.24163,0.0743 6.37437,0.23479 6.96163,0.35675 2.76349,0.5739 5.6291,1.92162 14.49618,6.81771 2.38754,1.3183 6.10382,3.24478 8.25842,4.28107 7.31156,3.5166 11.40364,5.63593 15.24085,7.89344 6.20946,3.65314 9.41013,5.02675 13.60986,5.84087 3.99979,0.77536 4.76597,0.4992 3.99019,-1.43822 -0.22401,-0.55944 -0.69936,-1.54127 -1.05633,-2.18182 -0.82152,-1.47423 -0.85111,-2.35738 -0.0987,-2.94919 0.69131,-0.54379 1.05816,-0.54937 1.91143,-0.0291 0.52585,0.32065 0.98996,1.07121 2.16388,3.49958 1.89271,3.91517 2.07706,4.50923 1.74413,5.62043 -0.41684,1.39133 -0.89695,1.56793 -3.83331,1.41004 -3.03933,-0.16342 -7.40616,-0.98514 -9.91317,-1.86539 -2.71173,-0.95212 -6.06326,-2.60522 -9.90092,-4.88353 -4.39544,-2.60946 -7.54378,-4.26342 -13.54202,-7.11427 -2.67967,-1.27359 -7.42602,-3.71166 -10.54744,-5.41793 -11.47072,-6.27025 -11.42365,-6.25304 -17.79877,-6.50941 -6.87501,-0.27648 -7.16367,-0.11422 -5.18093,2.91235 0.60109,0.91754 1.944,3.04996 2.98424,4.7387 4.72375,7.66858 5.96619,8.90276 21.43925,21.29674 12.87718,10.31467 13.67355,10.82968 28.16331,18.21352 7.55718,3.85106 10.41618,5.19268 18.29792,8.58647 9.87094,4.25032 19.307908,9.11598 24.688208,12.72914 4.50163,3.0231 10.17896,7.67632 16.5511,13.56551 1.78012,1.64519 3.42813,3.06212 3.66224,3.14873 0.32282,0.11941 0.65999,-0.0453 1.39499,-0.68142 1.04809,-0.90714 1.74923,-1.05231 2.26203,-0.46834 0.5345,0.60867 0.62248,1.23195 0.37031,2.62269 -0.13157,0.72549 -0.18134,1.62756 -0.1106,2.00459 0.13562,0.723 0.32253,0.96863 4.0533,5.32683 5.36253,6.26442 12.16862,16.11758 17.149,24.82654 2.74951,4.80798 2.69727,4.77722 6.41284,3.77358 z M 88.706782,150.08349 c -0.62562,-0.66783 -0.85225,-1.36839 -1.10766,-3.42369 -0.43394,-3.49219 0.57661,-5.4024 2.18762,-4.13517 0.71653,0.56362 0.93611,1.44884 1.11481,4.49426 0.14183,2.41677 0.13112,2.51016 -0.3455,3.0175 -0.6117,0.65114 -1.26779,0.66785 -1.84927,0.0471 z m 107.211038,70.51418 c 3.16276,-3.17601 5.98409,-6.83714 6.7579,-8.76946 0.28743,-0.71782 0.626,-2.14716 0.75233,-3.17632 0.23877,-1.94472 0.64336,-2.96729 1.69215,-4.27673 0.84537,-1.05548 1.94029,-3.50913 2.75348,-6.17051 0.37363,-1.22288 1.20494,-3.60512 1.84734,-5.29386 1.78338,-4.6883 3.44625,-9.75546 3.44625,-10.50163 0,-1.0629 -0.37901,-1.22346 -2.49161,-1.05548 -2.83027,0.22504 -3.59816,0.66499 -6.07932,3.48309 -1.14117,1.29616 -2.13328,2.35794 -2.20466,2.3595 -0.0714,0.002 -0.96354,0.78811 -1.98261,1.74789 -2.67466,2.51905 -2.71917,2.21851 1.27172,8.58592 1.33688,2.13299 2.55858,4.30311 2.71492,4.8225 0.41672,1.38464 0.10686,1.98345 -1.02953,1.9897 -0.92574,0.005 -1.59529,-0.57771 -2.84671,-2.47786 -0.63863,-0.96972 -1.33312,-1.85515 -1.54325,-1.96761 -0.26681,-0.1428 -0.65925,-0.099 -1.30099,0.14533 -1.23938,0.47181 -7.0293,0.61729 -11.46719,0.28812 -2.58564,-0.19178 -3.41888,-0.19097 -3.65325,0.004 -0.45825,0.38031 -0.3761,2.19078 0.20243,4.46101 0.62818,2.46513 1.22604,3.82254 2.95493,6.70902 2.36081,3.94146 3.27883,5.66344 4.50376,8.44786 0.65583,1.49081 1.3385,2.87733 1.51702,3.08114 0.71605,0.81757 1.26215,0.4998 4.18489,-2.43517 z m -58.25464,-0.17514 c 2.43821,-0.22395 4.88024,-0.40719 5.42675,-0.40719 1.13325,0 1.58234,-0.36646 1.3897,-1.13399 -0.2026,-0.80716 -4.5873,-6.40458 -7.19819,-9.18903 -1.53251,-1.63439 -1.79006,-1.57967 -4.32261,0.91825 -2.33058,2.29873 -4.98307,4.35454 -7.77545,6.02638 -1.04819,0.62757 -2.23799,1.44532 -2.644,1.81723 -0.71029,0.65064 -0.72419,0.69167 -0.36764,1.08564 0.72407,0.80011 5.54393,1.56413 8.83486,1.40047 1.2229,-0.0608 4.21835,-0.29381 6.65658,-0.51776 z m 75.62153,-42.88361 c 0.81746,-0.3879 1.57661,-1.74117 1.57661,-2.81049 0,-1.49194 -1.2097,-2.61197 -2.352,-2.17767 -0.70333,0.2674 -0.89771,0.53041 -1.88463,2.55001 -0.81991,1.67781 -0.99732,2.34131 -0.70431,2.6343 0.27691,0.27692 2.66025,0.13797 3.36433,-0.19615 z m 2.14111,-9.3489 c 0.48651,-1.1644 0.19192,-3.6733 -0.38916,-3.31418 -0.37724,0.23315 -1.2299,2.27655 -1.23205,2.95266 -0.004,1.34692 1.10603,1.59452 1.62121,0.36152 z M 141.48687,141.7767 c 2.19028,-0.55694 4.44987,-1.43257 5.01386,-1.943 0.8379,-0.75828 0.81183,-0.7902 -3.74176,-4.5797 -3.68746,-3.06872 -14.22736,-12.32161 -17.75617,-15.58802 -4.72617,-4.37473 -5.19798,-4.66285 -5.67099,-3.46318 -0.29561,0.74969 -0.0951,5.46298 0.33428,7.85691 1.38248,7.70863 4.51193,13.68512 8.5236,16.27799 3.17958,2.05506 8.57715,2.63917 13.29718,1.439 z m 10.95449,-5.83318 c 1.34768,-0.89268 2.32846,-2.01507 4.43624,-5.07673 1.92461,-2.79565 3.94613,-6.56545 4.1248,-7.69213 0.15847,-0.99929 -0.44313,-1.48136 -2.82669,-2.265 -7.15079,-2.35099 -11.68394,-4.8731 -17.35957,-9.65837 -4.58267,-3.86375 -6.18142,-6.50862 -4.41958,-7.31137 0.90475,-0.41223 1.60949,-0.008 3.70277,2.12473 3.39946,3.46331 7.89251,6.82975 11.55333,8.65644 2.17016,1.08288 6.10342,2.64534 8.19422,3.25509 2.03866,0.59455 2.57189,0.43006 2.93117,-0.90426 0.24226,-0.8997 0.0942,-5.7863 -0.19951,-6.58698 -0.0749,-0.20409 -1.20577,-1.45683 -2.51313,-2.78387 -2.65419,-2.69418 -3.43098,-3.9817 -3.43447,-5.6926 -0.003,-1.32339 0.39204,-2.222 1.77908,-4.04992 0.62678,-0.82601 1.39476,-2.01291 1.70665,-2.63756 0.49918,-0.99986 0.53624,-1.21 0.30989,-1.75647 -0.33568,-0.81043 -2.20998,-2.4412 -3.15851,-2.74815 -0.40977,-0.1326 -1.3168,-0.53563 -2.01559,-0.89561 -0.69876,-0.35998 -1.93677,-0.89481 -2.75107,-1.18849 -1.14345,-0.41238 -1.54509,-0.66914 -1.76393,-1.12758 -0.24435,-0.51186 -0.23579,-0.66625 0.0623,-1.12116 0.51115,-0.78012 1.02475,-0.89245 4.12841,-0.903 3.06509,-0.0104 2.98471,-0.0317 5.75061,1.52002 2.27607,1.27687 2.62119,0.75043 1.90104,-2.89959 -0.71767,-3.63739 -2.85713,-8.56348 -5.09699,-11.73579 -1.28813,-1.82436 -1.78915,-2.13263 -2.70032,-1.66145 -1.1993,0.6202 -6.54827,9.25774 -7.81904,12.62633 -0.77505,2.05446 -1.3367,2.75659 -2.20507,2.75659 -1.07303,0 -1.65854,0.45741 -3.0936,2.41681 -0.77511,1.05828 -2.70415,3.21407 -4.28675,4.79064 -2.40018,2.39103 -3.14092,2.99662 -4.46564,3.65093 -2.32891,1.15031 -3.72865,1.45799 -6.62336,1.45588 -2.91593,-0.002 -3.00561,0.0494 -3.7569,2.15837 -0.25531,0.71668 -0.78065,2.12022 -1.16746,3.11897 -1.41083,3.64286 -1.67608,5.54101 -0.96804,6.92739 0.22068,0.4321 1.34031,1.60698 2.4881,2.61084 1.14779,1.00386 3.08741,2.75795 4.31031,3.89797 2.19221,2.04371 13.44788,11.9307 17.3641,15.25267 2.1043,1.78499 4.25564,3.45559 4.97598,3.86403 0.7752,0.43956 1.87984,0.29223 2.90624,-0.38762 z m 32.56259,-15.74366 c 1.50463,-0.36869 3.16101,-1.04267 4.24626,-1.72776 0.70903,-0.44759 0.85019,-0.64541 0.79593,-1.11552 -0.0519,-0.44985 -0.42644,-0.8111 -1.76,-1.69767 -0.93171,-0.61942 -2.10003,-1.32975 -2.59629,-1.57853 -0.97884,-0.49071 -0.81502,-0.50853 -3.96808,0.4317 -1.48879,0.44395 -5.48136,0.42365 -7.59969,-0.0386 -0.91881,-0.20051 -2.7047,-0.68879 -3.96863,-1.08508 -1.26392,-0.39628 -2.43994,-0.66608 -2.61332,-0.59954 -0.48727,0.18698 -0.74457,1.4702 -0.74587,3.7198 0,1.82702 0.0512,2.11277 0.47526,2.59814 0.51562,0.59018 1.95135,0.97155 5.13504,1.36402 2.30461,0.28409 11.10683,0.0948 12.59939,-0.27093 z m -68.34256,-13.42012 c 0.18232,-0.20381 0.49649,-0.94178 0.69816,-1.63992 0.43617,-1.50983 0.23937,-2.58175 -0.76034,-4.14174 -1.13737,-1.7748 -2.94923,-2.37879 -8.19163,-2.7307 -2.18429,-0.14663 -3.40596,-0.14702 -3.78944,-0.001 l -0.56596,0.21518 0.50256,0.53495 c 0.27641,0.29423 1.79108,1.4002 3.36595,2.45772 1.57486,1.05752 3.81627,2.65507 4.98091,3.55013 3.02463,2.32446 3.18427,2.399 3.75979,1.75559 z m 13.54098,-12.11971 c 1.74661,-0.66366 2.99884,-1.61875 5.50164,-4.19611 1.91267,-1.96966 2.98712,-3.34181 5.21139,-6.65541 4.1574,-6.19341 4.31732,-6.56917 3.30702,-7.76983 -0.62897,-0.7475 -1.39819,-0.84934 -2.2104,-0.29267 -2.95477,2.02516 -8.2949,6.95111 -10.92046,10.07351 -2.51452,2.99029 -5.37881,7.44531 -5.37881,8.36595 0,0.24603 0.21441,0.60213 0.47646,0.79133 0.58703,0.42386 2.45126,0.27671 4.01316,-0.31677 z m -29.2633,-1.38043 c 1.44174,-0.74557 4.25513,-5.11872 5.51649,-8.57493 0.90402,-2.47701 1.14893,-3.65658 1.9823,-9.54613 0.91691,-6.48018 1.06298,-8.30569 0.87034,-10.87548 -0.12571,-1.67664 -0.2395,-2.14896 -0.62606,-2.59834 -0.38396,-0.44637 -0.58404,-0.5212 -1.06859,-0.39959 -1.25306,0.3145 -5.84362,5.35775 -7.728438,8.49055 -1.3761,2.28723 -4.23248,8.0549 -5.08619,10.27008 -0.38152,0.98995 -1.33587,3.41983 -2.12077,5.39974 -1.91586,4.83256 -1.98562,5.0649 -1.68799,5.62103 0.34065,0.63655 1.64377,1.15939 4.68091,1.87815 2.97701,0.70452 4.380678,0.79376 5.267998,0.33492 z M 274.75922,81.89861 c 0.46829,-0.37851 1.33907,-1.09098 1.9351,-1.58327 2.01014,-1.66028 4.86043,-3.23578 13.40542,-7.40983 18.38404,-8.9802 26.91784,-14.30614 33.50024,-20.9076 4.7466,-4.76026 8.2702,-11.1044 9.5974,-17.27957 0.8117,-3.77669 0.956,-6.67616 0.7525,-15.12843 -0.2433,-10.1097898 -0.1884,-14.8559498 0.2213,-19.11393982 0.1822,-1.89425998 0.3313,-3.81846998 0.3313,-4.27600998 0,-1.13772 -0.5403,-1.49118 -2.2795,-1.49118 -2.7359,0 -6.0524,0.98415 -10.0297,2.97622 -4.3952,2.20137998 -6.3321,3.69932 -12.5685,9.72009 -2.1648,2.09001 -4.9094,4.5522198 -6.099,5.4715798 -4.78164,3.69548 -9.90357,8.87554 -17.31613,17.51271 -12.06635,14.05981 -21.54218,23.65458 -29.23945,29.60652 -1.00659,0.77834 -1.88767,1.56507 -1.95797,1.74829 -0.22616,0.58934 0.24644,1.08147 2.03628,2.12046 5.15405,2.99189 8.145,5.59904 10.44362,9.10356 0.69335,1.0571 2.02295,3.38045 2.95468,5.163 1.70605,3.26397 2.54553,4.4556 3.13893,4.4556 0.17715,0 0.70522,-0.30969 1.17348,-0.6882 z M 261.1461,11.72146 c 1.38853,-0.89194 4.33506,-2.7349798 6.5479,-4.0956398 2.21283,-1.36067 6.64378,-4.09164 9.84658,-6.06882 9.40639,-5.80689 14.23515,-8.54823 21.54728,-12.2326702 4.24272,-2.13781 4.28532,-2.18467 4.28942,-4.7163 0,-0.90838 0.2409,-3.74797 0.5321,-6.3102 0.6539,-5.7538 0.9081,-14.77829 0.5456,-19.37552 -0.1331,-1.68874 -0.4297,-5.59561 -0.6591,-8.68192 -0.9432,-12.68961 -2.09783,-19.38052 -5.41441,-31.37437 -2.43703,-8.81318 -5.87993,-17.34178 -7.2963,-18.07422 -0.8831,-0.45669 -1.24004,-0.40373 -3.59017,0.53257 -3.83531,1.52798 -6.37546,2.95594 -12.91898,7.26248 -12.54681,8.25756 -16.10828,11.1724 -22.82177,18.67819 -11.08019,12.38787 -15.75897,20.68188 -22.35645,39.63114 -1.33178,3.82514 -2.85137,8.29377 -3.37681,9.93029 -1.72635,5.37668 -2.7408,10.85923 -3.01727,16.3069202 -0.23212,4.57324 0.0555,5.00942 4.79888,7.27844998 1.53701,0.73524002 5.24601,2.14501002 8.87804,3.37450002 10.39236,3.51798 11.83756,4.10395 14.07301,5.70606 0.58234,0.41734 2.2499,1.4518798 3.70571,2.2989898 1.92287,1.11889 2.85416,1.54178 3.40456,1.54599 0.58877,0.005 1.32019,-0.3556 3.28218,-1.61592 z M 218.14322,-1.6909598 c 0.22844,-0.36958 -0.53302,-1.33551 -2.17035,-2.75324 -0.87427,-0.75702 -2.74461,-2.61389 -4.15633,-4.12638 -3.42103,-3.6652702 -4.14831,-4.3728402 -4.36012,-4.2419402 -0.0982,0.0607 -0.12678,0.32463 -0.0636,0.58656 0.21346,0.88437 1.55218,3.6376102 2.53717,5.2179502 0.5383,0.86368 1.10034,2.09336 1.24891,2.73262 0.14861,0.63927 0.36771,1.25982 0.48692,1.37901 0.22208,0.2221 5.04789,1.37082 5.88284,1.40034 0.25518,0.009 0.52272,-0.0787 0.59454,-0.19492 z"
       id="path1"
       inkscape:label="xenia" /></g><metadata
     id="metadata27"><rdf:RDF><cc:License
         rdf:about="http://creativecommons.org/publicdomain/zero/1.0/"><cc:permits
           rdf:resource="http://creativecommons.org/ns#Reproduction" /><cc:permits
           rdf:resource="http://creativecommons.org/ns#Distribution" /><cc:permits
           rdf:resource="http://creativecommons.org/ns#DerivativeWorks" /></cc:License><cc:Work
         rdf:about=""><cc:license
           rdf:resource="http://creativecommons.org/publicdomain/zero/1.0/" /><dc:title>Xenia Linux Dirty Art 1</dc:title><dc:creator><cc:Agent><dc:title>Chimmie Firefly</dc:title></cc:Agent></dc:creator><dc:publisher><cc:Agent><dc:title>Chimmie Firefly</dc:title></cc:Agent></dc:publisher><dc:identifier>nya</dc:identifier><dc:source>Autism</dc:source><dc:language>arf</dc:language><dc:subject><rdf:Bag><rdf:li>xenia</rdf:li></rdf:Bag></dc:subject></cc:Work></rdf:RDF></metadata></svg>
