<?xml version="1.0" encoding="UTF-8" standalone="no"?>
<!-- Created with Inkscape (http://www.inkscape.org/) -->

<svg
   width="91.632004mm"
   height="72.414001mm"
   viewBox="0 0 91.632004 72.414002"
   version="1.1"
   id="svg1"
   xml:space="preserve"
   sodipodi:docname="xenia-inside.svg"
   inkscape:version="1.3.1 (91b66b0783, 2023-11-16, custom)"
   inkscape:export-filename="xenia-inside.png"
   inkscape:export-xdpi="96"
   inkscape:export-ydpi="96"
   xmlns:inkscape="http://www.inkscape.org/namespaces/inkscape"
   xmlns:sodipodi="http://sodipodi.sourceforge.net/DTD/sodipodi-0.dtd"
   xmlns="http://www.w3.org/2000/svg"
   xmlns:svg="http://www.w3.org/2000/svg"><sodipodi:namedview
     id="namedview1"
     pagecolor="#505050"
     bordercolor="#eeeeee"
     borderopacity="1"
     inkscape:showpageshadow="0"
     inkscape:pageopacity="0"
     inkscape:pagecheckerboard="0"
     inkscape:deskcolor="#505050"
     inkscape:document-units="mm"
     inkscape:zoom="1.2382856"
     inkscape:cx="60.163825"
     inkscape:cy="140.11307"
     inkscape:window-width="1821"
     inkscape:window-height="904"
     inkscape:window-x="0"
     inkscape:window-y="0"
     inkscape:window-maximized="1"
     inkscape:current-layer="layer1" /><defs
     id="defs1" /><g
     inkscape:label="main"
     inkscape:groupmode="layer"
     id="layer1"
     transform="translate(-58.781509,-96.003489)"><rect
       style="fill:#22002b;stroke-width:0.623953"
       id="rect1"
       width="91.632004"
       height="72.414001"
       x="58.781509"
       y="96.003487"
       inkscape:label="bg" /><path
       style="fill:#cc00ff"
       d="m 97.294571,168.37291 c -0.36755,-0.0372 -1.1867,-0.0948 -1.82033,-0.12804 -0.63364,-0.0333 -1.17873,-0.0766 -1.21131,-0.0963 -0.0326,-0.0197 -0.54694,-0.0924 -1.143,-0.16157 -0.59607,-0.0691 -1.40761,-0.17934 -1.80343,-0.24485 -0.39581,-0.0655 -0.98554,-0.16135 -1.3105,-0.21296 -0.32495,-0.0516 -0.725,-0.1286 -0.889,-0.17107 -0.16399,-0.0425 -0.71726,-0.15985 -1.2295,-0.26084 -0.51223,-0.10099 -1.01885,-0.21756 -1.12582,-0.25905 -0.10696,-0.0415 -0.28664,-0.0754 -0.39929,-0.0754 -0.11265,0 -0.32993,-0.0528 -0.48285,-0.11721 -0.28428,-0.11984 -0.84664,-0.2709 -1.48033,-0.39764 -0.1956,-0.0391 -0.4242,-0.106 -0.508,-0.14861 -0.0838,-0.0426 -0.38097,-0.14425 -0.66037,-0.22587 -0.79677,-0.23275 -1.87448,-0.59476 -2.286,-0.76787 -0.1397,-0.0588 -0.5588,-0.22986 -0.93134,-0.38021 -0.37253,-0.15035 -0.91556,-0.38209 -1.20672,-0.51498 -0.29117,-0.13289 -0.54989,-0.24161 -0.57494,-0.24161 -0.16681,0 -2.78854,-1.37641 -3.40842,-1.78943 -0.20024,-0.13341 -0.38048,-0.24257 -0.40053,-0.24257 -0.0328,0 -0.46264,-0.28981 -1.76406,-1.18949 -0.69047,-0.47733 -1.15885,-0.83689 -2.03496,-1.56218 -1.4677,-1.21504 -1.7181,-1.42946 -2.57079,-2.20133 -0.46297,-0.4191 -1.16827,-1.04107 -1.56733,-1.38215 -1.80253,-1.54066 -3.07149,-3.06167 -4.4306,-5.31065 -0.46643,-0.77182 -1.55654,-2.91886 -1.55784,-3.06825 -2.8e-4,-0.0332 -0.0531,-0.16098 -0.11727,-0.28405 -0.26411,-0.50619 -0.65455,-1.81823 -0.92863,-3.12057 -0.27536,-1.3085 -0.37293,-2.02885 -0.60557,-4.47117 -0.21838,-2.29262 0.13917,-6.66784 0.77064,-9.4302 0.71947,-3.14729 2.06451,-6.09571 4.41513,-9.6783 2.19321,-3.34267 5.75304,-7.2161 8.90947,-9.69433 1.60574,-1.26072 3.19868,-2.41268 4.31999,-3.12405 0.94756,-0.60114 2.62379,-1.61728 2.66788,-1.61728 0.0191,0 0.21891,-0.10858 0.44398,-0.24129 1.41742,-0.83573 5.41591,-2.80671 5.69393,-2.80671 0.0418,0 0.23996,-0.0871 0.44033,-0.19356 0.20037,-0.10646 0.61196,-0.28412 0.91465,-0.39479 0.30268,-0.11068 0.58843,-0.22807 0.635,-0.26087 0.0466,-0.0328 0.33086,-0.14364 0.63177,-0.24631 0.30091,-0.10266 0.58666,-0.21142 0.635,-0.24169 0.10843,-0.0679 1.13728,-0.42751 2.37389,-0.82978 0.51224,-0.16662 1.05645,-0.35682 1.20937,-0.42265 0.15293,-0.0658 0.34567,-0.11969 0.42832,-0.11969 0.0827,0 0.22424,-0.0559 0.31463,-0.124295 0.0904,-0.0684 0.23927,-0.12552 0.33085,-0.127 0.0916,-0.001 0.32018,-0.055 0.508,-0.11885 0.33267,-0.11316 0.80862,-0.25212 1.802,-0.52614 0.26776,-0.0739 0.60113,-0.17319 0.74083,-0.22074 0.1397,-0.0476 0.4064,-0.11892 0.59267,-0.15859 0.71321,-0.15193 1.41498,-0.32189 1.55131,-0.37572 0.0781,-0.0308 0.31347,-0.0895 0.52302,-0.13028 0.20955,-0.0408 0.628649,-0.1289 0.931329,-0.19574 0.30269,-0.0668 0.75989,-0.16651 1.016,-0.22149 0.25612,-0.055 0.61807,-0.13967 0.80434,-0.18819 0.18626,-0.0485 0.52916,-0.12 0.762,-0.15885 0.23283,-0.0388 0.70908,-0.12927 1.05833,-0.20095 3.04733,-0.62539 6.58257,-1.05633 10.16,-1.2385 2.16036,-0.11 10.56223,-0.0478 11.26067,0.0834 0.25611,0.0481 0.94191,0.12705 1.524,0.17543 2.06073,0.17127 4.94562,0.58615 6.77333,0.97407 0.34925,0.0741 0.81681,0.16913 1.03902,0.21113 0.22222,0.042 0.52702,0.1152 0.67734,0.16268 0.15032,0.0475 0.61621,0.16676 1.03531,0.26506 0.74986,0.17589 1.02195,0.25065 1.69333,0.46524 0.18627,0.0595 0.44344,0.13164 0.5715,0.16023 0.27314,0.061 0.29594,0.23354 0.11421,0.86454 -0.12242,0.42506 -0.31271,1.302415 -0.47496,2.189885 -0.24364,1.33266 -0.44447,2.31329 -0.66758,3.25966 -0.0384,0.16299 -0.11064,0.39159 -0.16049,0.508 -0.0498,0.11642 -0.11404,0.32041 -0.14265,0.45332 -0.0466,0.21631 -0.0805,0.23747 -0.32336,0.20179 -0.23439,-0.0344 -1.18486,-0.34593 -1.71067,-0.56064 -0.29849,-0.12188 -0.75463,-0.27675 -1.016,-0.34494 -0.1397,-0.0364 -0.34925,-0.10437 -0.46567,-0.15094 -0.11641,-0.0466 -0.44026,-0.1514 -0.71966,-0.23295 -0.2794,-0.0816 -0.65165,-0.20079 -0.82722,-0.26496 -0.17556,-0.0642 -0.38511,-0.11691 -0.46566,-0.1172 -0.0805,-2.9e-4 -0.25559,-0.0574 -0.38897,-0.127 -0.13338,-0.0696 -0.31686,-0.12648 -0.40773,-0.12648 -0.0909,0 -0.24844,-0.0448 -0.35016,-0.0995 -0.10171,-0.0547 -0.31828,-0.12887 -0.48126,-0.16478 -0.55782,-0.12289 -1.98938,-0.49866 -2.38203,-0.62524 -0.2158,-0.0696 -0.46011,-0.12649 -0.5429,-0.12649 -0.0828,0 -0.34437,-0.054 -0.5813,-0.1201 -0.78609,-0.21918 -2.6047,-0.50236 -4.66411,-0.72626 -1.4494,-0.15758 -3.56572,-0.19701 -4.74133,-0.0883 -0.60537,0.056 -1.63407,0.13289 -2.286,0.17096 -1.13423,0.0662 -2.18614,0.15977 -3.937,0.3501 -0.44238,0.0481 -1.16628,0.12102 -1.60867,0.16206 -0.44238,0.041 -0.93743,0.11443 -1.10011,0.1631 -0.16267,0.0487 -0.48999,0.0885 -0.72737,0.0885 -0.23738,0 -0.61864,0.0567 -0.84723,0.12609 -0.22859,0.0693 -0.56118,0.12649 -0.73908,0.127 -0.29557,8.3e-4 -0.6282,0.0514 -2.25887,0.34368 -0.30269,0.0542 -0.74084,0.12832 -0.97367,0.16461 -0.64972,0.10128 -1.39425,0.25598 -1.87011,0.38858 -0.23693,0.066 -0.51373,0.12004 -0.61511,0.12004 -0.10139,0 -0.40284,0.0537 -0.669889,0.11935 -1.12991,0.27772 -1.34914,0.32972 -1.67089,0.39632 -0.93574,0.19369 -2.6714,0.66371 -3.175,0.8598 -0.0699,0.0272 -0.3937,0.13467 -0.71966,0.23884 -0.73213,0.23395 -1.22426,0.41144 -1.41702,0.51105 -0.0809,0.0418 -0.19516,0.0762 -0.254,0.0765 -0.0588,2.9e-4 -0.21153,0.0551 -0.33931,0.12171 -0.12778,0.0667 -0.52783,0.22312 -0.889,0.34768 -0.36117,0.12457 -1.11387,0.39781 -1.67267,0.60721 -0.5588,0.2094 -1.11125,0.4118 -1.22767,0.44979 -0.11642,0.038 -0.42122,0.14999 -0.67733,0.24889 -0.25612,0.0989 -0.73237,0.27143 -1.05834,0.38339 -0.88783,0.30496 -1.29823,0.45698 -1.46157,0.5414 -0.0809,0.0418 -0.31854,0.14059 -0.52809,0.21952 -0.20955,0.0789 -0.4953,0.19296 -0.635,0.25343 -0.1397,0.0605 -0.46355,0.1946 -0.71967,0.29806 -1.69695,0.68552 -3.3471,1.5418 -4.75968,2.46983 -0.73187,0.48083 -1.8336,1.19808 -2.44827,1.5939 -1.08989,0.70183 -2.94566,2.04764 -3.54929,2.57396 -0.1655,0.14431 -0.48935,0.41462 -0.71967,0.60069 -0.69644,0.56266 -2.21789,2.06746 -2.95367,2.92135 -1.72634,2.00346 -3.06357,4.01759 -4.04726,6.096 -0.27549,0.58208 -0.59795,1.24883 -0.71657,1.48167 -0.11862,0.23283 -0.40338,0.80433 -0.63279,1.27 -0.22941,0.46566 -0.45321,0.91285 -0.49734,0.99376 -0.30193,0.55359 -0.74167,2.15907 -0.98006,3.57824 -0.22326,1.32909 -0.22378,4.84613 -9.1e-4,6.18066 0.24723,1.48045 0.41498,2.20187 0.73823,3.175 1.0252,3.08623 2.61311,5.64675 4.98566,8.03944 1.48063,1.49319 2.7981,2.55401 6.54669,5.27139 1.34976,0.97845 3.84901,2.32654 5.60593,3.02383 0.0931,0.037 0.3135,0.12964 0.4897,0.20594 0.17621,0.0763 0.36095,0.13874 0.41054,0.13874 0.0496,0 0.21023,0.0538 0.35696,0.11957 0.14674,0.0658 0.6478,0.24237 1.11347,0.39246 0.46566,0.15008 0.97178,0.32487 1.1247,0.38842 0.15292,0.0635 0.36352,0.11555 0.468,0.11555 0.10447,0 0.2651,0.0519 0.35696,0.11537 0.0918,0.0635 0.2813,0.13531 0.421,0.15966 0.1397,0.0243 0.3683,0.0836 0.508,0.13164 0.71616,0.24632 2.5776,0.764 3.00567,0.83589 0.11642,0.0195 0.40217,0.0881 0.635,0.1524 0.45316,0.12509 1.44601,0.34758 1.86267,0.41741 0.1397,0.0234 0.46355,0.0855 0.71966,0.13789 1.39761,0.28607 2.83946,0.51278 3.97934,0.6257 0.20955,0.0208 0.74295,0.0772 1.18533,0.12554 3.20486,0.34985 6.306339,0.34947 9.694329,-0.001 0.46567,-0.0482 1.03717,-0.10368 1.27,-0.12329 0.54616,-0.046 2.30888,-0.27833 2.96333,-0.39058 0.2794,-0.0479 0.6223,-0.10318 0.762,-0.1228 0.30184,-0.0424 1.43629,-0.25766 2.032,-0.38561 0.23284,-0.05 0.59479,-0.11886 0.80434,-0.15303 0.20955,-0.0342 0.5715,-0.10922 0.80433,-0.16681 0.80488,-0.19907 1.35701,-0.33122 1.94733,-0.46608 0.66021,-0.15083 1.3928,-0.34962 1.778,-0.48246 0.1397,-0.0482 0.38735,-0.11529 0.55034,-0.14913 0.16298,-0.0339 0.37955,-0.10631 0.48126,-0.16103 0.10172,-0.0547 0.26235,-0.0995 0.35696,-0.0995 0.0946,0 0.29715,-0.0525 0.45007,-0.11671 0.15292,-0.0642 0.50664,-0.18266 0.78604,-0.26327 0.2794,-0.0806 0.64135,-0.19537 0.80433,-0.255 0.16299,-0.0596 0.84879,-0.28698 1.524,-0.50522 0.67522,-0.21823 1.34773,-0.45102 1.49446,-0.5173 0.14674,-0.0663 0.29248,-0.1205 0.32386,-0.1205 0.0314,0 0.61617,-0.23106 1.29954,-0.51346 0.68336,-0.28241 1.35392,-0.55863 1.49013,-0.61384 0.5818,-0.2358 3.3164,-1.61472 4.0015,-2.01776 1.43321,-0.84315 2.97817,-1.8963 3.83651,-2.61522 0.25612,-0.21452 0.54622,-0.44448 0.64466,-0.51104 0.19556,-0.13222 0.84501,-0.71713 1.76834,-1.5926 0.32597,-0.30908 0.89747,-0.82501 1.27,-1.14653 1.02857,-0.88771 2.00042,-1.91157 2.30966,-2.43325 0.15271,-0.25762 0.44648,-0.84328 0.65283,-1.30147 0.20636,-0.45818 0.63386,-1.27355 0.95002,-1.81192 0.66993,-1.1408 0.7163,-1.22457 1.08112,-1.95291 0.44219,-0.88283 1.14774,-2.77594 1.32529,-3.556 0.61094,-2.68417 0.69217,-3.30384 0.69928,-5.334 0.007,-1.89973 -0.0512,-2.37309 -0.47087,-3.85234 -0.29285,-1.03225 -0.32878,-1.13575 -0.41213,-1.18727 -0.0448,-0.0277 -0.0818,-0.11481 -0.0821,-0.19356 -2.9e-4,-0.0787 -0.22213,-0.58132 -0.49298,-1.11683 -1.94925,-3.85407 -4.27526,-6.43642 -7.98002,-8.8595 -1.19883,-0.78409 -1.19509,-0.78176 -1.40718,-0.87371 -0.10251,-0.0444 -0.33828,-0.17669 -0.52392,-0.29389 -0.40043,-0.25277 -2.32787,-1.23382 -2.93036,-1.49151 -0.23283,-0.0996 -0.72813,-0.25492 -1.10067,-0.34519 -1.3691,-0.33173 -1.96932,-0.53421 -2.81516,-0.94964 l -0.52917,-0.2599 v -0.60426 c 0,-0.69149 0.26905,-3.16541 0.47377,-4.3564 0.076,-0.44239 0.15709,-0.96995 0.18009,-1.17236 0.0474,-0.4173 0.0224,-0.41382 1.08181,-0.15071 1.8241,0.45305 2.82421,0.86321 5.10522,2.09374 0.8942,0.4824 0.96798,0.52491 1.82177,1.04966 0.4546,0.2794 0.89175,0.54728 0.97144,0.59529 0.29674,0.17875 1.08866,0.73098 1.45723,1.01615 0.20955,0.16214 0.762,0.58927 1.22767,0.94919 1.18354,0.91477 3.80793,3.56281 4.32858,4.36759 0.22701,0.3509 0.55439,0.85965 0.72751,1.13056 0.17311,0.2709 0.50517,0.76184 0.73791,1.09096 0.4101,0.57995 2.24405,4.16375 2.87829,5.62459 1.38911,3.19952 1.64442,7.07798 0.76194,11.57449 -0.14084,0.71766 -0.2885,1.38831 -0.32812,1.49034 -0.0396,0.10203 -0.13921,0.43316 -0.22129,0.73584 -0.58772,2.1671 -1.91937,5.34658 -2.87004,6.85253 -0.11831,0.18743 -0.21511,0.36212 -0.21511,0.38822 0,0.0261 -0.071,0.15067 -0.15766,0.27685 -0.0867,0.12617 -0.4067,0.6104 -0.71108,1.07607 -0.9373,1.43397 -2.88382,3.9596 -4.05248,5.25816 -0.97463,1.08296 -2.50321,2.50309 -3.63415,3.37632 -1.01564,0.78421 -3.13309,2.24518 -3.25403,2.24518 -0.0195,0 -0.19928,0.11024 -0.39953,0.24498 -0.20024,0.13473 -0.51647,0.32792 -0.70274,0.4293 -0.18627,0.10138 -0.52917,0.29659 -0.762,0.4338 -0.38419,0.22641 -2.70597,1.38372 -3.429,1.70922 -0.8174,0.36797 -1.32191,0.58888 -1.80119,0.78867 -0.28993,0.12086 -0.56334,0.2543 -0.60758,0.29655 -0.0442,0.0423 -0.13949,0.0771 -0.21166,0.0773 -0.0722,2.9e-4 -0.22752,0.0508 -0.34521,0.11219 -0.11768,0.0614 -0.28913,0.13417 -0.381,0.16167 -0.0919,0.0275 -0.37658,0.13227 -0.63269,0.23282 -0.25612,0.10055 -0.56092,0.21521 -0.67734,0.2548 -0.11641,0.0396 -0.42121,0.15432 -0.67733,0.25497 -0.25612,0.10064 -0.57997,0.21543 -0.71967,0.25508 -0.1397,0.0396 -0.635,0.21064 -1.10066,0.37997 -0.46567,0.16933 -0.96125,0.33705 -1.10129,0.37271 -0.14004,0.0357 -0.33054,0.10392 -0.42333,0.1517 -0.25042,0.12893 -0.72132,0.28726 -1.06424,0.35782 -0.16657,0.0343 -0.35204,0.0927 -0.41215,0.12987 -0.0601,0.0371 -0.22863,0.0991 -0.37448,0.13758 -0.14585,0.0385 -0.45568,0.12565 -0.68851,0.19363 -0.23284,0.068 -0.76624,0.22181 -1.18534,0.34183 -0.4191,0.12002 -0.97155,0.27902 -1.22766,0.35333 -0.74911,0.21735 -0.92805,0.26193 -1.82034,0.45352 -0.46566,0.1 -0.99906,0.22262 -1.18533,0.27252 -0.18627,0.0499 -0.52917,0.12239 -0.762,0.16108 -0.23283,0.0387 -0.76623,0.13198 -1.18533,0.2073 -2.82926,0.50847 -4.58255,0.64084 -8.93234,0.67437 -2.025649,0.0156 -3.983709,-0.002 -4.351259,-0.0392 z m -10.88873,-11.57842 c -0.56005,-0.19642 -1.00779,-0.50409 -1.04908,-0.72089 -0.0199,-0.10475 -0.083,-0.4381 -0.14002,-0.74078 -0.0667,-0.3539 -0.12715,-2.09163 -0.16929,-4.86834 -0.0361,-2.3749 -0.0925,-4.64185 -0.12554,-5.03766 -0.0695,-0.8333 0.0759,-2.23396 0.2613,-2.51709 0.24949,-0.38109 0.82513,-0.55045 1.8709,-0.55045 1.06409,0 1.57561,0.13133 2.06398,0.52992 l 0.28593,0.23337 -0.0231,1.38496 c -0.0127,0.76172 -0.0586,1.8612 -0.10196,2.44329 -0.0434,0.58208 -0.0993,1.57268 -0.12421,2.20133 -0.0709,1.78827 -0.41587,5.10512 -0.68048,6.54222 -0.0666,0.36184 -0.12114,0.73115 -0.12114,0.8207 0,0.0896 -0.0847,0.22212 -0.18817,0.29461 -0.24748,0.17334 -1.24621,0.16471 -1.75917,-0.0152 z m 14.743339,-1.48538 c -0.40115,-0.12822 -1.03538,-0.78081 -1.293509,-1.33096 -0.40087,-0.85436 -0.53324,-1.45504 -0.79295,-3.59833 -0.22222,-1.8339 -0.49366,-3.42036 -0.62823,-3.67181 -0.0499,-0.0932 -0.0909,-0.23857 -0.0912,-0.32313 -2.8e-4,-0.0846 -0.0574,-0.26286 -0.127,-0.39624 -0.0696,-0.13338 -0.12647,-0.2808 -0.12647,-0.32759 0,-0.11187 -0.59878,-1.10531 -0.7145,-1.18544 -0.24756,-0.1714 -0.4776,-0.051 -0.88692,0.46437 -0.54628,0.68776 -1.03409,1.61586 -1.34743,2.56359 -0.37438,1.13233 -0.45608,1.83045 -0.39111,3.34191 0.0591,1.37487 -0.0199,2.13828 -0.28026,2.70934 -0.2429,0.53272 -0.35905,0.59293 -1.13874,0.59028 -1.32265,-0.005 -1.80911,-0.47416 -2.11669,-2.0436 -0.15593,-0.79565 -0.16524,-1.04012 -0.10259,-2.69535 0.0838,-2.21536 0.0823,-4.03415 -0.006,-6.79398 -0.0598,-1.87373 -0.0513,-2.14446 0.0805,-2.56341 0.1077,-0.34241 0.22866,-0.53045 0.44966,-0.69902 0.28332,-0.21609 0.35598,-0.23049 1.15558,-0.22897 1.33319,0.003 1.85189,0.22515 2.76959,1.18869 0.44897,0.4714 0.79964,0.71469 1.03014,0.71469 0.0652,0 0.23497,-0.18728 0.37726,-0.41617 0.40312,-0.64849 0.5565,-0.71463 1.65864,-0.71528 1.0581,-6.2e-4 1.462989,0.12383 2.034009,0.62519 0.35316,0.31008 0.84852,1.1469 0.97629,1.64926 0.29515,1.16053 0.43584,2.14394 0.48452,3.38667 0.0402,1.02557 0.21821,2.60694 0.3813,3.38666 0.0487,0.23284 0.13997,0.65194 0.20282,0.93134 0.65197,2.89817 0.77215,3.98683 0.54131,4.90358 -0.0888,0.3527 -0.10754,0.36864 -0.59139,0.50316 -0.55996,0.15569 -1.08224,0.16627 -1.50688,0.0305 z m 4.01032,-1.99277 c -0.65448,-0.27897 -0.89185,-0.44674 -1.10113,-0.77825 -0.11616,-0.18402 -0.2112,-0.43001 -0.2112,-0.54665 0,-0.54625 0.96149,-1.67068 3.11951,-3.64814 0.76942,-0.70504 0.96366,-1.38173 0.60467,-2.10659 -0.31184,-0.62966 -0.87669,-1.14604 -2.41185,-2.20493 -0.63326,-0.43679 -1.17287,-0.94426 -1.44255,-1.35663 -0.14059,-0.21496 -0.16559,-0.39913 -0.16268,-1.19833 0.004,-0.96331 0.006,-0.97387 0.44629,-1.84967 0.71574,-1.42389 2.53362,-3.08051 4.41861,-4.02664 0.30268,-0.15193 0.65146,-0.32726 0.77506,-0.38963 0.32635,-0.16468 0.78977,-0.1392 1.19096,0.0655 0.72612,0.37044 1.02737,0.97167 1.0346,2.0648 l 0.005,0.762 -0.3509,0.46567 c -0.64911,0.86139 -1.10251,1.23008 -2.14027,1.74038 -0.25255,0.12419 -0.64307,0.41459 -0.86784,0.64535 -0.39364,0.40414 -0.40865,0.43767 -0.40865,0.91275 0,0.46813 0.0201,0.51561 0.39627,0.93396 0.21796,0.24241 0.64658,0.60694 0.9525,0.81007 1.01662,0.67499 2.07224,1.82048 2.45472,2.66369 0.31485,0.69413 0.19507,2.01411 -0.26479,2.91786 -0.11059,0.21735 -0.79584,1.10388 -1.07914,1.39613 -0.11874,0.1225 -0.55871,0.60179 -0.97771,1.0651 -1.02177,1.12982 -1.43264,1.51939 -1.77266,1.68074 -0.39948,0.18957 -1.74517,0.17828 -2.20686,-0.0185 z m 9.779,-3.3925 c -0.46809,-0.0937 -0.8958,-0.32093 -1.25215,-0.66523 -0.3284,-0.31728 -0.32957,-0.32079 -0.43874,-1.32243 -0.0775,-0.71127 -0.0933,-1.61297 -0.0541,-3.09034 0.0549,-2.07002 0.0371,-2.42524 -0.29231,-5.81136 -0.16222,-1.66779 0.0707,-2.70046 0.68132,-3.02041 0.23389,-0.12256 0.48894,-0.15459 1.23092,-0.15459 1.366,0 1.91488,0.21931 2.37972,0.95082 0.17227,0.27111 0.20068,0.42202 0.20068,1.06604 0,0.42194 -0.0552,0.9321 -0.12608,1.16585 -0.0694,0.2286 -0.12691,0.52993 -0.12792,0.66963 -0.001,0.1397 -0.0586,0.44103 -0.12791,0.66962 -0.10307,0.33975 -0.12589,1.05844 -0.125,3.937 9.1e-4,2.95694 -0.0212,3.62316 -0.13818,4.15638 -0.14909,0.67984 -0.36195,1.33914 -0.44991,1.3935 -0.11675,0.0721 -1.08073,0.1115 -1.36033,0.0555 z m 11.67027,-0.73114 c -0.69039,-0.35955 -1.23452,-1.21454 -1.31826,-2.07142 -0.0814,-0.83251 -0.26129,-0.86906 -1.07726,-0.21883 -1.56513,1.24722 -3.20885,1.56207 -4.37936,0.83887 -0.68302,-0.422 -1.03711,-1.02175 -1.33793,-2.26612 -0.15541,-0.64289 -0.17759,-0.93852 -0.14921,-1.98925 0.0332,-1.23099 0.0988,-1.68407 0.41723,-2.88513 0.38699,-1.45951 0.98359,-2.8149 1.75157,-3.97934 0.94052,-1.42604 1.82616,-2.16579 2.74026,-2.28885 1.27771,-0.17201 1.58068,-0.25952 1.79973,-0.51984 0.48483,-0.57619 0.56244,-1.55259 0.29493,-3.71064 -0.0548,-0.44238 -0.0836,-1.21131 -0.0639,-1.70872 0.0317,-0.80089 0.0612,-0.94279 0.25783,-1.23991 l 0.22203,-0.33552 1.16533,-0.0624 c 0.64093,-0.0343 1.44902,-0.0288 1.79575,0.0122 0.55025,0.0652 0.65299,0.10506 0.80788,0.31374 0.15976,0.21526 0.17655,0.34696 0.16844,1.32111 -0.006,0.67052 -0.0627,1.32017 -0.15006,1.70824 -0.2105,0.93457 -0.29071,1.34712 -0.34395,1.76923 -0.0676,0.53612 -0.22634,8.35691 -0.25173,12.40367 -0.0181,2.87977 -0.043,3.46897 -0.16627,3.93658 -0.0798,0.30245 -0.19903,0.63233 -0.26503,0.73307 -0.31425,0.47961 -1.23574,0.59454 -1.91801,0.23923 z m -2.80274,-5.51501 c 1.2252,-0.59259 1.60253,-1.40223 1.39166,-2.98604 -0.0545,-0.40977 -0.0992,-1.16171 -0.0992,-1.671 0,-0.60731 -0.035,-0.96093 -0.1016,-1.02757 -0.49875,-0.49875 -2.07227,1.16674 -2.6637,2.8194 -0.23722,0.66288 -0.21442,1.97398 0.0453,2.60518 0.30875,0.75032 0.38508,0.76422 1.42752,0.26003 z m 10.31623,0.6594 c -0.0251,-0.0406 -0.15114,-0.095 -0.28017,-0.121 -0.91025,-0.18341 -2.64389,-1.67804 -3.14637,-2.71261 -0.43635,-0.89841 -0.57836,-1.9577 -0.4345,-3.24118 0.12616,-1.12556 0.55752,-2.83062 0.9026,-3.56778 0.89581,-1.91364 2.54899,-4.03245 3.57145,-4.57742 0.47864,-0.25512 0.55235,-0.26895 1.43282,-0.26895 1.00841,0 1.63907,0.16423 2.44549,0.63682 0.52074,0.30517 1.21623,1.02199 1.44975,1.49418 0.38618,0.7809 0.20248,2.76871 -0.36375,3.93605 -0.48963,1.00943 -1.28759,1.6277 -2.77377,2.14917 -0.36356,0.12757 -0.68424,0.25515 -0.71261,0.28353 -0.0284,0.0284 -0.11373,0.0516 -0.18968,0.0516 -0.16973,0 -1.25049,0.54674 -1.47216,0.74475 -0.83136,0.74262 -0.71378,2.02473 0.2182,2.37907 0.49514,0.18825 1.41656,-0.34671 2.58263,-1.49944 1.02362,-1.01191 1.2342,-1.11638 2.25041,-1.11638 h 0.79485 l 0.15853,0.35157 c 0.24105,0.53456 0.20358,1.43209 -0.0853,2.0427 -0.33262,0.7031 -1.26171,1.65221 -2.123,2.16874 -0.39648,0.23778 -0.74316,0.43233 -0.7704,0.43233 -0.0272,0 -0.16959,0.0531 -0.31633,0.11805 -0.67999,0.30089 -1.16396,0.38995 -2.11921,0.38995 -0.53566,0 -0.99443,-0.0332 -1.01949,-0.0737 z m 1.66369,-8.36299 c 0.7485,-0.28855 1.49822,-1.30328 1.50327,-2.03464 0.002,-0.29201 -0.38163,-0.53531 -0.8441,-0.53531 -0.6358,0 -1.20944,0.48818 -1.60948,1.36968 -0.24206,0.5334 -0.22315,0.94674 0.0533,1.16417 0.26943,0.21194 0.42471,0.21819 0.89703,0.0361 z m -49.572589,5.03506 c -0.95783,-0.51865 -1.30044,-1.83766 -0.6501,-2.50284 0.49025,-0.50145 1.94974,-0.80178 2.47356,-0.509 0.61123,0.34163 0.825,0.71463 0.82249,1.43513 -0.002,0.69356 -0.21625,1.16464 -0.6817,1.50181 -0.327,0.23688 -0.41332,0.25873 -1.00131,0.25355 -0.4793,-0.004 -0.72497,-0.0498 -0.96294,-0.17865 z m 29.148469,-6.4824 c -0.71006,-0.36085 -0.94346,-0.63424 -1.08705,-1.2733 -0.15841,-0.70504 0.1355,-1.35734 0.77301,-1.71564 0.29097,-0.16354 0.47568,-0.19649 1.12295,-0.20031 0.72084,-0.004 0.79621,0.0118 1.08434,0.2316 0.88124,0.67216 0.85236,2.06741 -0.058,2.79965 -0.28392,0.22839 -0.3984,0.26336 -0.93133,0.2845 -0.45191,0.0179 -0.68356,-0.0145 -0.90396,-0.1265 z"
       id="path1"
       sodipodi:nodetypes="ccscsscsssccsscsssssssscssccssccsscsscccsccssccccccccccccssscscsccssccccsccccssssccscsccsccscccccscsccscccscscccccccscsssscsccsscsscscscccccsccccscsscsscccssscsssscsssssssssscssscsccccscscccsscsssssssscsscsssssssssccssssscscscccssssssssccccccccsscscccsccccssccssccssccscccccsscssccscsscccssssssccsscccssssscssssscccscccsssscscsccccccsssccsssccscccsccccccccscscsssscsssssssssssssssscsssscscccsssccccsscscccsscccccc"
       inkscape:label="inside" /><path
       style="fill:#59cefa;stroke-width:1.26218;fill-opacity:1"
       d="m 126.69151,125.58145 c -0.14802,-0.1165 -0.42115,-0.44859 -0.60694,-0.73814 -0.57211,-0.89154 -1.32803,-1.07847 -2.45059,-0.60599 -1.734,0.72985 -4.06964,0.6035 -5.61679,-0.30381 -0.69319,-0.40652 -1.43259,-1.23114 -1.82997,-2.0409 -0.59909,-1.22077 -0.73941,-1.92594 -0.73366,-3.68682 0.006,-1.74882 0.17175,-2.64275 0.6874,-3.70115 0.64057,-1.3148 2.45098,-2.62608 4.25932,-3.08504 0.8474,-0.21506 2.1393,-0.21824 2.84472,-0.008 0.60967,0.18259 1.67361,0.79367 2.11643,1.21559 0.73534,0.70065 2.58204,3.82423 2.85062,4.82162 0.069,0.25616 0.16489,1.45676 0.21313,2.66799 0.0704,1.76804 0.13175,2.33922 0.31102,2.89687 0.3896,1.21204 0.27117,1.91741 -0.41951,2.49858 -0.42542,0.35796 -1.2147,0.39108 -1.62518,0.0682 z m -4.51423,-4.15531 c 0.49664,-0.22561 1.04692,-0.81269 1.29441,-1.38092 0.23051,-0.52928 0.3167,-2.35456 0.15502,-3.28302 -0.1394,-0.80043 -0.49432,-1.58491 -0.87874,-1.94223 -1.10285,-1.0251 -3.07608,-0.251 -3.96548,1.55568 -0.32405,0.65825 -0.34574,0.77264 -0.33629,1.77448 0.005,0.58898 0.0655,1.26784 0.13327,1.50858 0.18266,0.64912 0.69017,1.27833 1.32449,1.64211 0.68075,0.39041 1.58062,0.44001 2.27332,0.12534 z"
       id="path2"
       inkscape:label="a" /><path
       d="m 113.14883,129.06182 c -0.54216,-0.0329 -0.86407,-0.19451 -1.11319,-0.55901 -0.3552,-0.51972 -0.76588,-2.12962 -1.81686,-7.12234 -1.15227,-5.47376 -1.17399,-5.64196 -0.78461,-6.07585 0.63652,-0.7093 2.74853,-1.02536 3.62243,-0.54209 l 0.3992,0.22076 0.20012,1.18232 c 0.27242,1.60933 0.65125,4.12872 0.82768,5.50483 0.31634,2.46746 0.37534,3.0184 0.65495,6.11551 0.0287,0.31778 0.0227,0.62245 -0.0133,0.67706 -0.0959,0.14559 -0.86581,0.51334 -1.20347,0.57487 -0.16045,0.0289 -0.50824,0.04 -0.77302,0.0239 z m -2.76988,-15.83067 c -1.10116,-0.0335 -1.95867,-1.22531 -1.57937,-2.19505 0.22533,-0.57609 1.22267,-1.20753 1.91257,-1.2109 0.91842,-0.004 1.3134,0.25456 1.52347,0.99909 0.28381,1.00591 -0.0309,1.8487 -0.82635,2.21319 -0.46292,0.21211 -0.4576,0.21111 -1.03032,0.19368 z"
       style="fill:#f1a8b9;fill-opacity:1"
       id="path1-9"
       inkscape:label="i" /><path
       d="m 97.496562,132.50836 c -0.12711,-0.0769 -0.276294,-0.24897 -0.331514,-0.38229 -0.0747,-0.18046 -0.1026,-2.25597 -0.109,-8.1243 -0.01,-8.74886 -0.0439,-8.21606 0.551164,-8.54592 0.24917,-0.13813 0.4144,-0.15487 1.17879,-0.11943 0.866522,0.0402 1.436228,0.17894 1.810288,0.44094 0.0973,0.0682 0.49004,0.42841 0.87268,0.8005 0.39316,0.38234 0.7684,0.67655 0.86288,0.67655 0.17176,0 0.36899,-0.21218 0.61711,-0.66388 0.17368,-0.31618 0.59774,-0.44737 1.50637,-0.46602 0.94819,-0.0195 1.54516,0.15493 2.0336,0.59408 0.72954,0.65591 0.9518,1.36925 1.14304,3.66848 0.18032,2.16803 0.29044,2.95366 0.56369,4.02167 0.0477,0.18627 0.11405,0.52917 0.14754,0.762 0.0335,0.23283 0.10662,0.50655 0.16252,0.60827 0.0559,0.10171 0.10162,0.30876 0.10162,0.46011 0,0.15135 0.0557,0.48723 0.12368,0.7464 0.31479,1.19923 0.46176,3.95841 0.22856,4.2908 -0.0806,0.11496 -0.95543,0.37142 -1.26689,0.37142 -0.78551,0 -1.52165,-0.51372 -1.92089,-1.34051 -0.12743,-0.2639 -0.28452,-0.58769 -0.34908,-0.71952 -0.0646,-0.13183 -0.11738,-0.33436 -0.11738,-0.45006 0,-0.11571 -0.0451,-0.2936 -0.10027,-0.39531 -0.0551,-0.10171 -0.12726,-0.47068 -0.16026,-0.81993 -0.0826,-0.87475 -0.30008,-2.62971 -0.41437,-3.34434 -0.30049,-1.87889 -0.57697,-2.70513 -1.18288,-3.53483 -0.40846,-0.55933 -0.62975,-0.54971 -1.1474,0.0499 -0.69595,0.80611 -1.09727,1.72507 -1.33705,3.06162 -0.25402,1.41593 -0.31677,2.02743 -0.36056,3.51367 -0.0435,1.47648 -0.17884,3.69768 -0.25608,4.20283 -0.0233,0.1526 -0.10287,0.28507 -0.18672,0.31099 -0.0803,0.0248 -0.412776,0.14253 -0.738746,0.26154 -0.707272,0.25824 -1.557402,0.28677 -1.924442,0.0646 z"
       style="fill:#fdfdfd;fill-opacity:1"
       id="path1-6"
       inkscape:label="n" /><path
       d="m 88.235679,135.35362 c -0.0251,-0.0406 -0.15114,-0.095 -0.28017,-0.121 -0.91025,-0.18341 -2.64389,-1.67804 -3.14637,-2.71261 -0.43635,-0.89841 -0.57836,-1.9577 -0.4345,-3.24118 0.12616,-1.12556 0.55752,-2.83062 0.9026,-3.56778 0.89581,-1.91364 2.54899,-4.03245 3.57145,-4.57742 0.47864,-0.25512 0.55235,-0.26895 1.43282,-0.26895 1.00841,0 1.63907,0.16423 2.44549,0.63682 0.52074,0.30517 1.21623,1.02199 1.44975,1.49418 0.38618,0.7809 0.20248,2.76871 -0.36375,3.93605 -0.48963,1.00943 -1.28759,1.6277 -2.77377,2.14917 -0.36356,0.12757 -0.68424,0.25515 -0.71261,0.28353 -0.0284,0.0284 -0.11373,0.0516 -0.18968,0.0516 -0.16973,0 -1.25049,0.54674 -1.47216,0.74475 -0.83136,0.74262 -0.71378,2.02473 0.2182,2.37907 0.49514,0.18825 1.41656,-0.34671 2.58263,-1.49944 1.02362,-1.01191 1.2342,-1.11638 2.25041,-1.11638 h 0.79485 l 0.15853,0.35157 c 0.24105,0.53456 0.20358,1.43209 -0.0853,2.0427 -0.33262,0.7031 -1.26171,1.65221 -2.123,2.16874 -0.39648,0.23778 -0.74316,0.43233 -0.7704,0.43233 -0.0272,0 -0.16959,0.0531 -0.31633,0.11805 -0.67999,0.30089 -1.16396,0.38995 -2.11921,0.38995 -0.53566,0 -0.99443,-0.0332 -1.01949,-0.0737 z m 1.66369,-8.36299 c 0.7485,-0.28855 1.49822,-1.30328 1.50327,-2.03464 0.002,-0.29201 -0.38163,-0.53531 -0.8441,-0.53531 -0.6358,0 -1.20944,0.48818 -1.60948,1.36968 -0.24206,0.5334 -0.22315,0.94674 0.0533,1.16417 0.26943,0.21194 0.42471,0.21819 0.89703,0.0361 z"
       style="fill:#f5a6b5;fill-opacity:1"
       id="path1-5"
       inkscape:label="e" /><path
       d="m 70.494279,139.75697 c -0.48794,-0.0678 -0.84661,-0.24081 -1.13168,-0.546 -0.18186,-0.19468 -0.19611,-0.26772 -0.15442,-0.79121 0.091,-1.14257 0.36335,-1.81017 1.2319,-3.01978 0.59996,-0.83555 1.72792,-2.44415 2.02714,-2.89094 0.12475,-0.18627 0.2494,-0.35772 0.277,-0.381 0.15838,-0.1336 0.75573,-1.2693 0.75573,-1.43682 0,-0.49584 -1.01605,-1.59752 -2.15251,-2.33391 -1.1756,-0.76175 -2.03174,-1.60784 -2.45031,-2.42156 -0.34437,-0.66945 -0.37542,-0.97444 -0.14977,-1.47116 0.24859,-0.54723 1.08704,-1.05722 1.7381,-1.05722 0.53939,0 1.52464,0.56372 2.33716,1.33724 0.11641,0.11083 0.59266,0.49192 1.05833,0.84686 0.46567,0.35494 1.12166,0.92312 1.45776,1.26262 0.43841,0.44284 0.67162,0.61728 0.82526,0.61728 0.36675,0 1.10602,-0.79188 2.0956,-2.24473 0.4992,-0.7329 1.33882,-1.71326 1.65488,-1.93229 1.12873,-0.78221 2.7378,-0.80778 3.18507,-0.0506 0.20956,0.35475 0.18535,1.28943 -0.0434,1.67763 -0.0993,0.16848 -0.70167,0.82067 -1.3386,1.44932 -0.63693,0.62865 -1.30481,1.3716 -1.48418,1.651 -0.81317,1.2667 -1.10914,1.69812 -1.20814,1.76104 -0.0586,0.0372 -0.10653,0.18082 -0.10653,0.31907 0,0.36564 0.74764,1.07564 2.62568,2.49348 1.7661,1.33333 2.55005,2.07186 2.91941,2.75027 0.21347,0.39209 0.25352,0.55995 0.254,1.06473 5e-4,0.52677 -0.0282,0.63697 -0.23717,0.91095 -0.36545,0.47914 -0.82016,0.67267 -1.68324,0.7164 -0.65662,0.0333 -0.77032,0.0163 -1.05833,-0.15813 -0.96396,-0.58375 -1.77018,-1.33229 -3.36775,-3.12681 -1.1898,-1.33647 -1.28993,-1.43263 -1.49611,-1.43664 -0.29467,-0.006 -1.2718,1.19869 -2.1733,2.67884 -0.28849,0.47366 -0.52453,0.88032 -0.52453,0.90368 0,0.10884 -1.01595,1.51708 -1.36025,1.88548 -0.79857,0.85448 -0.93195,0.94665 -1.43375,0.99076 -0.25611,0.0225 -0.65616,0.0145 -0.889,-0.0178 z"
       style="fill:#5ccdf9;fill-opacity:1"
       id="path1-0"
       inkscape:label="x" /></g></svg>
